{"glyphs":{"0":{"ha":829,"x_min":85,"x_max":744,"o":"m 208 -15 l 208 104 l 85 104 l 85 761 l 208 761 l 208 883 l 619 883 l 619 761 l 744 761 l 744 104 l 619 104 l 619 -15 l 208 -15 m 249 157 l 579 157 l 579 710 l 249 710 l 249 157 z "},"1":{"ha":582,"x_min":85,"x_max":497,"o":"m 331 -15 l 331 710 l 249 710 l 249 589 l 85 589 l 85 761 l 208 761 l 208 883 l 372 883 l 372 761 l 497 761 l 497 -15 l 331 -15 z "},"2":{"ha":829,"x_min":85,"x_max":744,"o":"m 208 -15 l 208 104 l 85 104 l 85 400 l 208 400 l 208 519 l 579 519 l 579 710 l 249 710 l 249 589 l 85 589 l 85 761 l 208 761 l 208 883 l 619 883 l 619 761 l 744 761 l 744 468 l 619 468 l 619 349 l 249 349 l 249 157 l 579 157 l 579 278 l 744 278 l 744 104 l 619 104 l 619 -15 l 208 -15 z "},"3":{"ha":829,"x_min":85,"x_max":744,"o":"m 208 -15 l 208 104 l 85 104 l 85 278 l 249 278 l 249 157 l 579 157 l 579 349 l 208 349 l 208 519 l 579 519 l 579 710 l 249 710 l 249 589 l 85 589 l 85 761 l 208 761 l 208 883 l 619 883 l 619 761 l 744 761 l 744 468 l 619 468 l 619 400 l 744 400 l 744 104 l 619 104 l 619 -15 l 208 -15 z "},"4":{"ha":829,"x_min":85,"x_max":744,"o":"m 579 -15 l 579 226 l 85 226 l 85 519 l 208 519 l 208 640 l 331 640 l 331 761 l 456 761 l 456 883 l 744 883 l 744 -15 l 579 -15 m 249 400 l 579 400 l 579 710 l 497 710 l 497 589 l 371 589 l 371 468 l 249 468 l 249 400 z "},"5":{"ha":829,"x_min":85,"x_max":744,"o":"m 208 -15 l 208 104 l 85 104 l 85 278 l 249 278 l 249 157 l 579 157 l 579 226 l 331 226 l 331 349 l 208 349 l 208 468 l 85 468 l 85 761 l 208 761 l 208 883 l 619 883 l 619 761 l 744 761 l 744 468 l 579 468 l 579 710 l 249 710 l 249 519 l 372 519 l 372 400 l 619 400 l 619 278 l 744 278 l 744 104 l 619 104 l 619 -15 l 208 -15 z "},"6":{"ha":829,"x_min":85,"x_max":744,"o":"m 208 -15 l 208 104 l 85 104 l 85 761 l 208 761 l 208 883 l 619 883 l 619 761 l 744 761 l 744 589 l 579 589 l 579 710 l 249 710 l 249 519 l 619 519 l 619 400 l 744 400 l 744 104 l 619 104 l 619 -15 l 208 -15 m 249 157 l 579 157 l 579 349 l 249 349 l 249 157 z "},"7":{"ha":829,"x_min":85,"x_max":744,"o":"m 579 -15 l 579 710 l 249 710 l 249 589 l 85 589 l 85 761 l 208 761 l 208 883 l 619 883 l 619 761 l 744 761 l 744 -15 l 579 -15 z "},"8":{"ha":829,"x_min":85,"x_max":744,"o":"m 208 -15 l 208 104 l 85 104 l 85 400 l 208 400 l 208 468 l 85 468 l 85 761 l 208 761 l 208 883 l 619 883 l 619 761 l 744 761 l 744 468 l 619 468 l 619 400 l 744 400 l 744 104 l 619 104 l 619 -15 l 208 -15 m 249 157 l 579 157 l 579 349 l 249 349 l 249 157 m 249 519 l 579 519 l 579 710 l 249 710 l 249 519 z "},"9":{"ha":829,"x_min":85,"x_max":744,"o":"m 208 -15 l 208 104 l 85 104 l 85 278 l 249 278 l 249 157 l 579 157 l 579 349 l 208 349 l 208 468 l 85 468 l 85 761 l 208 761 l 208 883 l 619 883 l 619 761 l 744 761 l 744 104 l 619 104 l 619 -15 l 208 -15 m 249 519 l 579 519 l 579 710 l 249 710 l 249 519 z "},"A":{"ha":829,"x_min":85,"x_max":744,"o":"m 85 -15 l 85 640 l 208 640 l 208 761 l 331 761 l 331 883 l 497 883 l 497 761 l 619 761 l 619 640 l 744 640 l 744 -15 l 579 -15 l 579 226 l 249 226 l 249 -15 l 85 -15 m 249 400 l 579 400 l 579 589 l 456 589 l 456 710 l 372 710 l 372 589 l 249 589 l 249 400 z "},"Á":{"ha":829,"x_min":85,"x_max":744,"o":"m 85 -15 l 85 640 l 208 640 l 208 761 l 331 761 l 331 883 l 497 883 l 497 761 l 619 761 l 619 640 l 744 640 l 744 -15 l 579 -15 l 579 226 l 249 226 l 249 -15 l 85 -15 m 249 400 l 579 400 l 579 589 l 456 589 l 456 710 l 372 710 l 372 589 l 249 589 l 249 400 m 294 957 l 294 1068 l 356 1068 l 356 1128 l 419 1128 l 419 1189 l 521 1189 l 521 1076 l 458 1076 l 458 1015 l 397 1015 l 397 957 l 294 957 z "},"Ă":{"ha":829,"x_min":85,"x_max":744,"o":"m 85 -15 l 85 640 l 208 640 l 208 761 l 331 761 l 331 883 l 497 883 l 497 761 l 619 761 l 619 640 l 744 640 l 744 -15 l 579 -15 l 579 226 l 249 226 l 249 -15 l 85 -15 m 249 400 l 579 400 l 579 589 l 456 589 l 456 710 l 372 710 l 372 589 l 249 589 l 249 400 m 235 957 l 235 1131 l 336 1131 l 336 1069 l 492 1069 l 492 1131 l 592 1131 l 592 957 l 235 957 z "},"Â":{"ha":829,"x_min":85,"x_max":744,"o":"m 85 -15 l 85 640 l 208 640 l 208 761 l 331 761 l 331 883 l 497 883 l 497 761 l 619 761 l 619 640 l 744 640 l 744 -15 l 579 -15 l 579 226 l 249 226 l 249 -15 l 85 -15 m 249 400 l 579 400 l 579 589 l 456 589 l 456 710 l 372 710 l 372 589 l 249 589 l 249 400 m 303 957 l 303 1068 l 365 1068 l 365 1131 l 468 1131 l 468 1068 l 529 1068 l 529 957 l 426 957 l 426 1018 l 404 1018 l 404 957 l 303 957 z "},"Ä":{"ha":829,"x_min":85,"x_max":744,"o":"m 85 -15 l 85 640 l 208 640 l 208 761 l 331 761 l 331 883 l 497 883 l 497 761 l 619 761 l 619 640 l 744 640 l 744 -15 l 579 -15 l 579 226 l 249 226 l 249 -15 l 85 -15 m 249 400 l 579 400 l 579 589 l 456 589 l 456 710 l 372 710 l 372 589 l 249 589 l 249 400 m 193 951 l 193 1125 l 360 1125 l 360 951 l 193 951 m 483 951 l 483 1125 l 649 1125 l 649 951 l 483 951 z "},"À":{"ha":829,"x_min":85,"x_max":744,"o":"m 85 -15 l 85 640 l 208 640 l 208 761 l 331 761 l 331 883 l 497 883 l 497 761 l 619 761 l 619 640 l 744 640 l 744 -15 l 579 -15 l 579 226 l 249 226 l 249 -15 l 85 -15 m 249 400 l 579 400 l 579 589 l 456 589 l 456 710 l 372 710 l 372 589 l 249 589 l 249 400 m 365 957 l 365 1015 l 303 1015 l 303 1076 l 242 1076 l 242 1189 l 343 1189 l 343 1128 l 406 1128 l 406 1068 l 468 1068 l 468 957 l 365 957 z "},"Ā":{"ha":829,"x_min":85,"x_max":744,"o":"m 85 -15 l 85 640 l 208 640 l 208 761 l 331 761 l 331 883 l 497 883 l 497 761 l 619 761 l 619 640 l 744 640 l 744 -15 l 579 -15 l 579 226 l 249 226 l 249 -15 l 85 -15 m 249 400 l 579 400 l 579 589 l 456 589 l 456 710 l 372 710 l 372 589 l 249 589 l 249 400 m 210 957 l 210 1121 l 621 1121 l 621 957 l 210 957 z "},"Ą":{"ha":829,"x_min":85,"x_max":858,"o":"m 85 -15 l 85 640 l 208 640 l 208 761 l 331 761 l 331 883 l 497 883 l 497 761 l 619 761 l 619 640 l 744 640 l 744 -15 l 579 -15 l 579 226 l 249 226 l 249 -15 l 85 -15 m 249 400 l 579 400 l 579 589 l 456 589 l 456 710 l 372 710 l 372 589 l 249 589 l 249 400 m 569 -285 l 569 -224 l 508 -224 l 508 -112 l 569 -112 l 569 -71 l 590 -72 l 590 38 l 735 38 l 735 -103 l 672 -103 l 672 -132 l 651 -140 l 651 -172 l 756 -172 l 756 -112 l 857 -112 l 857 -224 l 796 -224 l 796 -285 l 569 -285 z "},"Å":{"ha":829,"x_min":85,"x_max":744,"o":"m 85 -15 l 85 640 l 208 640 l 208 761 l 331 761 l 331 883 l 497 883 l 497 761 l 619 761 l 619 640 l 744 640 l 744 -15 l 579 -15 l 579 226 l 249 226 l 249 -15 l 85 -15 m 249 400 l 579 400 l 579 589 l 456 589 l 456 710 l 372 710 l 372 589 l 249 589 l 249 400 m 333 957 l 333 1131 l 496 1131 l 496 957 l 333 957 m 379 1003 l 450 1003 l 450 1085 l 379 1085 l 379 1003 z "},"Ã":{"ha":829,"x_min":85,"x_max":744,"o":"m 85 -15 l 85 640 l 208 640 l 208 761 l 331 761 l 331 883 l 497 883 l 497 761 l 619 761 l 619 640 l 744 640 l 744 -15 l 579 -15 l 579 226 l 249 226 l 249 -15 l 85 -15 m 249 400 l 579 400 l 579 589 l 456 589 l 456 710 l 372 710 l 372 589 l 249 589 l 249 400 m 228 957 l 228 1133 l 463 1133 l 463 1072 l 486 1072 l 486 1133 l 592 1133 l 592 957 l 356 957 l 356 1019 l 332 1019 l 332 957 l 228 957 z "},"Æ":{"ha":1325,"x_min":85,"x_max":1240,"o":"m 85 -15 l 85 640 l 208 640 l 208 761 l 331 761 l 331 883 l 497 883 l 497 761 l 704 761 l 704 883 l 1117 883 l 1117 761 l 1240 761 l 1240 589 l 1075 589 l 1075 710 l 744 710 l 744 519 l 992 519 l 992 349 l 744 349 l 744 157 l 1075 157 l 1075 278 l 1240 278 l 1240 104 l 1117 104 l 1117 -15 l 579 -15 l 579 226 l 249 226 l 249 -15 l 85 -15 m 249 400 l 579 400 l 579 589 l 456 589 l 456 710 l 372 710 l 372 589 l 249 589 l 249 400 z "},"Ǽ":{"ha":1325,"x_min":85,"x_max":1240,"o":"m 85 -15 l 85 640 l 208 640 l 208 761 l 331 761 l 331 883 l 497 883 l 497 761 l 704 761 l 704 883 l 1117 883 l 1117 761 l 1240 761 l 1240 589 l 1075 589 l 1075 710 l 744 710 l 744 519 l 992 519 l 992 349 l 744 349 l 744 157 l 1075 157 l 1075 278 l 1240 278 l 1240 104 l 1117 104 l 1117 -15 l 579 -15 l 579 226 l 249 226 l 249 -15 l 85 -15 m 249 400 l 579 400 l 579 589 l 456 589 l 456 710 l 372 710 l 372 589 l 249 589 l 249 400 m 564 925 l 564 1036 l 625 1036 l 625 1096 l 689 1096 l 689 1157 l 790 1157 l 790 1044 l 728 1044 l 728 983 l 667 983 l 667 925 l 564 925 z "},"B":{"ha":829,"x_min":85,"x_max":744,"o":"m 208 -15 l 208 104 l 85 104 l 85 761 l 208 761 l 208 883 l 619 883 l 619 761 l 744 761 l 744 468 l 619 468 l 619 400 l 744 400 l 744 104 l 619 104 l 619 -15 l 208 -15 m 249 157 l 579 157 l 579 349 l 331 349 l 331 519 l 579 519 l 579 710 l 249 710 l 249 157 z "},"C":{"ha":829,"x_min":85,"x_max":744,"o":"m 208 -15 l 208 104 l 85 104 l 85 761 l 208 761 l 208 883 l 619 883 l 619 761 l 744 761 l 744 468 l 579 468 l 579 710 l 249 710 l 249 157 l 579 157 l 579 400 l 744 400 l 744 104 l 619 104 l 619 -15 l 208 -15 z "},"Ć":{"ha":829,"x_min":85,"x_max":744,"o":"m 208 -15 l 208 104 l 85 104 l 85 761 l 208 761 l 208 883 l 619 883 l 619 761 l 744 761 l 744 468 l 579 468 l 579 710 l 249 710 l 249 157 l 579 157 l 579 400 l 744 400 l 744 104 l 619 104 l 619 -15 l 208 -15 m 292 957 l 292 1068 l 353 1068 l 353 1128 l 417 1128 l 417 1189 l 518 1189 l 518 1076 l 456 1076 l 456 1015 l 394 1015 l 394 957 l 292 957 z "},"Č":{"ha":829,"x_min":85,"x_max":744,"o":"m 208 -15 l 208 104 l 85 104 l 85 761 l 208 761 l 208 883 l 619 883 l 619 761 l 744 761 l 744 468 l 579 468 l 579 710 l 249 710 l 249 157 l 579 157 l 579 400 l 744 400 l 744 104 l 619 104 l 619 -15 l 208 -15 m 363 957 l 363 1018 l 300 1018 l 300 1131 l 401 1131 l 401 1069 l 424 1069 l 424 1131 l 526 1131 l 526 1018 l 465 1018 l 465 957 l 363 957 z "},"Ç":{"ha":829,"x_min":85,"x_max":744,"o":"m 208 -15 l 208 104 l 85 104 l 85 761 l 208 761 l 208 883 l 619 883 l 619 761 l 744 761 l 744 468 l 579 468 l 579 710 l 249 710 l 249 157 l 579 157 l 579 400 l 744 400 l 744 104 l 619 104 l 619 -15 l 208 -15 m 282 -268 l 282 -207 l 221 -207 l 221 -96 l 324 -96 l 324 -156 l 426 -156 l 426 -126 l 406 -124 l 406 -86 l 344 -86 l 344 36 l 488 36 l 488 -75 l 549 -75 l 549 -129 l 569 -147 l 569 -207 l 508 -207 l 508 -268 l 282 -268 z "},"Ĉ":{"ha":829,"x_min":85,"x_max":744,"o":"m 208 -15 l 208 104 l 85 104 l 85 761 l 208 761 l 208 883 l 619 883 l 619 761 l 744 761 l 744 468 l 579 468 l 579 710 l 249 710 l 249 157 l 579 157 l 579 400 l 744 400 l 744 104 l 619 104 l 619 -15 l 208 -15 m 300 957 l 300 1068 l 363 1068 l 363 1131 l 465 1131 l 465 1068 l 526 1068 l 526 957 l 424 957 l 424 1018 l 401 1018 l 401 957 l 300 957 z "},"Ċ":{"ha":829,"x_min":85,"x_max":744,"o":"m 208 -15 l 208 104 l 85 104 l 85 761 l 208 761 l 208 883 l 619 883 l 619 761 l 744 761 l 744 468 l 579 468 l 579 710 l 249 710 l 249 157 l 579 157 l 579 400 l 744 400 l 744 104 l 619 104 l 619 -15 l 208 -15 m 331 957 l 331 1131 l 497 1131 l 497 957 l 331 957 z "},"D":{"ha":829,"x_min":85,"x_max":744,"o":"m 85 -15 l 85 883 l 497 883 l 497 761 l 619 761 l 619 640 l 744 640 l 744 226 l 619 226 l 619 104 l 497 104 l 497 -15 l 85 -15 m 249 157 l 456 157 l 456 278 l 579 278 l 579 589 l 456 589 l 456 710 l 249 710 l 249 157 z "},"Ď":{"ha":829,"x_min":85,"x_max":744,"o":"m 85 -15 l 85 883 l 497 883 l 497 761 l 619 761 l 619 640 l 744 640 l 744 226 l 619 226 l 619 104 l 497 104 l 497 -15 l 85 -15 m 249 157 l 456 157 l 456 278 l 579 278 l 579 589 l 456 589 l 456 710 l 249 710 l 249 157 m 296 957 l 296 1018 l 233 1018 l 233 1131 l 335 1131 l 335 1069 l 357 1069 l 357 1131 l 460 1131 l 460 1018 l 399 1018 l 399 957 l 296 957 z "},"Đ":{"ha":829,"x_min":32,"x_max":744,"o":"m 83 -15 l 83 322 l 32 322 l 32 496 l 83 496 l 83 883 l 496 883 l 496 761 l 618 761 l 618 640 l 744 640 l 744 226 l 619 226 l 619 104 l 496 104 l 496 -15 l 83 -15 m 247 157 l 456 157 l 456 278 l 578 278 l 578 589 l 456 589 l 456 710 l 247 710 l 247 496 l 385 496 l 385 322 l 247 322 l 247 157 z "},"Ð":{"ha":829,"x_min":32,"x_max":744,"o":"m 83 -15 l 83 322 l 32 322 l 32 496 l 83 496 l 83 883 l 496 883 l 496 761 l 618 761 l 618 640 l 744 640 l 744 226 l 619 226 l 619 104 l 496 104 l 496 -15 l 83 -15 m 247 157 l 456 157 l 456 278 l 578 278 l 578 589 l 456 589 l 456 710 l 247 710 l 247 496 l 385 496 l 385 322 l 247 322 l 247 157 z "},"E":{"ha":829,"x_min":85,"x_max":744,"o":"m 208 -15 l 208 104 l 85 104 l 85 761 l 208 761 l 208 883 l 619 883 l 619 761 l 744 761 l 744 589 l 579 589 l 579 710 l 249 710 l 249 519 l 497 519 l 497 349 l 249 349 l 249 157 l 579 157 l 579 278 l 744 278 l 744 104 l 619 104 l 619 -15 l 208 -15 z "},"É":{"ha":829,"x_min":85,"x_max":744,"o":"m 208 -15 l 208 104 l 85 104 l 85 761 l 208 761 l 208 883 l 619 883 l 619 761 l 744 761 l 744 589 l 579 589 l 579 710 l 249 710 l 249 519 l 497 519 l 497 349 l 249 349 l 249 157 l 579 157 l 579 278 l 744 278 l 744 104 l 619 104 l 619 -15 l 208 -15 m 290 957 l 290 1068 l 351 1068 l 351 1128 l 415 1128 l 415 1189 l 517 1189 l 517 1076 l 454 1076 l 454 1015 l 393 1015 l 393 957 l 290 957 z "},"Ĕ":{"ha":829,"x_min":85,"x_max":744,"o":"m 208 -15 l 208 104 l 85 104 l 85 761 l 208 761 l 208 883 l 619 883 l 619 761 l 744 761 l 744 589 l 579 589 l 579 710 l 249 710 l 249 519 l 497 519 l 497 349 l 249 349 l 249 157 l 579 157 l 579 278 l 744 278 l 744 104 l 619 104 l 619 -15 l 208 -15 m 232 957 l 232 1131 l 333 1131 l 333 1069 l 489 1069 l 489 1131 l 589 1131 l 589 957 l 232 957 z "},"Ě":{"ha":829,"x_min":85,"x_max":744,"o":"m 208 -15 l 208 104 l 85 104 l 85 761 l 208 761 l 208 883 l 619 883 l 619 761 l 744 761 l 744 589 l 579 589 l 579 710 l 249 710 l 249 519 l 497 519 l 497 349 l 249 349 l 249 157 l 579 157 l 579 278 l 744 278 l 744 104 l 619 104 l 619 -15 l 208 -15 m 361 957 l 361 1018 l 299 1018 l 299 1131 l 400 1131 l 400 1069 l 422 1069 l 422 1131 l 525 1131 l 525 1018 l 464 1018 l 464 957 l 361 957 z "},"Ê":{"ha":829,"x_min":85,"x_max":744,"o":"m 208 -15 l 208 104 l 85 104 l 85 761 l 208 761 l 208 883 l 619 883 l 619 761 l 744 761 l 744 589 l 579 589 l 579 710 l 249 710 l 249 519 l 497 519 l 497 349 l 249 349 l 249 157 l 579 157 l 579 278 l 744 278 l 744 104 l 619 104 l 619 -15 l 208 -15 m 299 957 l 299 1068 l 361 1068 l 361 1131 l 464 1131 l 464 1068 l 525 1068 l 525 957 l 422 957 l 422 1018 l 400 1018 l 400 957 l 299 957 z "},"Ë":{"ha":829,"x_min":85,"x_max":744,"o":"m 208 -15 l 208 104 l 85 104 l 85 761 l 208 761 l 208 883 l 619 883 l 619 761 l 744 761 l 744 589 l 579 589 l 579 710 l 249 710 l 249 519 l 497 519 l 497 349 l 249 349 l 249 157 l 579 157 l 579 278 l 744 278 l 744 104 l 619 104 l 619 -15 l 208 -15 m 189 951 l 189 1125 l 356 1125 l 356 951 l 189 951 m 479 951 l 479 1125 l 644 1125 l 644 951 l 479 951 z "},"Ė":{"ha":829,"x_min":85,"x_max":744,"o":"m 208 -15 l 208 104 l 85 104 l 85 761 l 208 761 l 208 883 l 619 883 l 619 761 l 744 761 l 744 589 l 579 589 l 579 710 l 249 710 l 249 519 l 497 519 l 497 349 l 249 349 l 249 157 l 579 157 l 579 278 l 744 278 l 744 104 l 619 104 l 619 -15 l 208 -15 m 329 957 l 329 1131 l 496 1131 l 496 957 l 329 957 z "},"È":{"ha":829,"x_min":85,"x_max":744,"o":"m 208 -15 l 208 104 l 85 104 l 85 761 l 208 761 l 208 883 l 619 883 l 619 761 l 744 761 l 744 589 l 579 589 l 579 710 l 249 710 l 249 519 l 497 519 l 497 349 l 249 349 l 249 157 l 579 157 l 579 278 l 744 278 l 744 104 l 619 104 l 619 -15 l 208 -15 m 361 957 l 361 1015 l 299 1015 l 299 1076 l 238 1076 l 238 1189 l 339 1189 l 339 1128 l 401 1128 l 401 1068 l 464 1068 l 464 957 l 361 957 z "},"Ē":{"ha":829,"x_min":85,"x_max":744,"o":"m 208 -15 l 208 104 l 85 104 l 85 761 l 208 761 l 208 883 l 619 883 l 619 761 l 744 761 l 744 589 l 579 589 l 579 710 l 249 710 l 249 519 l 497 519 l 497 349 l 249 349 l 249 157 l 579 157 l 579 278 l 744 278 l 744 104 l 619 104 l 619 -15 l 208 -15 m 206 957 l 206 1121 l 617 1121 l 617 957 l 206 957 z "},"Ę":{"ha":829,"x_min":85,"x_max":744,"o":"m 208 -15 l 208 104 l 85 104 l 85 761 l 208 761 l 208 883 l 619 883 l 619 761 l 744 761 l 744 589 l 579 589 l 579 710 l 249 710 l 249 519 l 497 519 l 497 349 l 249 349 l 249 157 l 579 157 l 579 278 l 744 278 l 744 104 l 619 104 l 619 -15 l 208 -15 m 308 -285 l 308 -224 l 247 -224 l 247 -112 l 308 -112 l 308 -71 l 329 -72 l 329 38 l 474 38 l 474 -103 l 411 -103 l 411 -132 l 390 -140 l 390 -172 l 494 -172 l 494 -112 l 596 -112 l 596 -224 l 535 -224 l 535 -285 l 308 -285 z "},"F":{"ha":829,"x_min":85,"x_max":744,"o":"m 85 -15 l 85 883 l 619 883 l 619 761 l 744 761 l 744 589 l 579 589 l 579 710 l 249 710 l 249 519 l 497 519 l 497 349 l 249 349 l 249 -15 l 85 -15 z "},"G":{"ha":829,"x_min":85,"x_max":744,"o":"m 208 -15 l 208 104 l 85 104 l 85 761 l 208 761 l 208 883 l 619 883 l 619 761 l 744 761 l 744 468 l 579 468 l 579 710 l 249 710 l 249 157 l 579 157 l 579 226 l 456 226 l 456 349 l 331 349 l 331 519 l 497 519 l 497 400 l 744 400 l 744 104 l 619 104 l 619 -15 l 208 -15 z "},"Ğ":{"ha":829,"x_min":85,"x_max":744,"o":"m 208 -15 l 208 104 l 85 104 l 85 761 l 208 761 l 208 883 l 619 883 l 619 761 l 744 761 l 744 468 l 579 468 l 579 710 l 249 710 l 249 157 l 579 157 l 579 226 l 456 226 l 456 349 l 331 349 l 331 519 l 497 519 l 497 400 l 744 400 l 744 104 l 619 104 l 619 -15 l 208 -15 m 235 957 l 235 1131 l 336 1131 l 336 1069 l 492 1069 l 492 1131 l 592 1131 l 592 957 l 235 957 z "},"Ĝ":{"ha":829,"x_min":85,"x_max":744,"o":"m 208 -15 l 208 104 l 85 104 l 85 761 l 208 761 l 208 883 l 619 883 l 619 761 l 744 761 l 744 468 l 579 468 l 579 710 l 249 710 l 249 157 l 579 157 l 579 226 l 456 226 l 456 349 l 331 349 l 331 519 l 497 519 l 497 400 l 744 400 l 744 104 l 619 104 l 619 -15 l 208 -15 m 303 957 l 303 1068 l 365 1068 l 365 1131 l 468 1131 l 468 1068 l 529 1068 l 529 957 l 426 957 l 426 1018 l 404 1018 l 404 957 l 303 957 z "},"Ģ":{"ha":829,"x_min":85,"x_max":744,"o":"m 208 -15 l 208 104 l 85 104 l 85 761 l 208 761 l 208 883 l 619 883 l 619 761 l 744 761 l 744 468 l 579 468 l 579 710 l 249 710 l 249 157 l 579 157 l 579 226 l 456 226 l 456 349 l 331 349 l 331 519 l 497 519 l 497 400 l 744 400 l 744 104 l 619 104 l 619 -15 l 208 -15 m 388 -358 l 388 -274 l 410 -272 l 410 -237 l 326 -237 l 326 -64 l 490 -64 l 490 -186 l 553 -186 l 553 -296 l 490 -296 l 490 -358 l 388 -358 z "},"Ġ":{"ha":829,"x_min":85,"x_max":744,"o":"m 208 -15 l 208 104 l 85 104 l 85 761 l 208 761 l 208 883 l 619 883 l 619 761 l 744 761 l 744 468 l 579 468 l 579 710 l 249 710 l 249 157 l 579 157 l 579 226 l 456 226 l 456 349 l 331 349 l 331 519 l 497 519 l 497 400 l 744 400 l 744 104 l 619 104 l 619 -15 l 208 -15 m 333 957 l 333 1131 l 500 1131 l 500 957 l 333 957 z "},"H":{"ha":829,"x_min":85,"x_max":744,"o":"m 85 -15 l 85 883 l 249 883 l 249 519 l 331 519 l 331 640 l 497 640 l 497 519 l 579 519 l 579 883 l 744 883 l 744 -15 l 579 -15 l 579 349 l 249 349 l 249 -15 l 85 -15 z "},"Ħ":{"ha":829,"x_min":85,"x_max":744,"o":"m 85 -15 l 85 883 l 249 883 l 249 833 l 579 833 l 579 883 l 744 883 l 744 -15 l 579 -15 l 579 349 l 249 349 l 249 -15 l 85 -15 m 249 519 l 331 519 l 331 640 l 497 640 l 497 519 l 579 519 l 579 661 l 249 661 l 249 519 z "},"Ĥ":{"ha":829,"x_min":85,"x_max":744,"o":"m 85 -15 l 85 883 l 249 883 l 249 519 l 331 519 l 331 640 l 497 640 l 497 519 l 579 519 l 579 883 l 744 883 l 744 -15 l 579 -15 l 579 349 l 249 349 l 249 -15 l 85 -15 m 303 957 l 303 1068 l 365 1068 l 365 1131 l 468 1131 l 468 1068 l 529 1068 l 529 957 l 426 957 l 426 1018 l 404 1018 l 404 957 l 303 957 z "},"I":{"ha":582,"x_min":85,"x_max":497,"o":"m 85 -15 l 85 157 l 208 157 l 208 710 l 85 710 l 85 883 l 497 883 l 497 710 l 372 710 l 372 157 l 497 157 l 497 -15 l 85 -15 z "},"Ĳ":{"ha":1411,"x_min":85,"x_max":1326,"o":"m 85 -15 l 85 157 l 208 157 l 208 710 l 85 710 l 85 883 l 497 883 l 497 710 l 372 710 l 372 157 l 497 157 l 497 -15 l 85 -15 m 790 -15 l 790 104 l 667 104 l 667 400 l 831 400 l 831 157 l 1161 157 l 1161 710 l 790 710 l 790 883 l 1201 883 l 1201 761 l 1326 761 l 1326 104 l 1201 104 l 1201 -15 l 790 -15 z "},"Í":{"ha":582,"x_min":85,"x_max":497,"o":"m 85 -15 l 85 157 l 208 157 l 208 710 l 85 710 l 85 883 l 497 883 l 497 710 l 372 710 l 372 157 l 497 157 l 497 -15 l 85 -15 m 169 957 l 169 1068 l 231 1068 l 231 1128 l 294 1128 l 294 1189 l 396 1189 l 396 1076 l 333 1076 l 333 1015 l 272 1015 l 272 957 l 169 957 z "},"Ĭ":{"ha":582,"x_min":85,"x_max":497,"o":"m 85 -15 l 85 157 l 208 157 l 208 710 l 85 710 l 85 883 l 497 883 l 497 710 l 372 710 l 372 157 l 497 157 l 497 -15 l 85 -15 m 111 957 l 111 1131 l 213 1131 l 213 1069 l 368 1069 l 368 1131 l 468 1131 l 468 957 l 111 957 z "},"Î":{"ha":582,"x_min":85,"x_max":497,"o":"m 85 -15 l 85 157 l 208 157 l 208 710 l 85 710 l 85 883 l 497 883 l 497 710 l 372 710 l 372 157 l 497 157 l 497 -15 l 85 -15 m 178 957 l 178 1068 l 240 1068 l 240 1131 l 343 1131 l 343 1068 l 404 1068 l 404 957 l 301 957 l 301 1018 l 279 1018 l 279 957 l 178 957 z "},"Ï":{"ha":582,"x_min":69,"x_max":524,"o":"m 85 -15 l 85 157 l 208 157 l 208 710 l 85 710 l 85 883 l 497 883 l 497 710 l 372 710 l 372 157 l 497 157 l 497 -15 l 85 -15 m 68 951 l 68 1125 l 235 1125 l 235 951 l 68 951 m 358 951 l 358 1125 l 524 1125 l 524 951 l 358 951 z "},"İ":{"ha":582,"x_min":85,"x_max":497,"o":"m 85 -15 l 85 157 l 208 157 l 208 710 l 85 710 l 85 883 l 497 883 l 497 710 l 372 710 l 372 157 l 497 157 l 497 -15 l 85 -15 m 208 957 l 208 1131 l 375 1131 l 375 957 l 208 957 z "},"Ì":{"ha":582,"x_min":85,"x_max":497,"o":"m 85 -15 l 85 157 l 208 157 l 208 710 l 85 710 l 85 883 l 497 883 l 497 710 l 372 710 l 372 157 l 497 157 l 497 -15 l 85 -15 m 240 957 l 240 1015 l 178 1015 l 178 1076 l 117 1076 l 117 1189 l 218 1189 l 218 1128 l 281 1128 l 281 1068 l 343 1068 l 343 957 l 240 957 z "},"Ī":{"ha":582,"x_min":85,"x_max":497,"o":"m 85 -15 l 85 157 l 208 157 l 208 710 l 85 710 l 85 883 l 497 883 l 497 710 l 372 710 l 372 157 l 497 157 l 497 -15 l 85 -15 m 85 957 l 85 1121 l 496 1121 l 496 957 l 85 957 z "},"Į":{"ha":582,"x_min":85,"x_max":497,"o":"m 85 -15 l 85 157 l 208 157 l 208 710 l 85 710 l 85 883 l 497 883 l 497 710 l 372 710 l 372 157 l 497 157 l 497 -15 l 85 -15 m 192 -285 l 192 -224 l 131 -224 l 131 -112 l 192 -112 l 192 -71 l 213 -72 l 213 38 l 357 38 l 357 -103 l 294 -103 l 294 -132 l 274 -140 l 274 -172 l 378 -172 l 378 -112 l 479 -112 l 479 -224 l 418 -224 l 418 -285 l 192 -285 z "},"Ĩ":{"ha":582,"x_min":85,"x_max":497,"o":"m 85 -15 l 85 157 l 208 157 l 208 710 l 85 710 l 85 883 l 497 883 l 497 710 l 372 710 l 372 157 l 497 157 l 497 -15 l 85 -15 m 103 957 l 103 1133 l 338 1133 l 338 1072 l 361 1072 l 361 1133 l 467 1133 l 467 957 l 231 957 l 231 1019 l 207 1019 l 207 957 l 103 957 z "},"J":{"ha":829,"x_min":85,"x_max":744,"o":"m 208 -15 l 208 104 l 85 104 l 85 400 l 249 400 l 249 157 l 579 157 l 579 710 l 208 710 l 208 883 l 619 883 l 619 761 l 744 761 l 744 104 l 619 104 l 619 -15 l 208 -15 z "},"Ĵ":{"ha":829,"x_min":85,"x_max":744,"o":"m 208 -15 l 208 104 l 85 104 l 85 400 l 249 400 l 249 157 l 579 157 l 579 710 l 208 710 l 208 883 l 619 883 l 619 761 l 744 761 l 744 104 l 619 104 l 619 -15 l 208 -15 m 303 957 l 303 1068 l 365 1068 l 365 1131 l 468 1131 l 468 1068 l 529 1068 l 529 957 l 426 957 l 426 1018 l 404 1018 l 404 957 l 303 957 z "},"K":{"ha":829,"x_min":85,"x_max":744,"o":"m 85 -15 l 85 761 l 208 761 l 208 883 l 372 883 l 372 710 l 249 710 l 249 519 l 331 519 l 331 640 l 457 640 l 457 761 l 579 761 l 579 883 l 744 883 l 744 710 l 619 710 l 619 589 l 497 589 l 497 468 l 372 468 l 372 400 l 497 400 l 497 278 l 619 278 l 619 157 l 744 157 l 744 -15 l 579 -15 l 579 104 l 457 104 l 457 226 l 331 226 l 331 349 l 249 349 l 249 -15 l 85 -15 z "},"Ķ":{"ha":829,"x_min":85,"x_max":744,"o":"m 85 -15 l 85 761 l 208 761 l 208 883 l 372 883 l 372 710 l 249 710 l 249 519 l 331 519 l 331 640 l 457 640 l 457 761 l 579 761 l 579 883 l 744 883 l 744 710 l 619 710 l 619 589 l 497 589 l 497 468 l 372 468 l 372 400 l 497 400 l 497 278 l 619 278 l 619 157 l 744 157 l 744 -15 l 579 -15 l 579 104 l 457 104 l 457 226 l 331 226 l 331 349 l 249 349 l 249 -15 l 85 -15 m 388 -358 l 388 -274 l 410 -272 l 410 -237 l 326 -237 l 326 -64 l 490 -64 l 490 -186 l 553 -186 l 553 -296 l 490 -296 l 490 -358 l 388 -358 z "},"L":{"ha":829,"x_min":85,"x_max":744,"o":"m 208 -15 l 208 104 l 85 104 l 85 883 l 249 883 l 249 157 l 579 157 l 579 278 l 744 278 l 744 104 l 619 104 l 619 -15 l 208 -15 z "},"Ĺ":{"ha":829,"x_min":85,"x_max":744,"o":"m 208 -15 l 208 104 l 85 104 l 85 883 l 249 883 l 249 157 l 579 157 l 579 278 l 744 278 l 744 104 l 619 104 l 619 -15 l 208 -15 m 294 1015 l 294 1126 l 356 1126 l 356 1186 l 419 1186 l 419 1247 l 521 1247 l 521 1135 l 458 1135 l 458 1074 l 397 1074 l 397 1015 l 294 1015 z "},"Ľ":{"ha":829,"x_min":85,"x_max":744,"o":"m 208 -15 l 208 104 l 85 104 l 85 883 l 249 883 l 249 157 l 579 157 l 579 278 l 744 278 l 744 104 l 619 104 l 619 -15 l 208 -15 m 553 589 l 553 674 l 575 667 l 575 710 l 492 710 l 492 883 l 656 883 l 656 761 l 718 761 l 718 650 l 656 650 l 656 589 l 553 589 z "},"Ļ":{"ha":829,"x_min":85,"x_max":744,"o":"m 208 -15 l 208 104 l 85 104 l 85 883 l 249 883 l 249 157 l 579 157 l 579 278 l 744 278 l 744 104 l 619 104 l 619 -15 l 208 -15 m 388 -358 l 388 -274 l 410 -272 l 410 -237 l 326 -237 l 326 -64 l 490 -64 l 490 -186 l 553 -186 l 553 -296 l 490 -296 l 490 -358 l 388 -358 z "},"Ŀ":{"ha":829,"x_min":85,"x_max":744,"o":"m 208 -15 l 208 104 l 85 104 l 85 883 l 249 883 l 249 157 l 579 157 l 579 278 l 744 278 l 744 104 l 619 104 l 619 -15 l 208 -15 m 333 549 l 333 722 l 497 722 l 497 549 l 333 549 z "},"Ł":{"ha":839,"x_min":-33,"x_max":756,"o":"m 218 -15 l 218 104 l 94 104 l 94 235 l 67 199 l -33 275 l 94 439 l 94 883 l 258 883 l 258 654 l 329 744 l 429 672 l 258 450 l 258 157 l 589 157 l 589 278 l 756 278 l 756 104 l 631 104 l 631 -15 l 218 -15 z "},"M":{"ha":1076,"x_min":85,"x_max":992,"o":"m 85 -15 l 85 761 l 208 761 l 208 883 l 372 883 l 372 761 l 497 761 l 497 519 l 579 519 l 579 761 l 704 761 l 704 883 l 869 883 l 869 761 l 992 761 l 992 -15 l 829 -15 l 829 710 l 744 710 l 744 468 l 619 468 l 619 104 l 456 104 l 456 468 l 331 468 l 331 710 l 249 710 l 249 -15 l 85 -15 z "},"N":{"ha":829,"x_min":85,"x_max":744,"o":"m 85 -15 l 85 883 l 249 883 l 249 761 l 371 761 l 371 640 l 497 640 l 497 278 l 579 278 l 579 883 l 744 883 l 744 -15 l 579 -15 l 579 104 l 457 104 l 457 226 l 331 226 l 331 589 l 249 589 l 249 -15 l 85 -15 z "},"Ń":{"ha":829,"x_min":85,"x_max":744,"o":"m 85 -15 l 85 883 l 249 883 l 249 761 l 371 761 l 371 640 l 497 640 l 497 278 l 579 278 l 579 883 l 744 883 l 744 -15 l 579 -15 l 579 104 l 457 104 l 457 226 l 331 226 l 331 589 l 249 589 l 249 -15 l 85 -15 m 294 957 l 294 1068 l 356 1068 l 356 1128 l 419 1128 l 419 1189 l 521 1189 l 521 1076 l 458 1076 l 458 1015 l 397 1015 l 397 957 l 294 957 z "},"Ň":{"ha":829,"x_min":85,"x_max":744,"o":"m 85 -15 l 85 883 l 249 883 l 249 761 l 371 761 l 371 640 l 497 640 l 497 278 l 579 278 l 579 883 l 744 883 l 744 -15 l 579 -15 l 579 104 l 457 104 l 457 226 l 331 226 l 331 589 l 249 589 l 249 -15 l 85 -15 m 365 957 l 365 1018 l 303 1018 l 303 1131 l 404 1131 l 404 1069 l 426 1069 l 426 1131 l 529 1131 l 529 1018 l 468 1018 l 468 957 l 365 957 z "},"Ņ":{"ha":829,"x_min":85,"x_max":744,"o":"m 85 -15 l 85 883 l 249 883 l 249 761 l 371 761 l 371 640 l 497 640 l 497 278 l 579 278 l 579 883 l 744 883 l 744 -15 l 579 -15 l 579 104 l 457 104 l 457 226 l 331 226 l 331 589 l 249 589 l 249 -15 l 85 -15 m 388 -358 l 388 -274 l 410 -272 l 410 -237 l 326 -237 l 326 -64 l 490 -64 l 490 -186 l 553 -186 l 553 -296 l 490 -296 l 490 -358 l 388 -358 z "},"Ñ":{"ha":829,"x_min":85,"x_max":744,"o":"m 85 -15 l 85 883 l 249 883 l 249 761 l 371 761 l 371 640 l 497 640 l 497 278 l 579 278 l 579 883 l 744 883 l 744 -15 l 579 -15 l 579 104 l 457 104 l 457 226 l 331 226 l 331 589 l 249 589 l 249 -15 l 85 -15 m 228 957 l 228 1133 l 463 1133 l 463 1072 l 486 1072 l 486 1133 l 592 1133 l 592 957 l 356 957 l 356 1019 l 332 1019 l 332 957 l 228 957 z "},"Ŋ":{"ha":829,"x_min":85,"x_max":744,"o":"m 331 -332 l 331 -210 l 207 -210 l 207 -44 l 372 -44 l 372 -158 l 579 -158 l 579 104 l 457 104 l 457 226 l 331 226 l 331 589 l 249 589 l 249 -15 l 85 -15 l 85 883 l 249 883 l 249 761 l 371 761 l 371 640 l 497 640 l 497 278 l 579 278 l 579 883 l 744 883 l 744 -210 l 619 -210 l 619 -332 l 331 -332 z "},"O":{"ha":829,"x_min":85,"x_max":744,"o":"m 208 -15 l 208 104 l 85 104 l 85 761 l 208 761 l 208 883 l 619 883 l 619 761 l 744 761 l 744 104 l 619 104 l 619 -15 l 208 -15 m 249 157 l 579 157 l 579 710 l 249 710 l 249 157 z "},"Ó":{"ha":829,"x_min":85,"x_max":744,"o":"m 208 -15 l 208 104 l 85 104 l 85 761 l 208 761 l 208 883 l 619 883 l 619 761 l 744 761 l 744 104 l 619 104 l 619 -15 l 208 -15 m 249 157 l 579 157 l 579 710 l 249 710 l 249 157 m 294 957 l 294 1068 l 356 1068 l 356 1128 l 419 1128 l 419 1189 l 521 1189 l 521 1076 l 458 1076 l 458 1015 l 397 1015 l 397 957 l 294 957 z "},"Ŏ":{"ha":829,"x_min":85,"x_max":744,"o":"m 208 -15 l 208 104 l 85 104 l 85 761 l 208 761 l 208 883 l 619 883 l 619 761 l 744 761 l 744 104 l 619 104 l 619 -15 l 208 -15 m 249 157 l 579 157 l 579 710 l 249 710 l 249 157 m 235 957 l 235 1131 l 336 1131 l 336 1069 l 492 1069 l 492 1131 l 592 1131 l 592 957 l 235 957 z "},"Ô":{"ha":829,"x_min":85,"x_max":744,"o":"m 208 -15 l 208 104 l 85 104 l 85 761 l 208 761 l 208 883 l 619 883 l 619 761 l 744 761 l 744 104 l 619 104 l 619 -15 l 208 -15 m 249 157 l 579 157 l 579 710 l 249 710 l 249 157 m 303 957 l 303 1068 l 365 1068 l 365 1131 l 468 1131 l 468 1068 l 529 1068 l 529 957 l 426 957 l 426 1018 l 404 1018 l 404 957 l 303 957 z "},"Ö":{"ha":829,"x_min":85,"x_max":744,"o":"m 208 -15 l 208 104 l 85 104 l 85 761 l 208 761 l 208 883 l 619 883 l 619 761 l 744 761 l 744 104 l 619 104 l 619 -15 l 208 -15 m 249 157 l 579 157 l 579 710 l 249 710 l 249 157 m 193 951 l 193 1125 l 360 1125 l 360 951 l 193 951 m 483 951 l 483 1125 l 649 1125 l 649 951 l 483 951 z "},"Ò":{"ha":829,"x_min":85,"x_max":744,"o":"m 208 -15 l 208 104 l 85 104 l 85 761 l 208 761 l 208 883 l 619 883 l 619 761 l 744 761 l 744 104 l 619 104 l 619 -15 l 208 -15 m 249 157 l 579 157 l 579 710 l 249 710 l 249 157 m 365 957 l 365 1015 l 303 1015 l 303 1076 l 242 1076 l 242 1189 l 343 1189 l 343 1128 l 406 1128 l 406 1068 l 468 1068 l 468 957 l 365 957 z "},"Ő":{"ha":829,"x_min":85,"x_max":744,"o":"m 208 -15 l 208 104 l 85 104 l 85 761 l 208 761 l 208 883 l 619 883 l 619 761 l 744 761 l 744 104 l 619 104 l 619 -15 l 208 -15 m 249 157 l 579 157 l 579 710 l 249 710 l 249 157 m 508 957 l 508 1015 l 447 1015 l 447 1076 l 385 1076 l 385 1189 l 486 1189 l 486 1128 l 550 1128 l 550 1068 l 611 1068 l 611 957 l 508 957 m 282 957 l 282 1015 l 219 1015 l 219 1076 l 158 1076 l 158 1189 l 260 1189 l 260 1128 l 322 1128 l 322 1068 l 383 1068 l 383 957 l 282 957 z "},"Ō":{"ha":829,"x_min":85,"x_max":744,"o":"m 208 -15 l 208 104 l 85 104 l 85 761 l 208 761 l 208 883 l 619 883 l 619 761 l 744 761 l 744 104 l 619 104 l 619 -15 l 208 -15 m 249 157 l 579 157 l 579 710 l 249 710 l 249 157 m 210 957 l 210 1121 l 621 1121 l 621 957 l 210 957 z "},"Ø":{"ha":847,"x_min":56,"x_max":776,"o":"m 56 -72 l 611 931 l 776 931 l 221 -72 l 56 -72 m 215 -15 l 215 104 l 92 104 l 92 761 l 215 761 l 215 883 l 628 883 l 628 761 l 753 761 l 753 104 l 628 104 l 628 -15 l 215 -15 m 257 157 l 588 157 l 588 710 l 257 710 l 257 157 z "},"Ǿ":{"ha":847,"x_min":56,"x_max":776,"o":"m 56 -72 l 611 931 l 776 931 l 221 -72 l 56 -72 m 215 -15 l 215 104 l 92 104 l 92 761 l 215 761 l 215 883 l 628 883 l 628 761 l 753 761 l 753 104 l 628 104 l 628 -15 l 215 -15 m 257 157 l 588 157 l 588 710 l 257 710 l 257 157 m 303 1047 l 303 1158 l 364 1158 l 364 1218 l 428 1218 l 428 1279 l 529 1279 l 529 1167 l 467 1167 l 467 1106 l 406 1106 l 406 1047 l 303 1047 z "},"Õ":{"ha":829,"x_min":85,"x_max":744,"o":"m 208 -15 l 208 104 l 85 104 l 85 761 l 208 761 l 208 883 l 619 883 l 619 761 l 744 761 l 744 104 l 619 104 l 619 -15 l 208 -15 m 249 157 l 579 157 l 579 710 l 249 710 l 249 157 m 228 957 l 228 1133 l 463 1133 l 463 1072 l 486 1072 l 486 1133 l 592 1133 l 592 957 l 356 957 l 356 1019 l 332 1019 l 332 957 l 228 957 z "},"Œ":{"ha":1325,"x_min":85,"x_max":1240,"o":"m 208 -15 l 208 104 l 85 104 l 85 761 l 208 761 l 208 883 l 619 883 l 619 761 l 704 761 l 704 883 l 1117 883 l 1117 761 l 1240 761 l 1240 589 l 1075 589 l 1075 710 l 744 710 l 744 519 l 992 519 l 992 349 l 744 349 l 744 157 l 1075 157 l 1075 278 l 1240 278 l 1240 104 l 1117 104 l 1117 -15 l 704 -15 l 704 104 l 619 104 l 619 -15 l 208 -15 m 249 157 l 579 157 l 579 710 l 249 710 l 249 157 z "},"P":{"ha":829,"x_min":85,"x_max":744,"o":"m 85 -15 l 85 761 l 208 761 l 208 883 l 619 883 l 619 761 l 744 761 l 744 349 l 619 349 l 619 226 l 249 226 l 249 -15 l 85 -15 m 249 400 l 579 400 l 579 710 l 249 710 l 249 400 z "},"Þ":{"ha":829,"x_min":85,"x_max":744,"o":"m 85 -15 l 85 883 l 249 883 l 249 747 l 619 747 l 619 625 l 744 625 l 744 211 l 619 211 l 619 90 l 249 90 l 249 -15 l 85 -15 m 249 263 l 579 263 l 579 574 l 249 574 l 249 263 z "},"Q":{"ha":829,"x_min":85,"x_max":744,"o":"m 456 -257 l 456 -137 l 331 -137 l 331 -15 l 208 -15 l 208 104 l 85 104 l 85 761 l 208 761 l 208 883 l 619 883 l 619 761 l 744 761 l 744 104 l 619 104 l 619 -15 l 497 -15 l 497 -86 l 619 -86 l 619 -257 l 456 -257 m 249 157 l 579 157 l 579 710 l 249 710 l 249 157 z "},"R":{"ha":829,"x_min":85,"x_max":744,"o":"m 85 -15 l 85 761 l 208 761 l 208 883 l 619 883 l 619 761 l 744 761 l 744 349 l 619 349 l 619 226 l 560 226 l 560 157 l 682 157 l 682 -15 l 519 -15 l 519 104 l 393 104 l 393 226 l 249 226 l 249 -15 l 85 -15 m 249 400 l 579 400 l 579 710 l 249 710 l 249 400 z "},"Ŕ":{"ha":829,"x_min":85,"x_max":744,"o":"m 85 -15 l 85 761 l 208 761 l 208 883 l 619 883 l 619 761 l 744 761 l 744 349 l 619 349 l 619 226 l 560 226 l 560 157 l 682 157 l 682 -15 l 519 -15 l 519 104 l 393 104 l 393 226 l 249 226 l 249 -15 l 85 -15 m 249 400 l 579 400 l 579 710 l 249 710 l 249 400 m 294 957 l 294 1068 l 356 1068 l 356 1128 l 419 1128 l 419 1189 l 521 1189 l 521 1076 l 458 1076 l 458 1015 l 397 1015 l 397 957 l 294 957 z "},"Ř":{"ha":829,"x_min":85,"x_max":744,"o":"m 85 -15 l 85 761 l 208 761 l 208 883 l 619 883 l 619 761 l 744 761 l 744 349 l 619 349 l 619 226 l 560 226 l 560 157 l 682 157 l 682 -15 l 519 -15 l 519 104 l 393 104 l 393 226 l 249 226 l 249 -15 l 85 -15 m 249 400 l 579 400 l 579 710 l 249 710 l 249 400 m 365 957 l 365 1018 l 303 1018 l 303 1131 l 404 1131 l 404 1069 l 426 1069 l 426 1131 l 529 1131 l 529 1018 l 468 1018 l 468 957 l 365 957 z "},"Ŗ":{"ha":829,"x_min":85,"x_max":744,"o":"m 85 -15 l 85 761 l 208 761 l 208 883 l 619 883 l 619 761 l 744 761 l 744 349 l 619 349 l 619 226 l 560 226 l 560 157 l 682 157 l 682 -15 l 519 -15 l 519 104 l 393 104 l 393 226 l 249 226 l 249 -15 l 85 -15 m 249 400 l 579 400 l 579 710 l 249 710 l 249 400 m 388 -358 l 388 -274 l 410 -272 l 410 -237 l 326 -237 l 326 -64 l 490 -64 l 490 -186 l 553 -186 l 553 -296 l 490 -296 l 490 -358 l 388 -358 z "},"S":{"ha":829,"x_min":85,"x_max":744,"o":"m 208 -15 l 208 104 l 85 104 l 85 278 l 249 278 l 249 157 l 579 157 l 579 349 l 208 349 l 208 468 l 85 468 l 85 761 l 208 761 l 208 883 l 619 883 l 619 761 l 744 761 l 744 589 l 579 589 l 579 710 l 249 710 l 249 519 l 619 519 l 619 400 l 744 400 l 744 104 l 619 104 l 619 -15 l 208 -15 z "},"Ś":{"ha":829,"x_min":85,"x_max":744,"o":"m 208 -15 l 208 104 l 85 104 l 85 278 l 249 278 l 249 157 l 579 157 l 579 349 l 208 349 l 208 468 l 85 468 l 85 761 l 208 761 l 208 883 l 619 883 l 619 761 l 744 761 l 744 589 l 579 589 l 579 710 l 249 710 l 249 519 l 619 519 l 619 400 l 744 400 l 744 104 l 619 104 l 619 -15 l 208 -15 m 294 957 l 294 1068 l 356 1068 l 356 1128 l 419 1128 l 419 1189 l 521 1189 l 521 1076 l 458 1076 l 458 1015 l 397 1015 l 397 957 l 294 957 z "},"Š":{"ha":829,"x_min":85,"x_max":744,"o":"m 208 -15 l 208 104 l 85 104 l 85 278 l 249 278 l 249 157 l 579 157 l 579 349 l 208 349 l 208 468 l 85 468 l 85 761 l 208 761 l 208 883 l 619 883 l 619 761 l 744 761 l 744 589 l 579 589 l 579 710 l 249 710 l 249 519 l 619 519 l 619 400 l 744 400 l 744 104 l 619 104 l 619 -15 l 208 -15 m 365 957 l 365 1018 l 303 1018 l 303 1131 l 404 1131 l 404 1069 l 426 1069 l 426 1131 l 529 1131 l 529 1018 l 468 1018 l 468 957 l 365 957 z "},"Ş":{"ha":829,"x_min":85,"x_max":744,"o":"m 208 -15 l 208 104 l 85 104 l 85 278 l 249 278 l 249 157 l 579 157 l 579 349 l 208 349 l 208 468 l 85 468 l 85 761 l 208 761 l 208 883 l 619 883 l 619 761 l 744 761 l 744 589 l 579 589 l 579 710 l 249 710 l 249 519 l 619 519 l 619 400 l 744 400 l 744 104 l 619 104 l 619 -15 l 208 -15 m 282 -268 l 282 -207 l 221 -207 l 221 -96 l 324 -96 l 324 -156 l 426 -156 l 426 -126 l 406 -124 l 406 -86 l 344 -86 l 344 36 l 488 36 l 488 -75 l 549 -75 l 549 -129 l 569 -147 l 569 -207 l 508 -207 l 508 -268 l 282 -268 z "},"Ŝ":{"ha":829,"x_min":85,"x_max":744,"o":"m 208 -15 l 208 104 l 85 104 l 85 278 l 249 278 l 249 157 l 579 157 l 579 349 l 208 349 l 208 468 l 85 468 l 85 761 l 208 761 l 208 883 l 619 883 l 619 761 l 744 761 l 744 589 l 579 589 l 579 710 l 249 710 l 249 519 l 619 519 l 619 400 l 744 400 l 744 104 l 619 104 l 619 -15 l 208 -15 m 303 957 l 303 1068 l 365 1068 l 365 1131 l 468 1131 l 468 1068 l 529 1068 l 529 957 l 426 957 l 426 1018 l 404 1018 l 404 957 l 303 957 z "},"Ș":{"ha":829,"x_min":85,"x_max":744,"o":"m 208 -15 l 208 104 l 85 104 l 85 278 l 249 278 l 249 157 l 579 157 l 579 349 l 208 349 l 208 468 l 85 468 l 85 761 l 208 761 l 208 883 l 619 883 l 619 761 l 744 761 l 744 589 l 579 589 l 579 710 l 249 710 l 249 519 l 619 519 l 619 400 l 744 400 l 744 104 l 619 104 l 619 -15 l 208 -15 m 388 -358 l 388 -274 l 410 -272 l 410 -237 l 326 -237 l 326 -64 l 490 -64 l 490 -186 l 553 -186 l 553 -296 l 490 -296 l 490 -358 l 388 -358 z "},"ẞ":{"ha":928,"x_min":85,"x_max":842,"o":"m 306 -15 l 306 157 l 676 157 l 676 349 l 444 349 l 444 519 l 676 519 l 676 710 l 167 710 l 167 883 l 717 883 l 717 761 l 842 761 l 842 468 l 717 468 l 717 400 l 842 400 l 842 104 l 717 104 l 717 -15 l 306 -15 m 85 -15 l 85 883 l 249 883 l 249 -15 l 85 -15 z "},"T":{"ha":829,"x_min":85,"x_max":744,"o":"m 331 -15 l 331 710 l 249 710 l 249 589 l 85 589 l 85 761 l 208 761 l 208 883 l 619 883 l 619 761 l 744 761 l 744 589 l 579 589 l 579 710 l 497 710 l 497 -15 l 331 -15 z "},"Ŧ":{"ha":851,"x_min":83,"x_max":750,"o":"m 333 -17 l 333 357 l 208 357 l 208 517 l 333 517 l 333 721 l 250 721 l 250 599 l 83 599 l 83 757 l 208 757 l 208 881 l 624 881 l 624 757 l 750 757 l 750 599 l 583 599 l 583 721 l 500 721 l 500 517 l 624 517 l 624 357 l 500 357 l 500 -17 l 333 -17 z "},"Ť":{"ha":829,"x_min":85,"x_max":744,"o":"m 331 -15 l 331 710 l 249 710 l 249 589 l 85 589 l 85 761 l 208 761 l 208 883 l 619 883 l 619 761 l 744 761 l 744 589 l 579 589 l 579 710 l 497 710 l 497 -15 l 331 -15 m 365 957 l 365 1018 l 303 1018 l 303 1131 l 404 1131 l 404 1069 l 426 1069 l 426 1131 l 529 1131 l 529 1018 l 468 1018 l 468 957 l 365 957 z "},"Ţ":{"ha":829,"x_min":85,"x_max":744,"o":"m 331 -15 l 331 710 l 249 710 l 249 589 l 85 589 l 85 761 l 208 761 l 208 883 l 619 883 l 619 761 l 744 761 l 744 589 l 579 589 l 579 710 l 497 710 l 497 -15 l 331 -15 m 282 -268 l 282 -207 l 221 -207 l 221 -96 l 324 -96 l 324 -156 l 426 -156 l 426 -126 l 406 -124 l 406 -86 l 344 -86 l 344 36 l 488 36 l 488 -75 l 549 -75 l 549 -129 l 569 -147 l 569 -207 l 508 -207 l 508 -268 l 282 -268 z "},"Ț":{"ha":829,"x_min":85,"x_max":744,"o":"m 331 -15 l 331 710 l 249 710 l 249 589 l 85 589 l 85 761 l 208 761 l 208 883 l 619 883 l 619 761 l 744 761 l 744 589 l 579 589 l 579 710 l 497 710 l 497 -15 l 331 -15 m 388 -358 l 388 -274 l 410 -272 l 410 -237 l 326 -237 l 326 -64 l 490 -64 l 490 -186 l 553 -186 l 553 -296 l 490 -296 l 490 -358 l 388 -358 z "},"U":{"ha":829,"x_min":85,"x_max":744,"o":"m 208 -15 l 208 104 l 85 104 l 85 883 l 249 883 l 249 157 l 579 157 l 579 883 l 744 883 l 744 104 l 619 104 l 619 -15 l 208 -15 z "},"Ú":{"ha":829,"x_min":85,"x_max":744,"o":"m 208 -15 l 208 104 l 85 104 l 85 883 l 249 883 l 249 157 l 579 157 l 579 883 l 744 883 l 744 104 l 619 104 l 619 -15 l 208 -15 m 294 957 l 294 1068 l 356 1068 l 356 1128 l 419 1128 l 419 1189 l 521 1189 l 521 1076 l 458 1076 l 458 1015 l 397 1015 l 397 957 l 294 957 z "},"Ŭ":{"ha":829,"x_min":85,"x_max":744,"o":"m 208 -15 l 208 104 l 85 104 l 85 883 l 249 883 l 249 157 l 579 157 l 579 883 l 744 883 l 744 104 l 619 104 l 619 -15 l 208 -15 m 235 957 l 235 1131 l 336 1131 l 336 1069 l 492 1069 l 492 1131 l 592 1131 l 592 957 l 235 957 z "},"Û":{"ha":829,"x_min":85,"x_max":744,"o":"m 208 -15 l 208 104 l 85 104 l 85 883 l 249 883 l 249 157 l 579 157 l 579 883 l 744 883 l 744 104 l 619 104 l 619 -15 l 208 -15 m 303 957 l 303 1068 l 365 1068 l 365 1131 l 468 1131 l 468 1068 l 529 1068 l 529 957 l 426 957 l 426 1018 l 404 1018 l 404 957 l 303 957 z "},"Ü":{"ha":829,"x_min":85,"x_max":744,"o":"m 208 -15 l 208 104 l 85 104 l 85 883 l 249 883 l 249 157 l 579 157 l 579 883 l 744 883 l 744 104 l 619 104 l 619 -15 l 208 -15 m 193 951 l 193 1125 l 360 1125 l 360 951 l 193 951 m 483 951 l 483 1125 l 649 1125 l 649 951 l 483 951 z "},"Ù":{"ha":829,"x_min":85,"x_max":744,"o":"m 208 -15 l 208 104 l 85 104 l 85 883 l 249 883 l 249 157 l 579 157 l 579 883 l 744 883 l 744 104 l 619 104 l 619 -15 l 208 -15 m 365 957 l 365 1015 l 303 1015 l 303 1076 l 242 1076 l 242 1189 l 343 1189 l 343 1128 l 406 1128 l 406 1068 l 468 1068 l 468 957 l 365 957 z "},"Ű":{"ha":829,"x_min":85,"x_max":744,"o":"m 208 -15 l 208 104 l 85 104 l 85 883 l 249 883 l 249 157 l 579 157 l 579 883 l 744 883 l 744 104 l 619 104 l 619 -15 l 208 -15 m 508 957 l 508 1015 l 447 1015 l 447 1076 l 385 1076 l 385 1189 l 486 1189 l 486 1128 l 550 1128 l 550 1068 l 611 1068 l 611 957 l 508 957 m 282 957 l 282 1015 l 219 1015 l 219 1076 l 158 1076 l 158 1189 l 260 1189 l 260 1128 l 322 1128 l 322 1068 l 383 1068 l 383 957 l 282 957 z "},"Ū":{"ha":829,"x_min":85,"x_max":744,"o":"m 208 -15 l 208 104 l 85 104 l 85 883 l 249 883 l 249 157 l 579 157 l 579 883 l 744 883 l 744 104 l 619 104 l 619 -15 l 208 -15 m 210 957 l 210 1121 l 621 1121 l 621 957 l 210 957 z "},"Ų":{"ha":829,"x_min":85,"x_max":744,"o":"m 208 -15 l 208 104 l 85 104 l 85 883 l 249 883 l 249 157 l 579 157 l 579 883 l 744 883 l 744 104 l 619 104 l 619 -15 l 208 -15 m 313 -283 l 313 -222 l 251 -222 l 251 -111 l 313 -111 l 313 -69 l 333 -71 l 333 39 l 478 39 l 478 -101 l 415 -101 l 415 -131 l 394 -139 l 394 -171 l 499 -171 l 499 -111 l 600 -111 l 600 -222 l 539 -222 l 539 -283 l 313 -283 z "},"Ů":{"ha":829,"x_min":85,"x_max":744,"o":"m 208 -15 l 208 104 l 85 104 l 85 883 l 249 883 l 249 157 l 579 157 l 579 883 l 744 883 l 744 104 l 619 104 l 619 -15 l 208 -15 m 333 957 l 333 1131 l 496 1131 l 496 957 l 333 957 m 379 1003 l 450 1003 l 450 1085 l 379 1085 l 379 1003 z "},"Ũ":{"ha":829,"x_min":85,"x_max":744,"o":"m 208 -15 l 208 104 l 85 104 l 85 883 l 249 883 l 249 157 l 579 157 l 579 883 l 744 883 l 744 104 l 619 104 l 619 -15 l 208 -15 m 228 957 l 228 1133 l 463 1133 l 463 1072 l 486 1072 l 486 1133 l 592 1133 l 592 957 l 356 957 l 356 1019 l 332 1019 l 332 957 l 228 957 z "},"V":{"ha":829,"x_min":85,"x_max":744,"o":"m 331 -15 l 331 104 l 208 104 l 208 349 l 85 349 l 85 883 l 249 883 l 249 400 l 372 400 l 372 157 l 456 157 l 456 400 l 579 400 l 579 883 l 744 883 l 744 349 l 619 349 l 619 104 l 497 104 l 497 -15 l 331 -15 z "},"W":{"ha":1076,"x_min":85,"x_max":992,"o":"m 208 -15 l 208 104 l 85 104 l 85 883 l 249 883 l 249 157 l 331 157 l 331 400 l 456 400 l 456 761 l 619 761 l 619 400 l 744 400 l 744 157 l 829 157 l 829 883 l 992 883 l 992 104 l 869 104 l 869 -15 l 704 -15 l 704 104 l 579 104 l 579 349 l 497 349 l 497 104 l 372 104 l 372 -15 l 208 -15 z "},"Ẃ":{"ha":1076,"x_min":85,"x_max":992,"o":"m 208 -15 l 208 104 l 85 104 l 85 883 l 249 883 l 249 157 l 331 157 l 331 400 l 456 400 l 456 761 l 619 761 l 619 400 l 744 400 l 744 157 l 829 157 l 829 883 l 992 883 l 992 104 l 869 104 l 869 -15 l 704 -15 l 704 104 l 579 104 l 579 349 l 497 349 l 497 104 l 372 104 l 372 -15 l 208 -15 m 418 957 l 418 1068 l 479 1068 l 479 1128 l 543 1128 l 543 1189 l 644 1189 l 644 1076 l 582 1076 l 582 1015 l 521 1015 l 521 957 l 418 957 z "},"Ŵ":{"ha":1076,"x_min":85,"x_max":992,"o":"m 208 -15 l 208 104 l 85 104 l 85 883 l 249 883 l 249 157 l 331 157 l 331 400 l 456 400 l 456 761 l 619 761 l 619 400 l 744 400 l 744 157 l 829 157 l 829 883 l 992 883 l 992 104 l 869 104 l 869 -15 l 704 -15 l 704 104 l 579 104 l 579 349 l 497 349 l 497 104 l 372 104 l 372 -15 l 208 -15 m 426 957 l 426 1068 l 489 1068 l 489 1131 l 592 1131 l 592 1068 l 653 1068 l 653 957 l 550 957 l 550 1018 l 528 1018 l 528 957 l 426 957 z "},"Ẅ":{"ha":1076,"x_min":85,"x_max":992,"o":"m 208 -15 l 208 104 l 85 104 l 85 883 l 249 883 l 249 157 l 331 157 l 331 400 l 456 400 l 456 761 l 619 761 l 619 400 l 744 400 l 744 157 l 829 157 l 829 883 l 992 883 l 992 104 l 869 104 l 869 -15 l 704 -15 l 704 104 l 579 104 l 579 349 l 497 349 l 497 104 l 372 104 l 372 -15 l 208 -15 m 317 951 l 317 1125 l 483 1125 l 483 951 l 317 951 m 607 951 l 607 1125 l 772 1125 l 772 951 l 607 951 z "},"Ẁ":{"ha":1076,"x_min":85,"x_max":992,"o":"m 208 -15 l 208 104 l 85 104 l 85 883 l 249 883 l 249 157 l 331 157 l 331 400 l 456 400 l 456 761 l 619 761 l 619 400 l 744 400 l 744 157 l 829 157 l 829 883 l 992 883 l 992 104 l 869 104 l 869 -15 l 704 -15 l 704 104 l 579 104 l 579 349 l 497 349 l 497 104 l 372 104 l 372 -15 l 208 -15 m 489 957 l 489 1015 l 426 1015 l 426 1076 l 365 1076 l 365 1189 l 467 1189 l 467 1128 l 529 1128 l 529 1068 l 592 1068 l 592 957 l 489 957 z "},"X":{"ha":829,"x_min":85,"x_max":744,"o":"m 85 -15 l 85 157 l 208 157 l 208 400 l 331 400 l 331 468 l 208 468 l 208 710 l 85 710 l 85 883 l 249 883 l 249 761 l 372 761 l 372 519 l 456 519 l 456 761 l 579 761 l 579 883 l 744 883 l 744 710 l 619 710 l 619 468 l 497 468 l 497 400 l 619 400 l 619 157 l 744 157 l 744 -15 l 579 -15 l 579 104 l 456 104 l 456 349 l 372 349 l 372 104 l 249 104 l 249 -15 l 85 -15 z "},"Y":{"ha":829,"x_min":85,"x_max":744,"o":"m 331 -15 l 331 468 l 208 468 l 208 589 l 85 589 l 85 883 l 249 883 l 249 640 l 372 640 l 372 519 l 456 519 l 456 640 l 579 640 l 579 883 l 744 883 l 744 589 l 619 589 l 619 468 l 497 468 l 497 -15 l 331 -15 z "},"Ý":{"ha":829,"x_min":85,"x_max":744,"o":"m 331 -15 l 331 468 l 208 468 l 208 589 l 85 589 l 85 883 l 249 883 l 249 640 l 372 640 l 372 519 l 456 519 l 456 640 l 579 640 l 579 883 l 744 883 l 744 589 l 619 589 l 619 468 l 497 468 l 497 -15 l 331 -15 m 294 957 l 294 1068 l 356 1068 l 356 1128 l 419 1128 l 419 1189 l 521 1189 l 521 1076 l 458 1076 l 458 1015 l 397 1015 l 397 957 l 294 957 z "},"Ŷ":{"ha":829,"x_min":85,"x_max":744,"o":"m 331 -15 l 331 468 l 208 468 l 208 589 l 85 589 l 85 883 l 249 883 l 249 640 l 372 640 l 372 519 l 456 519 l 456 640 l 579 640 l 579 883 l 744 883 l 744 589 l 619 589 l 619 468 l 497 468 l 497 -15 l 331 -15 m 303 957 l 303 1068 l 365 1068 l 365 1131 l 468 1131 l 468 1068 l 529 1068 l 529 957 l 426 957 l 426 1018 l 404 1018 l 404 957 l 303 957 z "},"Ÿ":{"ha":829,"x_min":85,"x_max":744,"o":"m 331 -15 l 331 468 l 208 468 l 208 589 l 85 589 l 85 883 l 249 883 l 249 640 l 372 640 l 372 519 l 456 519 l 456 640 l 579 640 l 579 883 l 744 883 l 744 589 l 619 589 l 619 468 l 497 468 l 497 -15 l 331 -15 m 193 951 l 193 1125 l 360 1125 l 360 951 l 193 951 m 483 951 l 483 1125 l 649 1125 l 649 951 l 483 951 z "},"Ỳ":{"ha":829,"x_min":85,"x_max":744,"o":"m 331 -15 l 331 468 l 208 468 l 208 589 l 85 589 l 85 883 l 249 883 l 249 640 l 372 640 l 372 519 l 456 519 l 456 640 l 579 640 l 579 883 l 744 883 l 744 589 l 619 589 l 619 468 l 497 468 l 497 -15 l 331 -15 m 365 957 l 365 1015 l 303 1015 l 303 1076 l 242 1076 l 242 1189 l 343 1189 l 343 1128 l 406 1128 l 406 1068 l 468 1068 l 468 957 l 365 957 z "},"Z":{"ha":829,"x_min":85,"x_max":744,"o":"m 208 -15 l 208 104 l 85 104 l 85 400 l 208 400 l 208 519 l 579 519 l 579 710 l 249 710 l 249 589 l 85 589 l 85 883 l 619 883 l 619 761 l 744 761 l 744 468 l 619 468 l 619 349 l 249 349 l 249 157 l 579 157 l 579 278 l 744 278 l 744 -15 l 208 -15 z "},"Ź":{"ha":829,"x_min":85,"x_max":744,"o":"m 208 -15 l 208 104 l 85 104 l 85 400 l 208 400 l 208 519 l 579 519 l 579 710 l 249 710 l 249 589 l 85 589 l 85 883 l 619 883 l 619 761 l 744 761 l 744 468 l 619 468 l 619 349 l 249 349 l 249 157 l 579 157 l 579 278 l 744 278 l 744 -15 l 208 -15 m 294 957 l 294 1068 l 356 1068 l 356 1128 l 419 1128 l 419 1189 l 521 1189 l 521 1076 l 458 1076 l 458 1015 l 397 1015 l 397 957 l 294 957 z "},"Ž":{"ha":829,"x_min":85,"x_max":744,"o":"m 208 -15 l 208 104 l 85 104 l 85 400 l 208 400 l 208 519 l 579 519 l 579 710 l 249 710 l 249 589 l 85 589 l 85 883 l 619 883 l 619 761 l 744 761 l 744 468 l 619 468 l 619 349 l 249 349 l 249 157 l 579 157 l 579 278 l 744 278 l 744 -15 l 208 -15 m 365 957 l 365 1018 l 303 1018 l 303 1131 l 404 1131 l 404 1069 l 426 1069 l 426 1131 l 529 1131 l 529 1018 l 468 1018 l 468 957 l 365 957 z "},"Ż":{"ha":829,"x_min":85,"x_max":744,"o":"m 208 -15 l 208 104 l 85 104 l 85 400 l 208 400 l 208 519 l 579 519 l 579 710 l 249 710 l 249 589 l 85 589 l 85 883 l 619 883 l 619 761 l 744 761 l 744 468 l 619 468 l 619 349 l 249 349 l 249 157 l 579 157 l 579 278 l 744 278 l 744 -15 l 208 -15 m 333 957 l 333 1131 l 500 1131 l 500 957 l 333 957 z "},"a":{"ha":954,"x_min":85,"x_max":869,"o":"m 208 -15 l 208 104 l 85 104 l 85 519 l 208 519 l 208 640 l 619 640 l 619 519 l 746 519 l 746 157 l 869 157 l 869 -15 l 704 -15 l 704 104 l 619 104 l 619 -15 l 208 -15 m 249 157 l 579 157 l 579 468 l 249 468 l 249 157 z "},"á":{"ha":954,"x_min":85,"x_max":869,"o":"m 208 -15 l 208 104 l 85 104 l 85 519 l 208 519 l 208 640 l 619 640 l 619 519 l 746 519 l 746 157 l 869 157 l 869 -15 l 704 -15 l 704 104 l 619 104 l 619 -15 l 208 -15 m 249 157 l 579 157 l 579 468 l 249 468 l 249 157 m 299 715 l 299 826 l 360 826 l 360 886 l 424 886 l 424 947 l 525 947 l 525 835 l 463 835 l 463 774 l 401 774 l 401 715 l 299 715 z "},"ă":{"ha":954,"x_min":85,"x_max":869,"o":"m 208 -15 l 208 104 l 85 104 l 85 519 l 208 519 l 208 640 l 619 640 l 619 519 l 746 519 l 746 157 l 869 157 l 869 -15 l 704 -15 l 704 104 l 619 104 l 619 -15 l 208 -15 m 249 157 l 579 157 l 579 468 l 249 468 l 249 157 m 239 715 l 239 889 l 340 889 l 340 828 l 496 828 l 496 889 l 596 889 l 596 715 l 239 715 z "},"â":{"ha":954,"x_min":85,"x_max":869,"o":"m 208 -15 l 208 104 l 85 104 l 85 519 l 208 519 l 208 640 l 619 640 l 619 519 l 746 519 l 746 157 l 869 157 l 869 -15 l 704 -15 l 704 104 l 619 104 l 619 -15 l 208 -15 m 249 157 l 579 157 l 579 468 l 249 468 l 249 157 m 307 715 l 307 826 l 369 826 l 369 889 l 472 889 l 472 826 l 533 826 l 533 715 l 431 715 l 431 776 l 408 776 l 408 715 l 307 715 z "},"ä":{"ha":954,"x_min":85,"x_max":869,"o":"m 208 -15 l 208 104 l 85 104 l 85 519 l 208 519 l 208 640 l 619 640 l 619 519 l 746 519 l 746 157 l 869 157 l 869 -15 l 704 -15 l 704 104 l 619 104 l 619 -15 l 208 -15 m 249 157 l 579 157 l 579 468 l 249 468 l 249 157 m 197 710 l 197 883 l 364 883 l 364 710 l 197 710 m 488 710 l 488 883 l 653 883 l 653 710 l 488 710 z "},"à":{"ha":954,"x_min":85,"x_max":869,"o":"m 208 -15 l 208 104 l 85 104 l 85 519 l 208 519 l 208 640 l 619 640 l 619 519 l 746 519 l 746 157 l 869 157 l 869 -15 l 704 -15 l 704 104 l 619 104 l 619 -15 l 208 -15 m 249 157 l 579 157 l 579 468 l 249 468 l 249 157 m 369 715 l 369 774 l 307 774 l 307 835 l 246 835 l 246 947 l 347 947 l 347 886 l 410 886 l 410 826 l 472 826 l 472 715 l 369 715 z "},"ā":{"ha":954,"x_min":85,"x_max":869,"o":"m 208 -15 l 208 104 l 85 104 l 85 519 l 208 519 l 208 640 l 619 640 l 619 519 l 746 519 l 746 157 l 869 157 l 869 -15 l 704 -15 l 704 104 l 619 104 l 619 -15 l 208 -15 m 249 157 l 579 157 l 579 468 l 249 468 l 249 157 m 214 715 l 214 879 l 625 879 l 625 715 l 214 715 z "},"ą":{"ha":954,"x_min":85,"x_max":982,"o":"m 208 -15 l 208 104 l 85 104 l 85 519 l 208 519 l 208 640 l 619 640 l 619 519 l 746 519 l 746 157 l 869 157 l 869 -15 l 704 -15 l 704 104 l 619 104 l 619 -15 l 208 -15 m 249 157 l 579 157 l 579 468 l 249 468 l 249 157 m 694 -268 l 694 -207 l 633 -207 l 633 -96 l 694 -96 l 694 -54 l 715 -56 l 715 54 l 860 54 l 860 -86 l 797 -86 l 797 -115 l 776 -124 l 776 -156 l 881 -156 l 881 -96 l 982 -96 l 982 -207 l 921 -207 l 921 -268 l 694 -268 z "},"å":{"ha":954,"x_min":85,"x_max":869,"o":"m 208 -15 l 208 104 l 85 104 l 85 519 l 208 519 l 208 640 l 619 640 l 619 519 l 746 519 l 746 157 l 869 157 l 869 -15 l 704 -15 l 704 104 l 619 104 l 619 -15 l 208 -15 m 249 157 l 579 157 l 579 468 l 249 468 l 249 157 m 338 715 l 338 889 l 500 889 l 500 715 l 338 715 m 383 761 l 454 761 l 454 843 l 383 843 l 383 761 z "},"ã":{"ha":954,"x_min":85,"x_max":869,"o":"m 208 -15 l 208 104 l 85 104 l 85 519 l 208 519 l 208 640 l 619 640 l 619 519 l 746 519 l 746 157 l 869 157 l 869 -15 l 704 -15 l 704 104 l 619 104 l 619 -15 l 208 -15 m 249 157 l 579 157 l 579 468 l 249 468 l 249 157 m 232 715 l 232 892 l 467 892 l 467 831 l 490 831 l 490 892 l 596 892 l 596 715 l 360 715 l 360 778 l 336 778 l 336 715 l 232 715 z "},"æ":{"ha":1574,"x_min":85,"x_max":1489,"o":"m 208 -15 l 208 104 l 85 104 l 85 519 l 208 519 l 208 640 l 619 640 l 619 519 l 744 519 l 744 157 l 829 157 l 829 519 l 954 519 l 954 640 l 1365 640 l 1365 519 l 1489 519 l 1489 349 l 1325 349 l 1325 468 l 993 468 l 993 400 l 1242 400 l 1242 226 l 993 226 l 993 157 l 1325 157 l 1325 279 l 1489 279 l 1489 106 l 1365 106 l 1365 -15 l 954 -15 l 954 104 l 869 104 l 869 -15 l 704 -15 l 704 104 l 619 104 l 619 -15 l 208 -15 m 249 157 l 579 157 l 579 468 l 249 468 l 249 157 z "},"ǽ":{"ha":1574,"x_min":85,"x_max":1489,"o":"m 208 -15 l 208 104 l 85 104 l 85 519 l 208 519 l 208 640 l 619 640 l 619 519 l 744 519 l 744 157 l 829 157 l 829 519 l 954 519 l 954 640 l 1365 640 l 1365 519 l 1489 519 l 1489 349 l 1325 349 l 1325 468 l 993 468 l 993 400 l 1242 400 l 1242 226 l 993 226 l 993 157 l 1325 157 l 1325 279 l 1489 279 l 1489 106 l 1365 106 l 1365 -15 l 954 -15 l 954 104 l 869 104 l 869 -15 l 704 -15 l 704 104 l 619 104 l 619 -15 l 208 -15 m 249 157 l 579 157 l 579 468 l 249 468 l 249 157 m 736 715 l 736 826 l 797 826 l 797 886 l 861 886 l 861 947 l 963 947 l 963 835 l 900 835 l 900 774 l 839 774 l 839 715 l 736 715 z "},"b":{"ha":829,"x_min":85,"x_max":744,"o":"m 208 -15 l 208 104 l 85 104 l 85 883 l 249 883 l 249 640 l 619 640 l 619 519 l 744 519 l 744 104 l 619 104 l 619 -15 l 208 -15 m 249 157 l 579 157 l 579 468 l 249 468 l 249 157 z "},"c":{"ha":829,"x_min":85,"x_max":744,"o":"m 208 -15 l 208 104 l 85 104 l 85 519 l 208 519 l 208 640 l 619 640 l 619 519 l 744 519 l 744 349 l 579 349 l 579 468 l 249 468 l 249 157 l 579 157 l 579 278 l 744 278 l 744 104 l 619 104 l 619 -15 l 208 -15 z "},"ć":{"ha":829,"x_min":85,"x_max":744,"o":"m 208 -15 l 208 104 l 85 104 l 85 519 l 208 519 l 208 640 l 619 640 l 619 519 l 744 519 l 744 349 l 579 349 l 579 468 l 249 468 l 249 157 l 579 157 l 579 278 l 744 278 l 744 104 l 619 104 l 619 -15 l 208 -15 m 294 715 l 294 826 l 356 826 l 356 886 l 419 886 l 419 947 l 521 947 l 521 835 l 458 835 l 458 774 l 397 774 l 397 715 l 294 715 z "},"č":{"ha":829,"x_min":85,"x_max":744,"o":"m 208 -15 l 208 104 l 85 104 l 85 519 l 208 519 l 208 640 l 619 640 l 619 519 l 744 519 l 744 349 l 579 349 l 579 468 l 249 468 l 249 157 l 579 157 l 579 278 l 744 278 l 744 104 l 619 104 l 619 -15 l 208 -15 m 365 715 l 365 776 l 303 776 l 303 889 l 404 889 l 404 828 l 426 828 l 426 889 l 529 889 l 529 776 l 468 776 l 468 715 l 365 715 z "},"ç":{"ha":829,"x_min":85,"x_max":744,"o":"m 208 -15 l 208 104 l 85 104 l 85 519 l 208 519 l 208 640 l 619 640 l 619 519 l 744 519 l 744 349 l 579 349 l 579 468 l 249 468 l 249 157 l 579 157 l 579 278 l 744 278 l 744 104 l 619 104 l 619 -15 l 208 -15 m 282 -268 l 282 -207 l 221 -207 l 221 -96 l 324 -96 l 324 -156 l 426 -156 l 426 -126 l 406 -124 l 406 -86 l 344 -86 l 344 36 l 488 36 l 488 -75 l 549 -75 l 549 -129 l 569 -147 l 569 -207 l 508 -207 l 508 -268 l 282 -268 z "},"ĉ":{"ha":829,"x_min":85,"x_max":744,"o":"m 208 -15 l 208 104 l 85 104 l 85 519 l 208 519 l 208 640 l 619 640 l 619 519 l 744 519 l 744 349 l 579 349 l 579 468 l 249 468 l 249 157 l 579 157 l 579 278 l 744 278 l 744 104 l 619 104 l 619 -15 l 208 -15 m 303 715 l 303 826 l 365 826 l 365 889 l 468 889 l 468 826 l 529 826 l 529 715 l 426 715 l 426 776 l 404 776 l 404 715 l 303 715 z "},"ċ":{"ha":829,"x_min":85,"x_max":744,"o":"m 208 -15 l 208 104 l 85 104 l 85 519 l 208 519 l 208 640 l 619 640 l 619 519 l 744 519 l 744 349 l 579 349 l 579 468 l 249 468 l 249 157 l 579 157 l 579 278 l 744 278 l 744 104 l 619 104 l 619 -15 l 208 -15 m 333 715 l 333 889 l 500 889 l 500 715 l 333 715 z "},"d":{"ha":829,"x_min":85,"x_max":746,"o":"m 208 -15 l 208 104 l 85 104 l 85 519 l 208 519 l 208 640 l 581 640 l 581 883 l 746 883 l 746 104 l 619 104 l 619 -15 l 208 -15 m 249 157 l 579 157 l 579 468 l 249 468 l 249 157 z "},"ď":{"ha":829,"x_min":85,"x_max":1001,"o":"m 208 -15 l 208 104 l 85 104 l 85 519 l 208 519 l 208 640 l 581 640 l 581 883 l 746 883 l 746 104 l 619 104 l 619 -15 l 208 -15 m 249 157 l 579 157 l 579 468 l 249 468 l 249 157 m 838 589 l 838 674 l 860 667 l 860 710 l 776 710 l 776 883 l 940 883 l 940 761 l 1003 761 l 1003 650 l 940 650 l 940 589 l 838 589 z "},"đ":{"ha":828,"x_min":85,"x_max":782,"o":"m 208 -15 l 208 104 l 85 104 l 85 519 l 208 519 l 208 636 l 581 636 l 581 672 l 303 672 l 303 835 l 581 835 l 581 883 l 746 883 l 746 835 l 782 835 l 782 668 l 746 668 l 746 104 l 619 104 l 619 -15 l 208 -15 m 249 157 l 579 157 l 579 468 l 249 468 l 249 157 z "},"ð":{"ha":840,"x_min":85,"x_max":790,"o":"m 210 -15 l 210 104 l 85 104 l 85 400 l 210 400 l 210 519 l 581 519 l 581 710 l 250 710 l 250 589 l 85 589 l 85 761 l 210 761 l 210 883 l 621 883 l 621 761 l 744 761 l 744 104 l 621 104 l 621 -15 l 210 -15 m 250 157 l 581 157 l 581 349 l 250 349 l 250 157 m 347 583 l 625 972 l 790 972 l 513 583 l 347 583 z "},"e":{"ha":829,"x_min":85,"x_max":744,"o":"m 208 -15 l 208 104 l 85 104 l 85 519 l 208 519 l 208 640 l 619 640 l 619 519 l 744 519 l 744 349 l 579 349 l 579 468 l 249 468 l 249 400 l 497 400 l 497 226 l 249 226 l 249 157 l 579 157 l 579 279 l 744 279 l 744 106 l 619 106 l 619 -15 l 208 -15 z "},"é":{"ha":829,"x_min":85,"x_max":744,"o":"m 208 -15 l 208 104 l 85 104 l 85 519 l 208 519 l 208 640 l 619 640 l 619 519 l 744 519 l 744 349 l 579 349 l 579 468 l 249 468 l 249 400 l 497 400 l 497 226 l 249 226 l 249 157 l 579 157 l 579 279 l 744 279 l 744 106 l 619 106 l 619 -15 l 208 -15 m 294 715 l 294 826 l 356 826 l 356 886 l 419 886 l 419 947 l 521 947 l 521 835 l 458 835 l 458 774 l 397 774 l 397 715 l 294 715 z "},"ĕ":{"ha":829,"x_min":85,"x_max":744,"o":"m 208 -15 l 208 104 l 85 104 l 85 519 l 208 519 l 208 640 l 619 640 l 619 519 l 744 519 l 744 349 l 579 349 l 579 468 l 249 468 l 249 400 l 497 400 l 497 226 l 249 226 l 249 157 l 579 157 l 579 279 l 744 279 l 744 106 l 619 106 l 619 -15 l 208 -15 m 235 715 l 235 889 l 336 889 l 336 828 l 492 828 l 492 889 l 592 889 l 592 715 l 235 715 z "},"ě":{"ha":829,"x_min":85,"x_max":744,"o":"m 208 -15 l 208 104 l 85 104 l 85 519 l 208 519 l 208 640 l 619 640 l 619 519 l 744 519 l 744 349 l 579 349 l 579 468 l 249 468 l 249 400 l 497 400 l 497 226 l 249 226 l 249 157 l 579 157 l 579 279 l 744 279 l 744 106 l 619 106 l 619 -15 l 208 -15 m 365 715 l 365 776 l 303 776 l 303 889 l 404 889 l 404 828 l 426 828 l 426 889 l 529 889 l 529 776 l 468 776 l 468 715 l 365 715 z "},"ê":{"ha":829,"x_min":85,"x_max":744,"o":"m 208 -15 l 208 104 l 85 104 l 85 519 l 208 519 l 208 640 l 619 640 l 619 519 l 744 519 l 744 349 l 579 349 l 579 468 l 249 468 l 249 400 l 497 400 l 497 226 l 249 226 l 249 157 l 579 157 l 579 279 l 744 279 l 744 106 l 619 106 l 619 -15 l 208 -15 m 303 715 l 303 826 l 365 826 l 365 889 l 468 889 l 468 826 l 529 826 l 529 715 l 426 715 l 426 776 l 404 776 l 404 715 l 303 715 z "},"ë":{"ha":829,"x_min":85,"x_max":744,"o":"m 208 -15 l 208 104 l 85 104 l 85 519 l 208 519 l 208 640 l 619 640 l 619 519 l 744 519 l 744 349 l 579 349 l 579 468 l 249 468 l 249 400 l 497 400 l 497 226 l 249 226 l 249 157 l 579 157 l 579 279 l 744 279 l 744 106 l 619 106 l 619 -15 l 208 -15 m 193 710 l 193 883 l 360 883 l 360 710 l 193 710 m 483 710 l 483 883 l 649 883 l 649 710 l 483 710 z "},"ė":{"ha":829,"x_min":85,"x_max":744,"o":"m 208 -15 l 208 104 l 85 104 l 85 519 l 208 519 l 208 640 l 619 640 l 619 519 l 744 519 l 744 349 l 579 349 l 579 468 l 249 468 l 249 400 l 497 400 l 497 226 l 249 226 l 249 157 l 579 157 l 579 279 l 744 279 l 744 106 l 619 106 l 619 -15 l 208 -15 m 333 715 l 333 889 l 500 889 l 500 715 l 333 715 z "},"è":{"ha":829,"x_min":85,"x_max":744,"o":"m 208 -15 l 208 104 l 85 104 l 85 519 l 208 519 l 208 640 l 619 640 l 619 519 l 744 519 l 744 349 l 579 349 l 579 468 l 249 468 l 249 400 l 497 400 l 497 226 l 249 226 l 249 157 l 579 157 l 579 279 l 744 279 l 744 106 l 619 106 l 619 -15 l 208 -15 m 365 715 l 365 774 l 303 774 l 303 835 l 242 835 l 242 947 l 343 947 l 343 886 l 406 886 l 406 826 l 468 826 l 468 715 l 365 715 z "},"ē":{"ha":829,"x_min":85,"x_max":744,"o":"m 208 -15 l 208 104 l 85 104 l 85 519 l 208 519 l 208 640 l 619 640 l 619 519 l 744 519 l 744 349 l 579 349 l 579 468 l 249 468 l 249 400 l 497 400 l 497 226 l 249 226 l 249 157 l 579 157 l 579 279 l 744 279 l 744 106 l 619 106 l 619 -15 l 208 -15 m 210 715 l 210 879 l 621 879 l 621 715 l 210 715 z "},"ę":{"ha":829,"x_min":85,"x_max":744,"o":"m 208 -15 l 208 104 l 85 104 l 85 519 l 208 519 l 208 640 l 619 640 l 619 519 l 744 519 l 744 349 l 579 349 l 579 468 l 249 468 l 249 400 l 497 400 l 497 226 l 249 226 l 249 157 l 579 157 l 579 279 l 744 279 l 744 106 l 619 106 l 619 -15 l 208 -15 m 318 -268 l 318 -207 l 257 -207 l 257 -96 l 318 -96 l 318 -54 l 339 -56 l 339 54 l 483 54 l 483 -86 l 421 -86 l 421 -115 l 400 -124 l 400 -156 l 504 -156 l 504 -96 l 606 -96 l 606 -207 l 544 -207 l 544 -268 l 318 -268 z "},"f":{"ha":829,"x_min":85,"x_max":744,"o":"m 85 -15 l 85 761 l 208 761 l 208 883 l 619 883 l 619 761 l 744 761 l 744 589 l 579 589 l 579 710 l 249 710 l 249 519 l 497 519 l 497 349 l 249 349 l 249 -15 l 85 -15 z "},"g":{"ha":829,"x_min":85,"x_max":744,"o":"m 208 -258 l 208 -137 l 85 -137 l 85 35 l 249 35 l 249 -86 l 581 -86 l 581 104 l 208 104 l 208 226 l 85 226 l 85 519 l 208 519 l 208 640 l 621 640 l 621 519 l 744 519 l 744 -137 l 621 -137 l 621 -258 l 208 -258 m 249 278 l 581 278 l 581 468 l 249 468 l 249 278 z "},"ğ":{"ha":829,"x_min":85,"x_max":744,"o":"m 208 -258 l 208 -137 l 85 -137 l 85 35 l 249 35 l 249 -86 l 581 -86 l 581 104 l 208 104 l 208 226 l 85 226 l 85 519 l 208 519 l 208 640 l 621 640 l 621 519 l 744 519 l 744 -137 l 621 -137 l 621 -258 l 208 -258 m 249 278 l 581 278 l 581 468 l 249 468 l 249 278 m 235 715 l 235 889 l 336 889 l 336 828 l 492 828 l 492 889 l 592 889 l 592 715 l 235 715 z "},"ĝ":{"ha":829,"x_min":85,"x_max":744,"o":"m 208 -258 l 208 -137 l 85 -137 l 85 35 l 249 35 l 249 -86 l 581 -86 l 581 104 l 208 104 l 208 226 l 85 226 l 85 519 l 208 519 l 208 640 l 621 640 l 621 519 l 744 519 l 744 -137 l 621 -137 l 621 -258 l 208 -258 m 249 278 l 581 278 l 581 468 l 249 468 l 249 278 m 303 715 l 303 826 l 365 826 l 365 889 l 468 889 l 468 826 l 529 826 l 529 715 l 426 715 l 426 776 l 404 776 l 404 715 l 303 715 z "},"ģ":{"ha":829,"x_min":85,"x_max":744,"o":"m 208 -258 l 208 -137 l 85 -137 l 85 35 l 249 35 l 249 -86 l 581 -86 l 581 104 l 208 104 l 208 226 l 85 226 l 85 519 l 208 519 l 208 640 l 621 640 l 621 519 l 744 519 l 744 -137 l 621 -137 l 621 -258 l 208 -258 m 249 278 l 581 278 l 581 468 l 249 468 l 249 278 m 364 715 l 364 836 l 301 836 l 301 947 l 364 947 l 364 1008 l 467 1008 l 467 924 l 444 925 l 444 889 l 528 889 l 528 715 l 364 715 z "},"ġ":{"ha":829,"x_min":85,"x_max":744,"o":"m 208 -258 l 208 -137 l 85 -137 l 85 35 l 249 35 l 249 -86 l 581 -86 l 581 104 l 208 104 l 208 226 l 85 226 l 85 519 l 208 519 l 208 640 l 621 640 l 621 519 l 744 519 l 744 -137 l 621 -137 l 621 -258 l 208 -258 m 249 278 l 581 278 l 581 468 l 249 468 l 249 278 m 333 715 l 333 889 l 500 889 l 500 715 l 333 715 z "},"h":{"ha":829,"x_min":85,"x_max":744,"o":"m 85 -15 l 85 883 l 249 883 l 249 519 l 331 519 l 331 640 l 619 640 l 619 519 l 744 519 l 744 -15 l 579 -15 l 579 468 l 372 468 l 372 349 l 249 349 l 249 -15 l 85 -15 z "},"ħ":{"ha":829,"x_min":43,"x_max":744,"o":"m 83 -15 l 83 667 l 43 667 l 43 839 l 83 839 l 83 883 l 247 883 l 247 839 l 385 839 l 385 667 l 247 667 l 247 519 l 331 519 l 331 640 l 619 640 l 619 519 l 744 519 l 744 -15 l 578 -15 l 578 468 l 371 468 l 371 349 l 247 349 l 247 -15 l 83 -15 z "},"ĥ":{"ha":829,"x_min":85,"x_max":744,"o":"m 85 -15 l 85 883 l 249 883 l 249 519 l 331 519 l 331 640 l 619 640 l 619 519 l 744 519 l 744 -15 l 579 -15 l 579 468 l 372 468 l 372 349 l 249 349 l 249 -15 l 85 -15 m 303 957 l 303 1068 l 365 1068 l 365 1131 l 468 1131 l 468 1068 l 529 1068 l 529 957 l 426 957 l 426 1018 l 404 1018 l 404 957 l 303 957 z "},"i":{"ha":333,"x_min":85,"x_max":249,"o":"m 85 -15 l 85 640 l 249 640 l 249 -15 l 85 -15 m 85 710 l 85 883 l 249 883 l 249 710 l 85 710 z "},"ı":{"ha":333,"x_min":85,"x_max":250,"o":"m 85 -15 l 85 640 l 250 640 l 250 -15 l 85 -15 z "},"í":{"ha":333,"x_min":46,"x_max":272,"o":"m 85 -15 l 85 640 l 250 640 l 250 -15 l 85 -15 m 46 715 l 46 826 l 107 826 l 107 886 l 171 886 l 171 947 l 272 947 l 272 835 l 210 835 l 210 774 l 149 774 l 149 715 l 46 715 z "},"ĭ":{"ha":333,"x_min":-17,"x_max":342,"o":"m 82 -15 l 82 640 l 247 640 l 247 -15 l 82 -15 m -17 722 l -17 896 l 85 896 l 85 835 l 240 835 l 240 896 l 342 896 l 342 722 l -17 722 z "},"î":{"ha":333,"x_min":54,"x_max":281,"o":"m 85 -15 l 85 640 l 250 640 l 250 -15 l 85 -15 m 54 715 l 54 826 l 117 826 l 117 889 l 219 889 l 219 826 l 281 826 l 281 715 l 178 715 l 178 776 l 156 776 l 156 715 l 54 715 z "},"ï":{"ha":333,"x_min":-28,"x_max":363,"o":"m 85 -15 l 85 640 l 250 640 l 250 -15 l 85 -15 m -28 710 l -28 883 l 138 883 l 138 710 l -28 710 m 197 710 l 197 883 l 361 883 l 361 710 l 197 710 z "},"ì":{"ha":333,"x_min":-7,"x_max":250,"o":"m 85 -15 l 85 640 l 250 640 l 250 -15 l 85 -15 m 117 715 l 117 774 l 54 774 l 54 835 l -7 835 l -7 947 l 94 947 l 94 886 l 157 886 l 157 826 l 219 826 l 219 715 l 117 715 z "},"ī":{"ha":333,"x_min":-39,"x_max":372,"o":"m 85 -15 l 85 640 l 250 640 l 250 -15 l 85 -15 m -39 715 l -39 879 l 372 879 l 372 715 l -39 715 z "},"į":{"ha":333,"x_min":13,"x_max":361,"o":"m 85 -15 l 85 640 l 250 640 l 250 -15 l 85 -15 m 85 715 l 85 889 l 251 889 l 251 715 l 85 715 m 74 -278 l 74 -217 l 13 -217 l 13 -106 l 74 -106 l 74 -64 l 94 -65 l 94 44 l 239 44 l 239 -96 l 176 -96 l 176 -125 l 156 -133 l 156 -165 l 260 -165 l 260 -106 l 361 -106 l 361 -217 l 300 -217 l 300 -278 l 74 -278 z "},"ĩ":{"ha":333,"x_min":-21,"x_max":343,"o":"m 85 -15 l 85 640 l 250 640 l 250 -15 l 85 -15 m -21 715 l -21 892 l 214 892 l 214 831 l 238 831 l 238 892 l 343 892 l 343 715 l 107 715 l 107 778 l 83 778 l 83 715 l -21 715 z "},"ĳ":{"ha":1011,"x_min":85,"x_max":926,"o":"m 514 -17 l 514 104 l 390 104 l 390 278 l 554 278 l 554 157 l 761 157 l 761 640 l 926 640 l 926 104 l 803 104 l 803 -17 l 514 -17 m 85 -15 l 85 640 l 249 640 l 249 -15 l 85 -15 z "},"j":{"ha":706,"x_min":85,"x_max":621,"o":"m 208 -17 l 208 104 l 85 104 l 85 278 l 249 278 l 249 157 l 456 157 l 456 640 l 621 640 l 621 104 l 497 104 l 497 -17 l 208 -17 z "},"ȷ":{"ha":706,"x_min":85,"x_max":621,"o":"m 208 -17 l 208 104 l 85 104 l 85 278 l 249 278 l 249 157 l 456 157 l 456 640 l 621 640 l 621 104 l 497 104 l 497 -17 l 208 -17 z "},"ĵ":{"ha":706,"x_min":85,"x_max":647,"o":"m 208 -17 l 208 104 l 85 104 l 85 278 l 249 278 l 249 157 l 456 157 l 456 640 l 621 640 l 621 104 l 497 104 l 497 -17 l 208 -17 m 421 715 l 421 826 l 483 826 l 483 889 l 586 889 l 586 826 l 647 826 l 647 715 l 544 715 l 544 776 l 522 776 l 522 715 l 421 715 z "},"k":{"ha":829,"x_min":85,"x_max":744,"o":"m 85 -15 l 85 883 l 249 883 l 249 400 l 331 400 l 331 519 l 579 519 l 579 640 l 744 640 l 744 468 l 619 468 l 619 349 l 372 349 l 372 278 l 619 278 l 619 157 l 744 157 l 744 -15 l 579 -15 l 579 104 l 331 104 l 331 226 l 249 226 l 249 -15 l 85 -15 z "},"ķ":{"ha":829,"x_min":85,"x_max":744,"o":"m 85 -15 l 85 883 l 249 883 l 249 400 l 331 400 l 331 519 l 579 519 l 579 640 l 744 640 l 744 468 l 619 468 l 619 349 l 372 349 l 372 278 l 619 278 l 619 157 l 744 157 l 744 -15 l 579 -15 l 579 104 l 331 104 l 331 226 l 249 226 l 249 -15 l 85 -15 m 388 -358 l 388 -274 l 410 -272 l 410 -237 l 326 -237 l 326 -64 l 490 -64 l 490 -186 l 553 -186 l 553 -296 l 490 -296 l 490 -358 l 388 -358 z "},"l":{"ha":333,"x_min":85,"x_max":249,"o":"m 85 -15 l 85 883 l 249 883 l 249 -15 l 85 -15 z "},"ĺ":{"ha":333,"x_min":46,"x_max":272,"o":"m 85 -15 l 85 883 l 249 883 l 249 -15 l 85 -15 m 46 957 l 46 1068 l 107 1068 l 107 1128 l 171 1128 l 171 1189 l 272 1189 l 272 1076 l 210 1076 l 210 1015 l 149 1015 l 149 957 l 46 957 z "},"ľ":{"ha":333,"x_min":85,"x_max":504,"o":"m 85 -15 l 85 883 l 249 883 l 249 -15 l 85 -15 m 340 590 l 340 675 l 363 668 l 363 711 l 279 711 l 279 885 l 443 885 l 443 763 l 506 763 l 506 651 l 443 651 l 443 590 l 340 590 z "},"ļ":{"ha":333,"x_min":78,"x_max":304,"o":"m 85 -15 l 85 883 l 249 883 l 249 -15 l 85 -15 m 139 -358 l 139 -274 l 161 -272 l 161 -237 l 78 -237 l 78 -64 l 242 -64 l 242 -186 l 304 -186 l 304 -296 l 242 -296 l 242 -358 l 139 -358 z "},"ŀ":{"ha":333,"x_min":85,"x_max":249,"o":"m 85 -15 l 85 883 l 249 883 l 249 -15 l 85 -15 m 85 0 l 85 174 l 249 174 l 249 0 l 85 0 z "},"ł":{"ha":358,"x_min":-44,"x_max":408,"o":"m 97 -15 l 97 182 l 67 139 l -44 201 l 97 418 l 97 883 l 261 883 l 261 689 l 301 757 l 408 693 l 261 451 l 261 -15 l 97 -15 z "},"m":{"ha":1076,"x_min":85,"x_max":992,"o":"m 85 -15 l 85 640 l 497 640 l 497 519 l 579 519 l 579 640 l 869 640 l 869 519 l 992 519 l 992 -15 l 829 -15 l 829 468 l 619 468 l 619 -15 l 456 -15 l 456 468 l 249 468 l 249 -15 l 85 -15 z "},"n":{"ha":829,"x_min":85,"x_max":744,"o":"m 85 -15 l 85 640 l 619 640 l 619 519 l 744 519 l 744 -15 l 579 -15 l 579 468 l 249 468 l 249 -15 l 85 -15 z "},"ń":{"ha":829,"x_min":85,"x_max":744,"o":"m 85 -15 l 85 640 l 619 640 l 619 519 l 744 519 l 744 -15 l 579 -15 l 579 468 l 249 468 l 249 -15 l 85 -15 m 294 715 l 294 826 l 356 826 l 356 886 l 419 886 l 419 947 l 521 947 l 521 835 l 458 835 l 458 774 l 397 774 l 397 715 l 294 715 z "},"ŉ":{"ha":1008,"x_min":24,"x_max":924,"o":"m 264 -15 l 264 640 l 799 640 l 799 519 l 924 519 l 924 -15 l 758 -15 l 758 468 l 428 468 l 428 -15 l 264 -15 m 85 589 l 85 654 l 106 674 l 106 710 l 24 710 l 24 883 l 188 883 l 188 761 l 249 761 l 249 650 l 188 650 l 188 589 l 85 589 z "},"ň":{"ha":829,"x_min":85,"x_max":744,"o":"m 85 -15 l 85 640 l 619 640 l 619 519 l 744 519 l 744 -15 l 579 -15 l 579 468 l 249 468 l 249 -15 l 85 -15 m 365 715 l 365 776 l 303 776 l 303 889 l 404 889 l 404 828 l 426 828 l 426 889 l 529 889 l 529 776 l 468 776 l 468 715 l 365 715 z "},"ņ":{"ha":829,"x_min":85,"x_max":744,"o":"m 85 -15 l 85 640 l 619 640 l 619 519 l 744 519 l 744 -15 l 579 -15 l 579 468 l 249 468 l 249 -15 l 85 -15 m 388 -358 l 388 -274 l 410 -272 l 410 -237 l 326 -237 l 326 -64 l 490 -64 l 490 -186 l 553 -186 l 553 -296 l 490 -296 l 490 -358 l 388 -358 z "},"ñ":{"ha":829,"x_min":85,"x_max":744,"o":"m 85 -15 l 85 640 l 619 640 l 619 519 l 744 519 l 744 -15 l 579 -15 l 579 468 l 249 468 l 249 -15 l 85 -15 m 228 715 l 228 892 l 463 892 l 463 831 l 486 831 l 486 892 l 592 892 l 592 715 l 356 715 l 356 778 l 332 778 l 332 715 l 228 715 z "},"ŋ":{"ha":965,"x_min":85,"x_max":751,"o":"m 333 -336 l 333 -212 l 208 -212 l 208 -54 l 375 -54 l 375 -178 l 583 -178 l 583 476 l 250 476 l 250 1 l 85 1 l 85 633 l 625 633 l 625 510 l 751 510 l 751 -212 l 625 -212 l 625 -336 l 333 -336 z "},"o":{"ha":829,"x_min":85,"x_max":744,"o":"m 208 -15 l 208 104 l 85 104 l 85 519 l 208 519 l 208 640 l 619 640 l 619 519 l 744 519 l 744 104 l 619 104 l 619 -15 l 208 -15 m 249 157 l 579 157 l 579 468 l 249 468 l 249 157 z "},"ó":{"ha":829,"x_min":85,"x_max":744,"o":"m 208 -15 l 208 104 l 85 104 l 85 519 l 208 519 l 208 640 l 619 640 l 619 519 l 744 519 l 744 104 l 619 104 l 619 -15 l 208 -15 m 249 157 l 579 157 l 579 468 l 249 468 l 249 157 m 294 715 l 294 826 l 356 826 l 356 886 l 419 886 l 419 947 l 521 947 l 521 835 l 458 835 l 458 774 l 397 774 l 397 715 l 294 715 z "},"ŏ":{"ha":829,"x_min":85,"x_max":744,"o":"m 208 -15 l 208 104 l 85 104 l 85 519 l 208 519 l 208 640 l 619 640 l 619 519 l 744 519 l 744 104 l 619 104 l 619 -15 l 208 -15 m 249 157 l 579 157 l 579 468 l 249 468 l 249 157 m 235 715 l 235 889 l 336 889 l 336 828 l 492 828 l 492 889 l 592 889 l 592 715 l 235 715 z "},"ô":{"ha":829,"x_min":85,"x_max":744,"o":"m 208 -15 l 208 104 l 85 104 l 85 519 l 208 519 l 208 640 l 619 640 l 619 519 l 744 519 l 744 104 l 619 104 l 619 -15 l 208 -15 m 249 157 l 579 157 l 579 468 l 249 468 l 249 157 m 303 715 l 303 826 l 365 826 l 365 889 l 468 889 l 468 826 l 529 826 l 529 715 l 426 715 l 426 776 l 404 776 l 404 715 l 303 715 z "},"ö":{"ha":829,"x_min":85,"x_max":744,"o":"m 208 -15 l 208 104 l 85 104 l 85 519 l 208 519 l 208 640 l 619 640 l 619 519 l 744 519 l 744 104 l 619 104 l 619 -15 l 208 -15 m 249 157 l 579 157 l 579 468 l 249 468 l 249 157 m 193 710 l 193 883 l 360 883 l 360 710 l 193 710 m 483 710 l 483 883 l 649 883 l 649 710 l 483 710 z "},"ò":{"ha":829,"x_min":85,"x_max":744,"o":"m 208 -15 l 208 104 l 85 104 l 85 519 l 208 519 l 208 640 l 619 640 l 619 519 l 744 519 l 744 104 l 619 104 l 619 -15 l 208 -15 m 249 157 l 579 157 l 579 468 l 249 468 l 249 157 m 365 715 l 365 774 l 303 774 l 303 835 l 242 835 l 242 947 l 343 947 l 343 886 l 406 886 l 406 826 l 468 826 l 468 715 l 365 715 z "},"ő":{"ha":829,"x_min":85,"x_max":744,"o":"m 208 -15 l 208 104 l 85 104 l 85 519 l 208 519 l 208 640 l 619 640 l 619 519 l 744 519 l 744 104 l 619 104 l 619 -15 l 208 -15 m 249 157 l 579 157 l 579 468 l 249 468 l 249 157 m 508 715 l 508 774 l 447 774 l 447 835 l 385 835 l 385 947 l 486 947 l 486 886 l 550 886 l 550 826 l 611 826 l 611 715 l 508 715 m 282 715 l 282 774 l 219 774 l 219 835 l 158 835 l 158 947 l 260 947 l 260 886 l 322 886 l 322 826 l 383 826 l 383 715 l 282 715 z "},"ō":{"ha":829,"x_min":85,"x_max":744,"o":"m 208 -15 l 208 104 l 85 104 l 85 519 l 208 519 l 208 640 l 619 640 l 619 519 l 744 519 l 744 104 l 619 104 l 619 -15 l 208 -15 m 249 157 l 579 157 l 579 468 l 249 468 l 249 157 m 210 715 l 210 879 l 621 879 l 621 715 l 210 715 z "},"ø":{"ha":829,"x_min":44,"x_max":781,"o":"m 44 -96 l 614 738 l 781 738 l 211 -96 l 44 -96 m 208 -15 l 208 104 l 85 104 l 85 519 l 208 519 l 208 640 l 619 640 l 619 519 l 744 519 l 744 104 l 619 104 l 619 -15 l 208 -15 m 249 157 l 579 157 l 579 468 l 249 468 l 249 157 z "},"ǿ":{"ha":829,"x_min":44,"x_max":781,"o":"m 44 -96 l 614 738 l 781 738 l 211 -96 l 44 -96 m 208 -15 l 208 104 l 85 104 l 85 519 l 208 519 l 208 640 l 619 640 l 619 519 l 744 519 l 744 104 l 619 104 l 619 -15 l 208 -15 m 249 157 l 579 157 l 579 468 l 249 468 l 249 157 m 294 715 l 294 826 l 356 826 l 356 886 l 419 886 l 419 947 l 521 947 l 521 835 l 458 835 l 458 774 l 397 774 l 397 715 l 294 715 z "},"õ":{"ha":829,"x_min":85,"x_max":744,"o":"m 208 -15 l 208 104 l 85 104 l 85 519 l 208 519 l 208 640 l 619 640 l 619 519 l 744 519 l 744 104 l 619 104 l 619 -15 l 208 -15 m 249 157 l 579 157 l 579 468 l 249 468 l 249 157 m 228 715 l 228 892 l 463 892 l 463 831 l 486 831 l 486 892 l 592 892 l 592 715 l 356 715 l 356 778 l 332 778 l 332 715 l 228 715 z "},"œ":{"ha":1325,"x_min":85,"x_max":1240,"o":"m 208 -15 l 208 104 l 85 104 l 85 519 l 208 519 l 208 640 l 619 640 l 619 519 l 704 519 l 704 640 l 1117 640 l 1117 519 l 1240 519 l 1240 349 l 1075 349 l 1075 468 l 744 468 l 744 400 l 992 400 l 992 226 l 744 226 l 744 157 l 1075 157 l 1075 279 l 1240 279 l 1240 106 l 1117 106 l 1117 -15 l 704 -15 l 704 104 l 619 104 l 619 -15 l 208 -15 m 249 157 l 579 157 l 579 468 l 249 468 l 249 157 z "},"p":{"ha":829,"x_min":85,"x_max":744,"o":"m 85 -251 l 85 519 l 208 519 l 208 640 l 619 640 l 619 519 l 744 519 l 744 104 l 619 104 l 619 -15 l 249 -15 l 249 -251 l 85 -251 m 249 157 l 579 157 l 579 468 l 249 468 l 249 157 z "},"þ":{"ha":829,"x_min":85,"x_max":744,"o":"m 85 -15 l 85 883 l 249 883 l 249 713 l 619 713 l 619 592 l 744 592 l 744 175 l 619 175 l 619 57 l 249 57 l 249 -15 l 85 -15 m 249 228 l 579 228 l 579 539 l 249 539 l 249 228 z "},"q":{"ha":829,"x_min":85,"x_max":744,"o":"m 579 -251 l 579 -15 l 208 -15 l 208 104 l 85 104 l 85 519 l 208 519 l 208 640 l 619 640 l 619 519 l 744 519 l 744 -251 l 579 -251 m 249 157 l 579 157 l 579 468 l 249 468 l 249 157 z "},"r":{"ha":829,"x_min":85,"x_max":744,"o":"m 85 -15 l 85 519 l 208 519 l 208 640 l 619 640 l 619 519 l 744 519 l 744 349 l 579 349 l 579 468 l 249 468 l 249 -15 l 85 -15 z "},"ŕ":{"ha":829,"x_min":85,"x_max":744,"o":"m 85 -15 l 85 519 l 208 519 l 208 640 l 619 640 l 619 519 l 744 519 l 744 349 l 579 349 l 579 468 l 249 468 l 249 -15 l 85 -15 m 294 715 l 294 826 l 356 826 l 356 886 l 419 886 l 419 947 l 521 947 l 521 835 l 458 835 l 458 774 l 397 774 l 397 715 l 294 715 z "},"ř":{"ha":829,"x_min":85,"x_max":744,"o":"m 85 -15 l 85 519 l 208 519 l 208 640 l 619 640 l 619 519 l 744 519 l 744 349 l 579 349 l 579 468 l 249 468 l 249 -15 l 85 -15 m 365 715 l 365 776 l 303 776 l 303 889 l 404 889 l 404 828 l 426 828 l 426 889 l 529 889 l 529 776 l 468 776 l 468 715 l 365 715 z "},"ŗ":{"ha":829,"x_min":85,"x_max":744,"o":"m 85 -15 l 85 519 l 208 519 l 208 640 l 619 640 l 619 519 l 744 519 l 744 349 l 579 349 l 579 468 l 249 468 l 249 -15 l 85 -15 m 388 -358 l 388 -274 l 410 -272 l 410 -237 l 326 -237 l 326 -64 l 490 -64 l 490 -186 l 553 -186 l 553 -296 l 490 -296 l 490 -358 l 388 -358 z "},"s":{"ha":829,"x_min":85,"x_max":744,"o":"m 85 -15 l 85 157 l 579 157 l 579 226 l 208 226 l 208 349 l 85 349 l 85 519 l 208 519 l 208 640 l 744 640 l 744 468 l 249 468 l 249 400 l 619 400 l 619 278 l 744 278 l 744 104 l 619 104 l 619 -15 l 85 -15 z "},"ś":{"ha":829,"x_min":85,"x_max":744,"o":"m 85 -15 l 85 157 l 579 157 l 579 226 l 208 226 l 208 349 l 85 349 l 85 519 l 208 519 l 208 640 l 744 640 l 744 468 l 249 468 l 249 400 l 619 400 l 619 278 l 744 278 l 744 104 l 619 104 l 619 -15 l 85 -15 m 367 715 l 367 826 l 428 826 l 428 886 l 492 886 l 492 947 l 593 947 l 593 835 l 531 835 l 531 774 l 469 774 l 469 715 l 367 715 z "},"š":{"ha":829,"x_min":85,"x_max":744,"o":"m 85 -15 l 85 157 l 579 157 l 579 226 l 208 226 l 208 349 l 85 349 l 85 519 l 208 519 l 208 640 l 744 640 l 744 468 l 249 468 l 249 400 l 619 400 l 619 278 l 744 278 l 744 104 l 619 104 l 619 -15 l 85 -15 m 438 715 l 438 776 l 375 776 l 375 889 l 476 889 l 476 828 l 499 828 l 499 889 l 601 889 l 601 776 l 540 776 l 540 715 l 438 715 z "},"ş":{"ha":829,"x_min":85,"x_max":744,"o":"m 85 -15 l 85 157 l 579 157 l 579 226 l 208 226 l 208 349 l 85 349 l 85 519 l 208 519 l 208 640 l 744 640 l 744 468 l 249 468 l 249 400 l 619 400 l 619 278 l 744 278 l 744 104 l 619 104 l 619 -15 l 85 -15 m 282 -268 l 282 -207 l 221 -207 l 221 -96 l 324 -96 l 324 -156 l 426 -156 l 426 -126 l 406 -124 l 406 -86 l 344 -86 l 344 36 l 488 36 l 488 -75 l 549 -75 l 549 -129 l 569 -147 l 569 -207 l 508 -207 l 508 -268 l 282 -268 z "},"ŝ":{"ha":829,"x_min":85,"x_max":744,"o":"m 85 -15 l 85 157 l 579 157 l 579 226 l 208 226 l 208 349 l 85 349 l 85 519 l 208 519 l 208 640 l 744 640 l 744 468 l 249 468 l 249 400 l 619 400 l 619 278 l 744 278 l 744 104 l 619 104 l 619 -15 l 85 -15 m 375 715 l 375 826 l 438 826 l 438 889 l 540 889 l 540 826 l 601 826 l 601 715 l 499 715 l 499 776 l 476 776 l 476 715 l 375 715 z "},"ș":{"ha":829,"x_min":85,"x_max":744,"o":"m 85 -15 l 85 157 l 579 157 l 579 226 l 208 226 l 208 349 l 85 349 l 85 519 l 208 519 l 208 640 l 744 640 l 744 468 l 249 468 l 249 400 l 619 400 l 619 278 l 744 278 l 744 104 l 619 104 l 619 -15 l 85 -15 m 388 -358 l 388 -274 l 410 -272 l 410 -237 l 326 -237 l 326 -64 l 490 -64 l 490 -186 l 553 -186 l 553 -296 l 490 -296 l 490 -358 l 388 -358 z "},"ß":{"ha":829,"x_min":85,"x_max":744,"o":"m 85 -15 l 85 883 l 619 883 l 619 761 l 744 761 l 744 468 l 619 468 l 619 400 l 744 400 l 744 104 l 619 104 l 619 -15 l 331 -15 l 331 157 l 579 157 l 579 349 l 331 349 l 331 519 l 579 519 l 579 710 l 249 710 l 249 -15 l 85 -15 z "},"t":{"ha":954,"x_min":85,"x_max":869,"o":"m 331 -15 l 331 104 l 208 104 l 208 468 l 85 468 l 85 640 l 208 640 l 208 883 l 372 883 l 372 640 l 744 640 l 744 468 l 372 468 l 372 157 l 704 157 l 704 278 l 869 278 l 869 104 l 744 104 l 744 -15 l 331 -15 z "},"ŧ":{"ha":954,"x_min":85,"x_max":869,"o":"m 331 -15 l 331 104 l 208 104 l 208 208 l 85 208 l 85 382 l 208 382 l 208 468 l 85 468 l 85 640 l 208 640 l 208 883 l 372 883 l 372 640 l 744 640 l 744 468 l 372 468 l 372 382 l 496 382 l 496 208 l 372 208 l 372 157 l 704 157 l 704 278 l 869 278 l 869 104 l 744 104 l 744 -15 l 331 -15 z "},"ť":{"ha":954,"x_min":85,"x_max":968,"o":"m 331 -15 l 331 104 l 208 104 l 208 468 l 85 468 l 85 640 l 208 640 l 208 883 l 372 883 l 372 640 l 744 640 l 744 468 l 372 468 l 372 157 l 704 157 l 704 278 l 869 278 l 869 104 l 744 104 l 744 -15 l 331 -15 m 803 589 l 803 674 l 825 667 l 825 710 l 742 710 l 742 883 l 906 883 l 906 761 l 968 761 l 968 650 l 906 650 l 906 589 l 803 589 z "},"ţ":{"ha":954,"x_min":85,"x_max":869,"o":"m 331 -15 l 331 104 l 208 104 l 208 468 l 85 468 l 85 640 l 208 640 l 208 883 l 372 883 l 372 640 l 744 640 l 744 468 l 372 468 l 372 157 l 704 157 l 704 278 l 869 278 l 869 104 l 744 104 l 744 -15 l 331 -15 m 358 -268 l 358 -207 l 297 -207 l 297 -96 l 400 -96 l 400 -156 l 503 -156 l 503 -126 l 482 -124 l 482 -86 l 421 -86 l 421 36 l 564 36 l 564 -75 l 625 -75 l 625 -129 l 646 -147 l 646 -207 l 585 -207 l 585 -268 l 358 -268 z "},"ț":{"ha":954,"x_min":85,"x_max":869,"o":"m 331 -15 l 331 104 l 208 104 l 208 468 l 85 468 l 85 640 l 208 640 l 208 883 l 372 883 l 372 640 l 744 640 l 744 468 l 372 468 l 372 157 l 704 157 l 704 278 l 869 278 l 869 104 l 744 104 l 744 -15 l 331 -15 m 464 -358 l 464 -274 l 486 -272 l 486 -237 l 403 -237 l 403 -64 l 567 -64 l 567 -186 l 629 -186 l 629 -296 l 567 -296 l 567 -358 l 464 -358 z "},"u":{"ha":829,"x_min":85,"x_max":744,"o":"m 208 -15 l 208 104 l 85 104 l 85 640 l 249 640 l 249 157 l 579 157 l 579 640 l 744 640 l 744 104 l 619 104 l 619 -15 l 208 -15 z "},"ú":{"ha":829,"x_min":85,"x_max":744,"o":"m 208 -15 l 208 104 l 85 104 l 85 640 l 249 640 l 249 157 l 579 157 l 579 640 l 744 640 l 744 104 l 619 104 l 619 -15 l 208 -15 m 294 715 l 294 826 l 356 826 l 356 886 l 419 886 l 419 947 l 521 947 l 521 835 l 458 835 l 458 774 l 397 774 l 397 715 l 294 715 z "},"ŭ":{"ha":829,"x_min":85,"x_max":744,"o":"m 208 -15 l 208 104 l 85 104 l 85 640 l 249 640 l 249 157 l 579 157 l 579 640 l 744 640 l 744 104 l 619 104 l 619 -15 l 208 -15 m 235 715 l 235 889 l 336 889 l 336 828 l 492 828 l 492 889 l 592 889 l 592 715 l 235 715 z "},"û":{"ha":829,"x_min":85,"x_max":744,"o":"m 208 -15 l 208 104 l 85 104 l 85 640 l 249 640 l 249 157 l 579 157 l 579 640 l 744 640 l 744 104 l 619 104 l 619 -15 l 208 -15 m 303 715 l 303 826 l 365 826 l 365 889 l 468 889 l 468 826 l 529 826 l 529 715 l 426 715 l 426 776 l 404 776 l 404 715 l 303 715 z "},"ü":{"ha":829,"x_min":85,"x_max":744,"o":"m 208 -15 l 208 104 l 85 104 l 85 640 l 249 640 l 249 157 l 579 157 l 579 640 l 744 640 l 744 104 l 619 104 l 619 -15 l 208 -15 m 193 710 l 193 883 l 360 883 l 360 710 l 193 710 m 483 710 l 483 883 l 649 883 l 649 710 l 483 710 z "},"ù":{"ha":829,"x_min":85,"x_max":744,"o":"m 208 -15 l 208 104 l 85 104 l 85 640 l 249 640 l 249 157 l 579 157 l 579 640 l 744 640 l 744 104 l 619 104 l 619 -15 l 208 -15 m 365 715 l 365 774 l 303 774 l 303 835 l 242 835 l 242 947 l 343 947 l 343 886 l 406 886 l 406 826 l 468 826 l 468 715 l 365 715 z "},"ű":{"ha":829,"x_min":85,"x_max":744,"o":"m 208 -15 l 208 104 l 85 104 l 85 640 l 249 640 l 249 157 l 579 157 l 579 640 l 744 640 l 744 104 l 619 104 l 619 -15 l 208 -15 m 508 715 l 508 774 l 447 774 l 447 835 l 385 835 l 385 947 l 486 947 l 486 886 l 550 886 l 550 826 l 611 826 l 611 715 l 508 715 m 282 715 l 282 774 l 219 774 l 219 835 l 158 835 l 158 947 l 260 947 l 260 886 l 322 886 l 322 826 l 383 826 l 383 715 l 282 715 z "},"ū":{"ha":829,"x_min":85,"x_max":744,"o":"m 208 -15 l 208 104 l 85 104 l 85 640 l 249 640 l 249 157 l 579 157 l 579 640 l 744 640 l 744 104 l 619 104 l 619 -15 l 208 -15 m 210 715 l 210 879 l 621 879 l 621 715 l 210 715 z "},"ų":{"ha":829,"x_min":85,"x_max":744,"o":"m 208 -15 l 208 104 l 85 104 l 85 640 l 249 640 l 249 157 l 579 157 l 579 640 l 744 640 l 744 104 l 619 104 l 619 -15 l 208 -15 m 319 -274 l 319 -212 l 258 -212 l 258 -101 l 319 -101 l 319 -60 l 340 -61 l 340 49 l 485 49 l 485 -92 l 422 -92 l 422 -121 l 401 -129 l 401 -161 l 506 -161 l 506 -101 l 607 -101 l 607 -212 l 546 -212 l 546 -274 l 319 -274 z "},"ů":{"ha":829,"x_min":85,"x_max":744,"o":"m 208 -15 l 208 104 l 85 104 l 85 640 l 249 640 l 249 157 l 579 157 l 579 640 l 744 640 l 744 104 l 619 104 l 619 -15 l 208 -15 m 333 715 l 333 889 l 496 889 l 496 715 l 333 715 m 379 761 l 450 761 l 450 843 l 379 843 l 379 761 z "},"ũ":{"ha":829,"x_min":85,"x_max":744,"o":"m 208 -15 l 208 104 l 85 104 l 85 640 l 249 640 l 249 157 l 579 157 l 579 640 l 744 640 l 744 104 l 619 104 l 619 -15 l 208 -15 m 228 715 l 228 892 l 463 892 l 463 831 l 486 831 l 486 892 l 592 892 l 592 715 l 356 715 l 356 778 l 332 778 l 332 715 l 228 715 z "},"v":{"ha":815,"x_min":69,"x_max":731,"o":"m 318 -15 l 318 104 l 193 104 l 193 349 l 69 349 l 69 640 l 233 640 l 233 400 l 357 400 l 357 157 l 442 157 l 442 400 l 564 400 l 564 640 l 731 640 l 731 349 l 604 349 l 604 104 l 482 104 l 482 -15 l 318 -15 z "},"w":{"ha":1076,"x_min":85,"x_max":992,"o":"m 85 -15 l 85 640 l 249 640 l 249 157 l 456 157 l 456 640 l 619 640 l 619 157 l 829 157 l 829 640 l 992 640 l 992 104 l 869 104 l 869 -15 l 579 -15 l 579 104 l 497 104 l 497 -15 l 85 -15 z "},"ẃ":{"ha":1076,"x_min":85,"x_max":992,"o":"m 85 -15 l 85 640 l 249 640 l 249 157 l 456 157 l 456 640 l 619 640 l 619 157 l 829 157 l 829 640 l 992 640 l 992 104 l 869 104 l 869 -15 l 579 -15 l 579 104 l 497 104 l 497 -15 l 85 -15 m 418 715 l 418 826 l 479 826 l 479 886 l 543 886 l 543 947 l 644 947 l 644 835 l 582 835 l 582 774 l 521 774 l 521 715 l 418 715 z "},"ŵ":{"ha":1076,"x_min":85,"x_max":992,"o":"m 85 -15 l 85 640 l 249 640 l 249 157 l 456 157 l 456 640 l 619 640 l 619 157 l 829 157 l 829 640 l 992 640 l 992 104 l 869 104 l 869 -15 l 579 -15 l 579 104 l 497 104 l 497 -15 l 85 -15 m 426 715 l 426 826 l 489 826 l 489 889 l 592 889 l 592 826 l 653 826 l 653 715 l 550 715 l 550 776 l 528 776 l 528 715 l 426 715 z "},"ẅ":{"ha":1076,"x_min":85,"x_max":992,"o":"m 85 -15 l 85 640 l 249 640 l 249 157 l 456 157 l 456 640 l 619 640 l 619 157 l 829 157 l 829 640 l 992 640 l 992 104 l 869 104 l 869 -15 l 579 -15 l 579 104 l 497 104 l 497 -15 l 85 -15 m 317 710 l 317 883 l 483 883 l 483 710 l 317 710 m 607 710 l 607 883 l 772 883 l 772 710 l 607 710 z "},"ẁ":{"ha":1076,"x_min":85,"x_max":992,"o":"m 85 -15 l 85 640 l 249 640 l 249 157 l 456 157 l 456 640 l 619 640 l 619 157 l 829 157 l 829 640 l 992 640 l 992 104 l 869 104 l 869 -15 l 579 -15 l 579 104 l 497 104 l 497 -15 l 85 -15 m 489 715 l 489 774 l 426 774 l 426 835 l 365 835 l 365 947 l 467 947 l 467 886 l 529 886 l 529 826 l 592 826 l 592 715 l 489 715 z "},"x":{"ha":829,"x_min":85,"x_max":744,"o":"m 85 -15 l 85 157 l 208 157 l 208 278 l 331 278 l 331 349 l 208 349 l 208 468 l 85 468 l 85 640 l 249 640 l 249 519 l 372 519 l 372 400 l 456 400 l 456 519 l 579 519 l 579 640 l 744 640 l 744 468 l 619 468 l 619 349 l 497 349 l 497 278 l 619 278 l 619 157 l 744 157 l 744 -15 l 579 -15 l 579 104 l 456 104 l 456 226 l 372 226 l 372 104 l 249 104 l 249 -15 l 85 -15 z "},"y":{"ha":829,"x_min":85,"x_max":744,"o":"m 208 -258 l 208 -137 l 85 -137 l 85 35 l 249 35 l 249 -86 l 581 -86 l 581 104 l 208 104 l 208 226 l 85 226 l 85 640 l 249 640 l 249 278 l 581 278 l 581 640 l 744 640 l 744 -137 l 621 -137 l 621 -258 l 208 -258 z "},"ý":{"ha":829,"x_min":85,"x_max":744,"o":"m 208 -258 l 208 -137 l 85 -137 l 85 35 l 249 35 l 249 -86 l 581 -86 l 581 104 l 208 104 l 208 226 l 85 226 l 85 640 l 249 640 l 249 278 l 581 278 l 581 640 l 744 640 l 744 -137 l 621 -137 l 621 -258 l 208 -258 m 294 715 l 294 826 l 356 826 l 356 886 l 419 886 l 419 947 l 521 947 l 521 835 l 458 835 l 458 774 l 397 774 l 397 715 l 294 715 z "},"ŷ":{"ha":829,"x_min":85,"x_max":744,"o":"m 208 -258 l 208 -137 l 85 -137 l 85 35 l 249 35 l 249 -86 l 581 -86 l 581 104 l 208 104 l 208 226 l 85 226 l 85 640 l 249 640 l 249 278 l 581 278 l 581 640 l 744 640 l 744 -137 l 621 -137 l 621 -258 l 208 -258 m 303 715 l 303 826 l 365 826 l 365 889 l 468 889 l 468 826 l 529 826 l 529 715 l 426 715 l 426 776 l 404 776 l 404 715 l 303 715 z "},"ÿ":{"ha":829,"x_min":85,"x_max":744,"o":"m 208 -258 l 208 -137 l 85 -137 l 85 35 l 249 35 l 249 -86 l 581 -86 l 581 104 l 208 104 l 208 226 l 85 226 l 85 640 l 249 640 l 249 278 l 581 278 l 581 640 l 744 640 l 744 -137 l 621 -137 l 621 -258 l 208 -258 m 193 710 l 193 883 l 360 883 l 360 710 l 193 710 m 483 710 l 483 883 l 649 883 l 649 710 l 483 710 z "},"ỳ":{"ha":829,"x_min":85,"x_max":744,"o":"m 208 -258 l 208 -137 l 85 -137 l 85 35 l 249 35 l 249 -86 l 581 -86 l 581 104 l 208 104 l 208 226 l 85 226 l 85 640 l 249 640 l 249 278 l 581 278 l 581 640 l 744 640 l 744 -137 l 621 -137 l 621 -258 l 208 -258 m 365 715 l 365 774 l 303 774 l 303 835 l 242 835 l 242 947 l 343 947 l 343 886 l 406 886 l 406 826 l 468 826 l 468 715 l 365 715 z "},"z":{"ha":829,"x_min":85,"x_max":744,"o":"m 85 -15 l 85 157 l 208 157 l 208 278 l 331 278 l 331 400 l 456 400 l 456 468 l 85 468 l 85 640 l 744 640 l 744 468 l 619 468 l 619 349 l 497 349 l 497 226 l 372 226 l 372 157 l 744 157 l 744 -15 l 85 -15 z "},"ź":{"ha":829,"x_min":85,"x_max":744,"o":"m 85 -15 l 85 157 l 208 157 l 208 278 l 331 278 l 331 400 l 456 400 l 456 468 l 85 468 l 85 640 l 744 640 l 744 468 l 619 468 l 619 349 l 497 349 l 497 226 l 372 226 l 372 157 l 744 157 l 744 -15 l 85 -15 m 294 715 l 294 826 l 356 826 l 356 886 l 419 886 l 419 947 l 521 947 l 521 835 l 458 835 l 458 774 l 397 774 l 397 715 l 294 715 z "},"ž":{"ha":829,"x_min":85,"x_max":744,"o":"m 85 -15 l 85 157 l 208 157 l 208 278 l 331 278 l 331 400 l 456 400 l 456 468 l 85 468 l 85 640 l 744 640 l 744 468 l 619 468 l 619 349 l 497 349 l 497 226 l 372 226 l 372 157 l 744 157 l 744 -15 l 85 -15 m 365 715 l 365 776 l 303 776 l 303 889 l 404 889 l 404 828 l 426 828 l 426 889 l 529 889 l 529 776 l 468 776 l 468 715 l 365 715 z "},"ż":{"ha":829,"x_min":85,"x_max":744,"o":"m 85 -15 l 85 157 l 208 157 l 208 278 l 331 278 l 331 400 l 456 400 l 456 468 l 85 468 l 85 640 l 744 640 l 744 468 l 619 468 l 619 349 l 497 349 l 497 226 l 372 226 l 372 157 l 744 157 l 744 -15 l 85 -15 m 333 715 l 333 889 l 500 889 l 500 715 l 333 715 z "},"ﬀ":{"ha":1325,"x_min":85,"x_max":1240,"o":"m 85 -15 l 85 761 l 208 761 l 208 883 l 619 883 l 619 761 l 704 761 l 704 883 l 1117 883 l 1117 761 l 1240 761 l 1240 589 l 1075 589 l 1075 710 l 744 710 l 744 519 l 992 519 l 992 349 l 744 349 l 744 -15 l 579 -15 l 579 710 l 249 710 l 249 519 l 497 519 l 497 349 l 249 349 l 249 -15 l 85 -15 z "},"ﬃ":{"ha":1325,"x_min":85,"x_max":1240,"o":"m 85 -15 l 85 761 l 208 761 l 208 883 l 619 883 l 619 761 l 704 761 l 704 883 l 1117 883 l 1117 761 l 1240 761 l 1240 589 l 1075 589 l 1075 710 l 744 710 l 744 519 l 1240 519 l 1240 -15 l 1074 -15 l 1074 349 l 744 349 l 744 -15 l 579 -15 l 579 710 l 249 710 l 249 519 l 497 519 l 497 349 l 249 349 l 249 -15 l 85 -15 z "},"ﬄ":{"ha":1325,"x_min":85,"x_max":1240,"o":"m 85 -15 l 85 761 l 208 761 l 208 883 l 619 883 l 619 761 l 704 761 l 704 883 l 1117 883 l 1117 761 l 1240 761 l 1240 -15 l 1075 -15 l 1075 710 l 744 710 l 744 519 l 992 519 l 992 349 l 744 349 l 744 -15 l 579 -15 l 579 710 l 249 710 l 249 519 l 497 519 l 497 349 l 249 349 l 249 -15 l 85 -15 z "},"ﬁ":{"ha":829,"x_min":85,"x_max":744,"o":"m 85 -15 l 85 761 l 208 761 l 208 883 l 619 883 l 619 761 l 744 761 l 744 589 l 579 589 l 579 710 l 249 710 l 249 519 l 744 519 l 744 -15 l 579 -15 l 579 349 l 249 349 l 249 -15 l 85 -15 z "},"ﬂ":{"ha":829,"x_min":85,"x_max":744,"o":"m 85 -15 l 85 761 l 208 761 l 208 883 l 619 883 l 619 761 l 744 761 l 744 -15 l 579 -15 l 579 710 l 249 710 l 249 519 l 497 519 l 497 349 l 249 349 l 249 -15 l 85 -15 z "},"ﬆ":{"ha":1563,"x_min":85,"x_max":1478,"o":"m 85 -15 l 85 157 l 579 157 l 579 226 l 208 226 l 208 349 l 85 349 l 85 519 l 208 519 l 208 640 l 818 640 l 818 883 l 982 883 l 982 640 l 1354 640 l 1354 468 l 982 468 l 982 157 l 1314 157 l 1314 278 l 1478 278 l 1478 104 l 1354 104 l 1354 -15 l 942 -15 l 942 104 l 818 104 l 818 468 l 249 468 l 249 400 l 619 400 l 619 278 l 744 278 l 744 104 l 619 104 l 619 -15 l 85 -15 z "},"ª":{"ha":563,"x_min":85,"x_max":478,"o":"m 147 554 l 147 614 l 85 614 l 85 822 l 147 822 l 147 883 l 353 883 l 353 822 l 415 822 l 415 640 l 478 640 l 478 554 l 396 554 l 396 614 l 353 614 l 353 554 l 147 554 m 167 640 l 332 640 l 332 797 l 167 797 l 167 640 m 353 425 l 353 513 l 147 513 l 147 425 l 353 425 z "},"º":{"ha":500,"x_min":85,"x_max":415,"o":"m 147 615 l 147 556 l 353 556 l 353 615 l 415 615 l 415 824 l 353 824 l 353 883 l 147 883 l 147 824 l 85 824 l 85 615 l 147 615 m 167 797 l 332 797 l 332 642 l 167 642 l 167 797 m 353 425 l 353 513 l 147 513 l 147 425 l 353 425 z "},"А":{"ha":829,"x_min":85,"x_max":744,"o":"m 85 -15 l 85 640 l 208 640 l 208 761 l 331 761 l 331 883 l 497 883 l 497 761 l 619 761 l 619 640 l 744 640 l 744 -15 l 579 -15 l 579 226 l 249 226 l 249 -15 l 85 -15 m 249 400 l 579 400 l 579 589 l 456 589 l 456 710 l 372 710 l 372 589 l 249 589 l 249 400 z "},"Б":{"ha":829,"x_min":85,"x_max":744,"o":"m 208 -15 l 208 104 l 85 104 l 85 883 l 619 883 l 619 761 l 744 761 l 744 589 l 579 589 l 579 710 l 249 710 l 249 519 l 619 519 l 619 400 l 744 400 l 744 104 l 619 104 l 619 -15 l 208 -15 m 249 157 l 579 157 l 579 349 l 249 349 l 249 157 z "},"В":{"ha":829,"x_min":85,"x_max":744,"o":"m 208 -15 l 208 104 l 85 104 l 85 761 l 208 761 l 208 883 l 619 883 l 619 761 l 744 761 l 744 468 l 619 468 l 619 400 l 744 400 l 744 104 l 619 104 l 619 -15 l 208 -15 m 249 157 l 579 157 l 579 349 l 331 349 l 331 519 l 579 519 l 579 710 l 249 710 l 249 157 z "},"Г":{"ha":704,"x_min":85,"x_max":619,"o":"m 85 -15 l 85 881 l 619 881 l 619 707 l 249 707 l 249 -15 l 85 -15 z "},"Ѓ":{"ha":704,"x_min":85,"x_max":619,"o":"m 85 -15 l 85 881 l 619 881 l 619 707 l 249 707 l 249 -15 l 85 -15 z "},"Ґ":{"ha":704,"x_min":85,"x_max":619,"o":"m 85 -15 l 85 881 l 456 881 l 456 976 l 619 976 l 619 707 l 249 707 l 249 -15 l 85 -15 z "},"Д":{"ha":953,"x_min":85,"x_max":868,"o":"m 85 -15 l 85 401 l 207 401 l 207 881 l 868 881 l 868 -15 l 703 -15 l 703 106 l 249 106 l 249 -15 l 85 -15 m 372 279 l 703 279 l 703 707 l 372 707 l 372 279 z "},"Е":{"ha":829,"x_min":85,"x_max":744,"o":"m 208 -15 l 208 104 l 85 104 l 85 761 l 208 761 l 208 883 l 619 883 l 619 761 l 744 761 l 744 589 l 579 589 l 579 710 l 249 710 l 249 519 l 497 519 l 497 349 l 249 349 l 249 157 l 579 157 l 579 278 l 744 278 l 744 104 l 619 104 l 619 -15 l 208 -15 z "},"Ё":{"ha":829,"x_min":85,"x_max":744,"o":"m 208 -15 l 208 104 l 85 104 l 85 761 l 208 761 l 208 883 l 619 883 l 619 761 l 744 761 l 744 589 l 579 589 l 579 710 l 249 710 l 249 519 l 497 519 l 497 349 l 249 349 l 249 157 l 579 157 l 579 278 l 744 278 l 744 104 l 619 104 l 619 -15 l 208 -15 m 229 904 l 229 1078 l 331 1078 l 331 904 l 229 904 m 500 904 l 500 1078 l 600 1078 l 600 904 l 500 904 z "},"Ж":{"ha":1325,"x_min":85,"x_max":1240,"o":"m 85 -15 l 85 158 l 208 158 l 208 278 l 331 278 l 331 400 l 456 400 l 456 468 l 331 468 l 331 589 l 208 589 l 208 710 l 85 710 l 85 883 l 249 883 l 249 761 l 371 761 l 371 640 l 497 640 l 497 519 l 579 519 l 579 883 l 744 883 l 744 519 l 828 519 l 828 640 l 953 640 l 953 761 l 1075 761 l 1075 883 l 1240 883 l 1240 710 l 1115 710 l 1115 589 l 992 589 l 992 468 l 868 468 l 868 400 l 992 400 l 992 278 l 1115 278 l 1115 158 l 1240 158 l 1240 -15 l 1075 -15 l 1075 106 l 953 106 l 953 226 l 828 226 l 828 349 l 744 349 l 744 -15 l 579 -15 l 579 349 l 497 349 l 497 226 l 371 226 l 371 106 l 249 106 l 249 -15 l 85 -15 z "},"З":{"ha":829,"x_min":85,"x_max":744,"o":"m 208 -15 l 208 104 l 85 104 l 85 278 l 249 278 l 249 157 l 579 157 l 579 349 l 208 349 l 208 519 l 579 519 l 579 710 l 249 710 l 249 589 l 85 589 l 85 761 l 208 761 l 208 883 l 619 883 l 619 761 l 744 761 l 744 468 l 619 468 l 619 400 l 744 400 l 744 104 l 619 104 l 619 -15 l 208 -15 z "},"И":{"ha":829,"x_min":85,"x_max":744,"o":"m 85 -15 l 85 883 l 249 883 l 249 278 l 331 278 l 331 640 l 457 640 l 457 761 l 579 761 l 579 883 l 744 883 l 744 -15 l 579 -15 l 579 589 l 497 589 l 497 226 l 371 226 l 371 104 l 249 104 l 249 -15 l 85 -15 z "},"Й":{"ha":829,"x_min":85,"x_max":744,"o":"m 85 -15 l 85 883 l 249 883 l 249 278 l 331 278 l 331 640 l 457 640 l 457 761 l 579 761 l 579 883 l 744 883 l 744 -15 l 579 -15 l 579 589 l 497 589 l 497 226 l 371 226 l 371 104 l 249 104 l 249 -15 l 85 -15 m 233 925 l 233 1099 l 335 1099 l 335 1038 l 490 1038 l 490 1099 l 590 1099 l 590 925 l 233 925 z "},"К":{"ha":829,"x_min":85,"x_max":744,"o":"m 85 -15 l 85 761 l 208 761 l 208 883 l 372 883 l 372 710 l 249 710 l 249 519 l 331 519 l 331 640 l 457 640 l 457 761 l 579 761 l 579 883 l 744 883 l 744 710 l 619 710 l 619 589 l 497 589 l 497 468 l 372 468 l 372 400 l 497 400 l 497 278 l 619 278 l 619 157 l 744 157 l 744 -15 l 579 -15 l 579 104 l 457 104 l 457 226 l 331 226 l 331 349 l 249 349 l 249 -15 l 85 -15 m 361 925 l 361 1038 l 422 1038 l 422 1099 l 483 1099 l 483 1158 l 583 1158 l 583 1046 l 525 1046 l 525 986 l 463 986 l 463 925 l 361 925 z "},"Ќ":{"ha":829,"x_min":85,"x_max":744,"o":"m 85 -15 l 85 761 l 208 761 l 208 883 l 372 883 l 372 710 l 249 710 l 249 519 l 331 519 l 331 640 l 457 640 l 457 761 l 579 761 l 579 883 l 744 883 l 744 710 l 619 710 l 619 589 l 497 589 l 497 468 l 372 468 l 372 400 l 497 400 l 497 278 l 619 278 l 619 157 l 744 157 l 744 -15 l 579 -15 l 579 104 l 457 104 l 457 226 l 331 226 l 331 349 l 249 349 l 249 -15 l 85 -15 z "},"Л":{"ha":953,"x_min":85,"x_max":868,"o":"m 85 -15 l 85 158 l 207 158 l 207 881 l 868 881 l 868 -15 l 703 -15 l 703 707 l 372 707 l 372 -15 l 85 -15 z "},"М":{"ha":1076,"x_min":85,"x_max":992,"o":"m 85 -15 l 85 761 l 208 761 l 208 883 l 372 883 l 372 761 l 497 761 l 497 519 l 579 519 l 579 761 l 704 761 l 704 883 l 869 883 l 869 761 l 992 761 l 992 -15 l 829 -15 l 829 710 l 744 710 l 744 468 l 619 468 l 619 104 l 456 104 l 456 468 l 331 468 l 331 710 l 249 710 l 249 -15 l 85 -15 z "},"Н":{"ha":829,"x_min":85,"x_max":744,"o":"m 85 -15 l 85 883 l 249 883 l 249 519 l 579 519 l 579 883 l 744 883 l 744 -15 l 579 -15 l 579 349 l 249 349 l 249 -15 l 85 -15 z "},"Р":{"ha":829,"x_min":85,"x_max":744,"o":"m 85 -15 l 85 761 l 208 761 l 208 883 l 619 883 l 619 761 l 744 761 l 744 349 l 619 349 l 619 226 l 249 226 l 249 -15 l 85 -15 m 249 400 l 579 400 l 579 710 l 249 710 l 249 400 z "},"С":{"ha":829,"x_min":85,"x_max":744,"o":"m 208 -15 l 208 104 l 85 104 l 85 761 l 208 761 l 208 883 l 619 883 l 619 761 l 744 761 l 744 468 l 579 468 l 579 710 l 249 710 l 249 157 l 579 157 l 579 400 l 744 400 l 744 104 l 619 104 l 619 -15 l 208 -15 z "},"Т":{"ha":829,"x_min":85,"x_max":744,"o":"m 331 -15 l 331 710 l 249 710 l 249 589 l 85 589 l 85 761 l 208 761 l 208 883 l 619 883 l 619 761 l 744 761 l 744 589 l 579 589 l 579 710 l 497 710 l 497 -15 l 331 -15 z "},"У":{"ha":829,"x_min":85,"x_max":744,"o":"m 331 -15 l 331 468 l 208 468 l 208 589 l 85 589 l 85 883 l 249 883 l 249 640 l 372 640 l 372 519 l 456 519 l 456 640 l 579 640 l 579 883 l 744 883 l 744 589 l 619 589 l 619 468 l 497 468 l 497 -15 l 331 -15 z "},"Ў":{"ha":829,"x_min":85,"x_max":744,"o":"m 331 -15 l 331 468 l 208 468 l 208 589 l 85 589 l 85 883 l 249 883 l 249 640 l 372 640 l 372 519 l 456 519 l 456 640 l 579 640 l 579 883 l 744 883 l 744 589 l 619 589 l 619 468 l 497 468 l 497 -15 l 331 -15 m 233 925 l 233 1099 l 335 1099 l 335 1038 l 504 1038 l 504 1099 l 604 1099 l 604 925 l 233 925 z "},"Ф":{"ha":829,"x_min":85,"x_max":744,"o":"m 326 -15 l 326 103 l 208 103 l 208 224 l 85 224 l 85 638 l 208 638 l 208 760 l 326 760 l 326 883 l 493 883 l 493 760 l 619 760 l 619 638 l 744 638 l 744 224 l 619 224 l 619 103 l 493 103 l 493 -15 l 326 -15 m 249 275 l 326 275 l 326 586 l 249 586 l 249 275 m 493 275 l 579 275 l 579 586 l 493 586 l 493 275 z "},"Х":{"ha":829,"x_min":85,"x_max":744,"o":"m 85 -15 l 85 157 l 208 157 l 208 400 l 331 400 l 331 468 l 208 468 l 208 710 l 85 710 l 85 883 l 249 883 l 249 761 l 372 761 l 372 519 l 456 519 l 456 761 l 579 761 l 579 883 l 744 883 l 744 710 l 619 710 l 619 468 l 497 468 l 497 400 l 619 400 l 619 157 l 744 157 l 744 -15 l 579 -15 l 579 104 l 456 104 l 456 349 l 372 349 l 372 104 l 249 104 l 249 -15 l 85 -15 z "},"Ч":{"ha":829,"x_min":85,"x_max":744,"o":"m 581 -17 l 581 346 l 208 346 l 208 467 l 85 467 l 85 882 l 249 882 l 249 518 l 581 518 l 581 882 l 744 882 l 744 -17 l 581 -17 z "},"Ц":{"ha":829,"x_min":85,"x_max":806,"o":"m 642 -136 l 642 -71 l 663 -71 l 663 -15 l 85 -15 l 85 881 l 249 881 l 249 158 l 579 158 l 579 881 l 744 881 l 744 36 l 806 36 l 806 -75 l 744 -75 l 744 -136 l 642 -136 z "},"Ш":{"ha":1076,"x_min":85,"x_max":992,"o":"m 208 -15 l 208 104 l 85 104 l 85 883 l 249 883 l 249 157 l 331 157 l 331 400 l 456 400 l 456 761 l 619 761 l 619 400 l 744 400 l 744 157 l 829 157 l 829 883 l 992 883 l 992 104 l 869 104 l 869 -15 l 704 -15 l 704 104 l 579 104 l 579 349 l 497 349 l 497 104 l 372 104 l 372 -15 l 208 -15 z "},"Щ":{"ha":1075,"x_min":85,"x_max":1053,"o":"m 889 -136 l 889 -71 l 911 -71 l 911 -15 l 704 -15 l 704 104 l 579 104 l 579 349 l 497 349 l 497 104 l 372 104 l 372 -15 l 208 -15 l 208 104 l 85 104 l 85 883 l 249 883 l 249 157 l 331 157 l 331 400 l 456 400 l 456 761 l 619 761 l 619 400 l 744 400 l 744 157 l 829 157 l 829 883 l 992 883 l 992 36 l 1053 36 l 1053 -75 l 992 -75 l 992 -136 l 889 -136 z "},"Џ":{"ha":829,"x_min":85,"x_max":744,"o":"m 329 -137 l 329 -15 l 85 -15 l 85 882 l 249 882 l 249 158 l 579 158 l 579 882 l 744 882 l 744 -15 l 494 -15 l 494 -137 l 329 -137 z "},"Ь":{"ha":829,"x_min":85,"x_max":744,"o":"m 208 -15 l 208 104 l 85 104 l 85 883 l 249 883 l 249 640 l 619 640 l 619 519 l 744 519 l 744 104 l 619 104 l 619 -15 l 208 -15 m 249 157 l 579 157 l 579 468 l 249 468 l 249 157 z "},"Ы":{"ha":1076,"x_min":85,"x_max":992,"o":"m 208 -15 l 208 104 l 85 104 l 85 883 l 249 883 l 249 518 l 619 518 l 619 397 l 744 397 l 744 104 l 619 104 l 619 -15 l 208 -15 m 249 157 l 579 157 l 579 346 l 249 346 l 249 157 m 828 -15 l 828 640 l 992 640 l 992 -15 l 828 -15 z "},"Ъ":{"ha":825,"x_min":-54,"x_max":742,"o":"m 206 -15 l 206 104 l 82 104 l 82 710 l -54 710 l -54 883 l 383 883 l 383 710 l 246 710 l 246 640 l 617 640 l 617 519 l 742 519 l 742 104 l 617 104 l 617 -15 l 206 -15 m 246 157 l 576 157 l 576 468 l 246 468 l 246 157 z "},"Љ":{"ha":953,"x_min":85,"x_max":868,"o":"m 85 -15 l 85 158 l 207 158 l 207 881 l 868 881 l 868 -15 l 703 -15 l 703 707 l 372 707 l 372 -15 l 85 -15 z "},"Њ":{"ha":1325,"x_min":85,"x_max":1240,"o":"m 85 -15 l 85 883 l 249 883 l 249 519 l 579 519 l 579 883 l 744 883 l 744 640 l 1115 640 l 1115 519 l 1240 519 l 1240 104 l 1117 104 l 1117 -15 l 579 -15 l 579 349 l 249 349 l 249 -15 l 85 -15 m 744 157 l 1075 157 l 1075 468 l 744 468 l 744 157 z "},"Ѕ":{"ha":829,"x_min":85,"x_max":744,"o":"m 85 -15 l 85 157 l 579 157 l 579 226 l 208 226 l 208 349 l 85 349 l 85 519 l 208 519 l 208 640 l 744 640 l 744 468 l 249 468 l 249 400 l 619 400 l 619 278 l 744 278 l 744 104 l 619 104 l 619 -15 l 85 -15 z "},"Є":{"ha":829,"x_min":85,"x_max":744,"o":"m 208 -15 l 208 104 l 85 104 l 85 400 l 208 400 l 208 468 l 85 468 l 85 761 l 208 761 l 208 883 l 619 883 l 619 761 l 744 761 l 744 589 l 579 589 l 579 710 l 249 710 l 249 519 l 619 519 l 619 349 l 249 349 l 249 157 l 579 157 l 579 278 l 744 278 l 744 104 l 619 104 l 619 -15 l 208 -15 z "},"Э":{"ha":829,"x_min":85,"x_max":744,"o":"m 208 -15 l 208 104 l 85 104 l 85 278 l 249 278 l 249 157 l 579 157 l 579 349 l 208 349 l 208 519 l 579 519 l 579 710 l 249 710 l 249 589 l 85 589 l 85 761 l 208 761 l 208 883 l 619 883 l 619 761 l 744 761 l 744 468 l 619 468 l 619 400 l 744 400 l 744 104 l 619 104 l 619 -15 l 208 -15 z "},"Ї":{"ha":408,"x_min":-28,"x_max":435,"o":"m 121 -15 l 121 639 l 286 639 l 286 -15 l 121 -15 m -28 708 l -28 882 l 138 882 l 138 708 l -28 708 m 271 708 l 271 882 l 435 882 l 435 708 l 271 708 z "},"Ј":{"ha":829,"x_min":85,"x_max":744,"o":"m 208 -15 l 208 104 l 85 104 l 85 400 l 249 400 l 249 157 l 579 157 l 579 710 l 208 710 l 208 883 l 619 883 l 619 761 l 744 761 l 744 104 l 619 104 l 619 -15 l 208 -15 z "},"Ћ":{"ha":825,"x_min":-54,"x_max":742,"o":"m 82 -15 l 82 707 l -54 707 l -54 881 l 383 881 l 383 707 l 246 707 l 246 519 l 328 519 l 328 640 l 617 640 l 617 519 l 742 519 l 742 -15 l 576 -15 l 576 468 l 369 468 l 369 349 l 246 349 l 246 -15 l 82 -15 z "},"Ю":{"ha":1190,"x_min":85,"x_max":1106,"o":"m 85 -15 l 85 883 l 249 883 l 249 519 l 443 519 l 443 761 l 568 761 l 568 883 l 981 883 l 981 761 l 1106 761 l 1106 104 l 981 104 l 981 -15 l 568 -15 l 568 104 l 443 104 l 443 349 l 249 349 l 249 -15 l 85 -15 m 608 157 l 940 157 l 940 710 l 608 710 l 608 157 z "},"Я":{"ha":829,"x_min":85,"x_max":744,"o":"m 146 -15 l 146 157 l 269 157 l 269 226 l 208 226 l 208 349 l 85 349 l 85 761 l 208 761 l 208 883 l 619 883 l 619 761 l 744 761 l 744 -15 l 579 -15 l 579 226 l 433 226 l 433 104 l 310 104 l 310 -15 l 146 -15 m 249 400 l 579 400 l 579 710 l 249 710 l 249 400 z "},"Ђ":{"ha":825,"x_min":-54,"x_max":742,"o":"m 206 -15 l 206 104 l 82 104 l 82 710 l -54 710 l -54 883 l 383 883 l 383 710 l 246 710 l 246 640 l 617 640 l 617 519 l 742 519 l 742 104 l 617 104 l 617 -15 l 206 -15 m 246 157 l 576 157 l 576 468 l 246 468 l 246 157 z "},"а":{"ha":974,"x_min":83,"x_max":874,"o":"m 208 -17 l 208 106 l 83 106 l 83 436 l 582 436 l 582 474 l 83 474 l 83 632 l 622 632 l 622 508 l 750 508 l 750 140 l 874 140 l 874 -17 l 708 -17 l 708 106 l 622 106 l 622 -17 l 208 -17 m 250 140 l 582 140 l 582 278 l 250 278 l 250 140 z "},"б":{"ha":829,"x_min":85,"x_max":744,"o":"m 208 -15 l 208 104 l 85 104 l 85 761 l 208 761 l 208 883 l 619 883 l 619 761 l 744 761 l 744 589 l 579 589 l 579 710 l 249 710 l 249 519 l 619 519 l 619 400 l 744 400 l 744 104 l 619 104 l 619 -15 l 208 -15 m 249 157 l 579 157 l 579 349 l 249 349 l 249 157 z "},"в":{"ha":829,"x_min":85,"x_max":744,"o":"m 208 -15 l 208 104 l 85 104 l 85 519 l 208 519 l 208 640 l 619 640 l 619 519 l 744 519 l 744 346 l 619 346 l 619 276 l 744 276 l 744 104 l 619 104 l 619 -15 l 208 -15 m 249 157 l 579 157 l 579 225 l 331 225 l 331 397 l 579 397 l 579 468 l 249 468 l 249 157 z "},"г":{"ha":704,"x_min":85,"x_max":619,"o":"m 85 -15 l 85 640 l 619 640 l 619 468 l 249 468 l 249 -15 l 85 -15 z "},"ѓ":{"ha":829,"x_min":85,"x_max":744,"o":"m 85 -15 l 85 519 l 208 519 l 208 640 l 619 640 l 619 519 l 744 519 l 744 349 l 579 349 l 579 468 l 249 468 l 249 -15 l 85 -15 m 303 722 l 303 835 l 364 835 l 364 896 l 425 896 l 425 957 l 526 957 l 526 844 l 465 844 l 465 783 l 404 783 l 404 722 l 303 722 z "},"ґ":{"ha":829,"x_min":85,"x_max":744,"o":"m 331 -15 l 331 468 l 208 468 l 208 589 l 85 589 l 85 883 l 249 883 l 249 640 l 372 640 l 372 519 l 456 519 l 456 640 l 579 640 l 579 883 l 744 883 l 744 589 l 619 589 l 619 468 l 497 468 l 497 -15 l 331 -15 z "},"д":{"ha":953,"x_min":85,"x_max":868,"o":"m 85 -15 l 85 401 l 207 401 l 207 640 l 868 640 l 868 -15 l 703 -15 l 703 106 l 249 106 l 249 -15 l 85 -15 m 372 279 l 703 279 l 703 468 l 372 468 l 372 279 z "},"е":{"ha":829,"x_min":85,"x_max":744,"o":"m 208 -15 l 208 104 l 85 104 l 85 519 l 208 519 l 208 640 l 619 640 l 619 519 l 744 519 l 744 349 l 579 349 l 579 468 l 249 468 l 249 400 l 497 400 l 497 226 l 249 226 l 249 157 l 579 157 l 579 279 l 744 279 l 744 106 l 619 106 l 619 -15 l 208 -15 z "},"ё":{"ha":829,"x_min":85,"x_max":744,"o":"m 208 -15 l 208 104 l 85 104 l 85 519 l 208 519 l 208 640 l 619 640 l 619 519 l 744 519 l 744 349 l 579 349 l 579 468 l 249 468 l 249 400 l 497 400 l 497 226 l 249 226 l 249 157 l 579 157 l 579 279 l 744 279 l 744 106 l 619 106 l 619 -15 l 208 -15 m 185 739 l 185 913 l 351 913 l 351 739 l 185 739 m 475 739 l 475 913 l 640 913 l 640 739 l 475 739 z "},"ж":{"ha":1067,"x_min":85,"x_max":983,"o":"m 85 -15 l 85 115 l 164 115 l 164 196 l 247 196 l 247 265 l 326 265 l 326 360 l 246 360 l 246 439 l 163 439 l 163 518 l 85 518 l 85 640 l 204 640 l 204 569 l 288 569 l 288 490 l 368 490 l 368 410 l 450 410 l 450 640 l 615 640 l 615 410 l 699 410 l 699 490 l 779 490 l 779 569 l 863 569 l 863 640 l 983 640 l 983 518 l 903 518 l 903 439 l 819 439 l 819 360 l 739 360 l 739 265 l 819 265 l 819 196 l 901 196 l 901 115 l 983 115 l 983 -15 l 861 -15 l 861 63 l 778 63 l 778 143 l 699 143 l 699 214 l 615 214 l 615 -15 l 450 -15 l 450 214 l 368 214 l 368 143 l 289 143 l 289 64 l 206 64 l 206 -15 l 85 -15 z "},"з":{"ha":829,"x_min":85,"x_max":744,"o":"m 208 -15 l 208 106 l 85 106 l 85 279 l 249 279 l 249 157 l 579 157 l 579 226 l 331 226 l 331 400 l 579 400 l 579 468 l 249 468 l 249 349 l 85 349 l 85 519 l 208 519 l 208 640 l 619 640 l 619 519 l 744 519 l 744 104 l 619 104 l 619 -15 l 208 -15 z "},"и":{"ha":788,"x_min":85,"x_max":744,"o":"m 85 -15 l 85 640 l 249 640 l 249 278 l 331 278 l 331 400 l 457 400 l 457 519 l 579 519 l 579 640 l 744 640 l 744 -15 l 579 -15 l 579 349 l 497 349 l 497 226 l 371 226 l 371 104 l 249 104 l 249 -15 l 85 -15 z "},"й":{"ha":829,"x_min":85,"x_max":744,"o":"m 85 -15 l 85 642 l 249 642 l 249 278 l 331 278 l 331 401 l 457 401 l 457 521 l 579 521 l 579 642 l 744 642 l 744 -15 l 579 -15 l 579 350 l 497 350 l 497 226 l 371 226 l 371 104 l 249 104 l 249 -15 l 85 -15 m 246 683 l 246 857 l 349 857 l 349 797 l 490 797 l 490 857 l 590 857 l 590 683 l 246 683 z "},"к":{"ha":829,"x_min":85,"x_max":744,"o":"m 85 -15 l 85 640 l 249 640 l 249 400 l 331 400 l 331 519 l 579 519 l 579 640 l 744 640 l 744 468 l 619 468 l 619 349 l 372 349 l 372 278 l 619 278 l 619 157 l 744 157 l 744 -15 l 579 -15 l 579 104 l 331 104 l 331 226 l 249 226 l 249 -15 l 85 -15 z "},"ќ":{"ha":829,"x_min":85,"x_max":744,"o":"m 85 -15 l 85 640 l 249 640 l 249 400 l 331 400 l 331 519 l 579 519 l 579 640 l 744 640 l 744 468 l 619 468 l 619 349 l 372 349 l 372 278 l 619 278 l 619 157 l 744 157 l 744 -15 l 579 -15 l 579 104 l 331 104 l 331 226 l 249 226 l 249 -15 l 85 -15 m 303 722 l 303 835 l 364 835 l 364 896 l 425 896 l 425 957 l 526 957 l 526 844 l 465 844 l 465 783 l 404 783 l 404 722 l 303 722 z "},"л":{"ha":953,"x_min":85,"x_max":868,"o":"m 85 -15 l 85 158 l 207 158 l 207 639 l 868 639 l 868 -15 l 703 -15 l 703 467 l 372 467 l 372 -15 l 85 -15 z "},"м":{"ha":1076,"x_min":85,"x_max":992,"o":"m 85 -15 l 85 519 l 208 519 l 208 640 l 372 640 l 372 519 l 497 519 l 497 278 l 579 278 l 579 519 l 704 519 l 704 640 l 869 640 l 869 519 l 992 519 l 992 -15 l 829 -15 l 829 468 l 744 468 l 744 226 l 619 226 l 619 104 l 456 104 l 456 226 l 331 226 l 331 468 l 249 468 l 249 -15 l 85 -15 z "},"н":{"ha":829,"x_min":85,"x_max":744,"o":"m 85 -15 l 85 642 l 249 642 l 249 385 l 579 385 l 579 642 l 744 642 l 744 -15 l 579 -15 l 579 213 l 249 213 l 249 -15 l 85 -15 z "},"о":{"ha":829,"x_min":85,"x_max":744,"o":"m 208 -15 l 208 104 l 85 104 l 85 519 l 208 519 l 208 640 l 619 640 l 619 519 l 744 519 l 744 104 l 619 104 l 619 -15 l 208 -15 m 249 157 l 579 157 l 579 468 l 249 468 l 249 157 z "},"п":{"ha":829,"x_min":85,"x_max":744,"o":"m 85 -15 l 85 640 l 744 640 l 744 -15 l 579 -15 l 579 468 l 249 468 l 249 -15 l 85 -15 z "},"р":{"ha":829,"x_min":85,"x_max":744,"o":"m 85 -251 l 85 519 l 208 519 l 208 640 l 619 640 l 619 519 l 744 519 l 744 104 l 619 104 l 619 -15 l 249 -15 l 249 -251 l 85 -251 m 249 157 l 579 157 l 579 468 l 249 468 l 249 157 z "},"с":{"ha":829,"x_min":85,"x_max":744,"o":"m 208 -15 l 208 104 l 85 104 l 85 519 l 208 519 l 208 640 l 619 640 l 619 519 l 744 519 l 744 349 l 579 349 l 579 468 l 249 468 l 249 157 l 579 157 l 579 278 l 744 278 l 744 104 l 619 104 l 619 -15 l 208 -15 z "},"т":{"ha":829,"x_min":85,"x_max":744,"o":"m 331 -15 l 331 469 l 249 469 l 249 350 l 85 350 l 85 521 l 208 521 l 208 642 l 619 642 l 619 521 l 744 521 l 744 350 l 579 350 l 579 469 l 497 469 l 497 -15 l 331 -15 z "},"у":{"ha":829,"x_min":85,"x_max":744,"o":"m 208 -258 l 208 -137 l 85 -137 l 85 35 l 249 35 l 249 -86 l 581 -86 l 581 104 l 208 104 l 208 226 l 85 226 l 85 640 l 249 640 l 249 278 l 581 278 l 581 640 l 744 640 l 744 -137 l 621 -137 l 621 -258 l 208 -258 z "},"ў":{"ha":829,"x_min":85,"x_max":744,"o":"m 208 -258 l 208 -137 l 85 -137 l 85 35 l 249 35 l 249 -86 l 581 -86 l 581 104 l 208 104 l 208 226 l 85 226 l 85 640 l 249 640 l 249 278 l 581 278 l 581 640 l 744 640 l 744 -137 l 621 -137 l 621 -258 l 208 -258 m 233 722 l 233 896 l 335 896 l 335 835 l 504 835 l 504 896 l 604 896 l 604 722 l 233 722 z "},"ф":{"ha":718,"x_min":43,"x_max":632,"o":"m 250 -15 l 250 139 l 153 139 l 153 244 l 43 244 l 43 617 l 153 617 l 153 725 l 250 725 l 250 883 l 415 883 l 415 725 l 522 725 l 522 617 l 632 617 l 632 244 l 522 244 l 522 138 l 415 138 l 415 -15 l 250 -15 m 193 297 l 250 297 l 250 567 l 193 567 l 193 297 m 415 297 l 482 297 l 482 567 l 415 567 l 415 297 z "},"х":{"ha":829,"x_min":85,"x_max":744,"o":"m 85 -15 l 85 157 l 208 157 l 208 278 l 331 278 l 331 349 l 208 349 l 208 468 l 85 468 l 85 640 l 249 640 l 249 519 l 372 519 l 372 400 l 456 400 l 456 519 l 579 519 l 579 640 l 744 640 l 744 468 l 619 468 l 619 349 l 497 349 l 497 278 l 619 278 l 619 157 l 744 157 l 744 -15 l 579 -15 l 579 104 l 456 104 l 456 226 l 372 226 l 372 104 l 249 104 l 249 -15 l 85 -15 z "},"ч":{"ha":829,"x_min":85,"x_max":744,"o":"m 581 -17 l 581 104 l 208 104 l 208 226 l 85 226 l 85 640 l 249 640 l 249 278 l 581 278 l 581 640 l 744 640 l 744 -17 l 581 -17 z "},"ц":{"ha":847,"x_min":85,"x_max":804,"o":"m 640 -136 l 640 -71 l 661 -71 l 661 -15 l 85 -15 l 85 640 l 249 640 l 249 158 l 579 158 l 579 640 l 744 640 l 744 36 l 804 36 l 804 -75 l 743 -75 l 743 -136 l 640 -136 z "},"ш":{"ha":1076,"x_min":85,"x_max":992,"o":"m 85 -15 l 85 640 l 249 640 l 249 157 l 456 157 l 456 640 l 619 640 l 619 157 l 829 157 l 829 640 l 992 640 l 992 -15 l 579 -15 l 579 104 l 497 104 l 497 -15 l 85 -15 z "},"щ":{"ha":1075,"x_min":85,"x_max":1053,"o":"m 889 -136 l 889 -71 l 911 -71 l 911 -15 l 579 -15 l 579 104 l 497 104 l 497 -15 l 85 -15 l 85 640 l 249 640 l 249 157 l 456 157 l 456 640 l 619 640 l 619 157 l 829 157 l 829 640 l 992 640 l 992 36 l 1053 36 l 1053 -75 l 992 -75 l 992 -136 l 889 -136 z "},"џ":{"ha":829,"x_min":85,"x_max":744,"o":"m 329 -137 l 329 -15 l 85 -15 l 85 639 l 249 639 l 249 158 l 579 158 l 579 639 l 744 639 l 744 -15 l 494 -15 l 494 -137 l 329 -137 z "},"ь":{"ha":828,"x_min":0,"x_max":661,"o":"m 125 -15 l 125 104 l 0 104 l 0 883 l 165 883 l 165 640 l 536 640 l 536 519 l 661 519 l 661 104 l 536 104 l 536 -15 l 125 -15 m 165 157 l 494 157 l 494 468 l 165 468 l 165 157 z "},"ы":{"ha":1076,"x_min":85,"x_max":992,"o":"m 208 -15 l 208 104 l 85 104 l 85 883 l 249 883 l 249 640 l 619 640 l 619 519 l 744 519 l 744 104 l 619 104 l 619 -15 l 208 -15 m 249 157 l 579 157 l 579 468 l 249 468 l 249 157 m 828 -15 l 828 883 l 992 883 l 992 -15 l 828 -15 z "},"ъ":{"ha":828,"x_min":0,"x_max":743,"o":"m 206 -15 l 206 104 l 82 104 l 82 710 l 0 710 l 0 883 l 247 883 l 247 640 l 618 640 l 618 519 l 743 519 l 743 104 l 618 104 l 618 -15 l 206 -15 m 247 157 l 578 157 l 578 468 l 247 468 l 247 157 z "},"љ":{"ha":1311,"x_min":85,"x_max":1226,"o":"m 85 -15 l 85 158 l 207 158 l 207 639 l 731 639 l 731 518 l 1101 518 l 1101 397 l 1226 397 l 1226 104 l 1103 104 l 1103 -15 l 565 -15 l 565 467 l 372 467 l 372 -15 l 85 -15 m 731 157 l 1061 157 l 1061 346 l 731 346 l 731 157 z "},"њ":{"ha":1190,"x_min":85,"x_max":1106,"o":"m 85 -15 l 85 642 l 249 642 l 249 385 l 443 385 l 443 642 l 608 642 l 608 518 l 981 518 l 981 397 l 1106 397 l 1106 104 l 981 104 l 981 -15 l 443 -15 l 443 213 l 249 213 l 249 -15 l 85 -15 m 608 157 l 940 157 l 940 346 l 608 346 l 608 157 z "},"ѕ":{"ha":829,"x_min":85,"x_max":744,"o":"m 85 -15 l 85 157 l 579 157 l 579 226 l 208 226 l 208 349 l 85 349 l 85 519 l 208 519 l 208 640 l 744 640 l 744 468 l 249 468 l 249 400 l 619 400 l 619 278 l 744 278 l 744 104 l 619 104 l 619 -15 l 85 -15 z "},"є":{"ha":829,"x_min":85,"x_max":744,"o":"m 208 -15 l 208 104 l 85 104 l 85 519 l 208 519 l 208 640 l 619 640 l 619 519 l 744 519 l 744 349 l 579 349 l 579 468 l 249 468 l 249 400 l 497 400 l 497 226 l 249 226 l 249 157 l 579 157 l 579 279 l 744 279 l 744 106 l 619 106 l 619 -15 l 208 -15 z "},"э":{"ha":829,"x_min":85,"x_max":744,"o":"m 208 -15 l 208 106 l 85 106 l 85 279 l 249 279 l 249 157 l 579 157 l 579 226 l 331 226 l 331 400 l 579 400 l 579 468 l 249 468 l 249 349 l 85 349 l 85 519 l 208 519 l 208 640 l 619 640 l 619 519 l 744 519 l 744 104 l 619 104 l 619 -15 l 208 -15 z "},"і":{"ha":333,"x_min":85,"x_max":249,"o":"m 85 -15 l 85 640 l 249 640 l 249 -15 l 85 -15 m 85 710 l 85 883 l 249 883 l 249 710 l 85 710 z "},"ї":{"ha":492,"x_min":14,"x_max":476,"o":"m 163 -15 l 163 400 l 328 400 l 328 -15 l 163 -15 m 14 468 l 14 640 l 179 640 l 179 468 l 14 468 m 313 468 l 313 640 l 476 640 l 476 468 l 313 468 z "},"ј":{"ha":706,"x_min":85,"x_max":621,"o":"m 208 -17 l 208 104 l 85 104 l 85 278 l 249 278 l 249 157 l 456 157 l 456 640 l 621 640 l 621 104 l 497 104 l 497 -17 l 208 -17 z "},"ћ":{"ha":829,"x_min":83,"x_max":744,"o":"m 83 -15 l 83 881 l 385 881 l 385 707 l 247 707 l 247 519 l 331 519 l 331 640 l 619 640 l 619 519 l 744 519 l 744 -15 l 578 -15 l 578 468 l 371 468 l 371 349 l 247 349 l 247 -15 l 83 -15 z "},"ю":{"ha":1189,"x_min":85,"x_max":1104,"o":"m 85 -15 l 85 642 l 249 642 l 249 385 l 442 385 l 442 519 l 567 519 l 567 640 l 979 640 l 979 519 l 1104 519 l 1104 104 l 979 104 l 979 -15 l 567 -15 l 567 104 l 442 104 l 442 213 l 249 213 l 249 -15 l 85 -15 m 607 157 l 939 157 l 939 468 l 607 468 l 607 157 z "},"я":{"ha":829,"x_min":85,"x_max":744,"o":"m 146 -15 l 146 157 l 269 157 l 269 228 l 208 228 l 208 350 l 85 350 l 85 519 l 208 519 l 208 640 l 619 640 l 619 519 l 744 519 l 744 -15 l 579 -15 l 579 228 l 433 228 l 433 104 l 310 104 l 310 -15 l 146 -15 m 249 401 l 579 401 l 579 468 l 249 468 l 249 401 z "},"ђ":{"ha":890,"x_min":83,"x_max":790,"o":"m 374 -382 l 374 -257 l 249 -257 l 249 -99 l 415 -99 l 415 -224 l 624 -224 l 624 476 l 415 476 l 415 353 l 292 353 l 292 -17 l 124 -17 l 124 676 l 83 676 l 83 835 l 124 835 l 124 881 l 292 881 l 292 835 l 429 835 l 429 676 l 292 676 l 292 510 l 374 510 l 374 633 l 665 633 l 665 510 l 790 510 l 790 -257 l 665 -257 l 665 -382 l 374 -382 z "},"Α":{"ha":829,"x_min":85,"x_max":744,"o":"m 85 -15 l 85 640 l 208 640 l 208 761 l 331 761 l 331 883 l 497 883 l 497 761 l 619 761 l 619 640 l 744 640 l 744 -15 l 579 -15 l 579 226 l 249 226 l 249 -15 l 85 -15 m 249 400 l 579 400 l 579 589 l 456 589 l 456 710 l 372 710 l 372 589 l 249 589 l 249 400 z "},"Β":{"ha":829,"x_min":85,"x_max":744,"o":"m 208 -15 l 208 104 l 85 104 l 85 761 l 208 761 l 208 883 l 619 883 l 619 761 l 744 761 l 744 468 l 619 468 l 619 400 l 744 400 l 744 104 l 619 104 l 619 -15 l 208 -15 m 249 157 l 579 157 l 579 349 l 331 349 l 331 519 l 579 519 l 579 710 l 249 710 l 249 157 z "},"Γ":{"ha":704,"x_min":85,"x_max":619,"o":"m 85 -15 l 85 883 l 619 883 l 619 710 l 249 710 l 249 -15 l 85 -15 z "},"Ε":{"ha":829,"x_min":85,"x_max":744,"o":"m 208 -15 l 208 104 l 85 104 l 85 761 l 208 761 l 208 883 l 619 883 l 619 761 l 744 761 l 744 589 l 579 589 l 579 710 l 249 710 l 249 519 l 497 519 l 497 349 l 249 349 l 249 157 l 579 157 l 579 278 l 744 278 l 744 104 l 619 104 l 619 -15 l 208 -15 z "},"Ζ":{"ha":829,"x_min":85,"x_max":744,"o":"m 208 -15 l 208 104 l 85 104 l 85 400 l 208 400 l 208 519 l 579 519 l 579 710 l 249 710 l 249 589 l 85 589 l 85 883 l 619 883 l 619 761 l 744 761 l 744 468 l 619 468 l 619 349 l 249 349 l 249 157 l 579 157 l 579 278 l 744 278 l 744 -15 l 208 -15 z "},"Η":{"ha":829,"x_min":85,"x_max":744,"o":"m 85 -15 l 85 883 l 249 883 l 249 519 l 331 519 l 331 640 l 497 640 l 497 519 l 579 519 l 579 883 l 744 883 l 744 -15 l 579 -15 l 579 349 l 249 349 l 249 -15 l 85 -15 z "},"Θ":{"ha":829,"x_min":85,"x_max":744,"o":"m 208 -15 l 208 104 l 85 104 l 85 761 l 208 761 l 208 883 l 619 883 l 619 761 l 744 761 l 744 104 l 619 104 l 619 -15 l 208 -15 m 249 157 l 579 157 l 579 710 l 249 710 l 249 157 m 306 360 l 306 485 l 524 485 l 524 360 l 306 360 z "},"Ι":{"ha":582,"x_min":85,"x_max":497,"o":"m 85 -15 l 85 157 l 208 157 l 208 710 l 85 710 l 85 883 l 497 883 l 497 710 l 372 710 l 372 157 l 497 157 l 497 -15 l 85 -15 z "},"Κ":{"ha":829,"x_min":85,"x_max":744,"o":"m 85 -15 l 85 761 l 208 761 l 208 883 l 372 883 l 372 710 l 249 710 l 249 519 l 331 519 l 331 640 l 457 640 l 457 761 l 579 761 l 579 883 l 744 883 l 744 710 l 619 710 l 619 589 l 497 589 l 497 468 l 372 468 l 372 400 l 497 400 l 497 278 l 619 278 l 619 157 l 744 157 l 744 -15 l 579 -15 l 579 104 l 457 104 l 457 226 l 331 226 l 331 349 l 249 349 l 249 -15 l 85 -15 z "},"Λ":{"ha":829,"x_min":85,"x_max":744,"o":"m 85 -15 l 85 519 l 208 519 l 208 763 l 331 763 l 331 883 l 497 883 l 497 763 l 619 763 l 619 519 l 744 519 l 744 -15 l 579 -15 l 579 468 l 456 468 l 456 711 l 372 711 l 372 468 l 249 468 l 249 -15 l 85 -15 z "},"Μ":{"ha":1076,"x_min":85,"x_max":992,"o":"m 85 -15 l 85 761 l 208 761 l 208 883 l 372 883 l 372 761 l 497 761 l 497 519 l 579 519 l 579 761 l 704 761 l 704 883 l 869 883 l 869 761 l 992 761 l 992 -15 l 829 -15 l 829 710 l 744 710 l 744 468 l 619 468 l 619 104 l 456 104 l 456 468 l 331 468 l 331 710 l 249 710 l 249 -15 l 85 -15 z "},"μ":{"ha":1076,"x_min":85,"x_max":992,"o":"m 85 -15 l 85 761 l 208 761 l 208 883 l 372 883 l 372 761 l 497 761 l 497 519 l 579 519 l 579 761 l 704 761 l 704 883 l 869 883 l 869 761 l 992 761 l 992 -15 l 829 -15 l 829 710 l 744 710 l 744 468 l 619 468 l 619 104 l 456 104 l 456 468 l 331 468 l 331 710 l 249 710 l 249 -15 l 85 -15 z "},"Ν":{"ha":829,"x_min":85,"x_max":744,"o":"m 85 -15 l 85 883 l 249 883 l 249 761 l 371 761 l 371 640 l 497 640 l 497 278 l 579 278 l 579 883 l 744 883 l 744 -15 l 579 -15 l 579 104 l 457 104 l 457 226 l 331 226 l 331 589 l 249 589 l 249 -15 l 85 -15 z "},"Ξ":{"ha":581,"x_min":85,"x_max":496,"o":"m 85 710 l 85 883 l 496 883 l 496 710 l 85 710 m 85 -15 l 85 158 l 496 158 l 496 -15 l 85 -15 m 85 347 l 85 519 l 496 519 l 496 347 l 85 347 z "},"Ο":{"ha":829,"x_min":85,"x_max":744,"o":"m 208 -15 l 208 104 l 85 104 l 85 761 l 208 761 l 208 883 l 619 883 l 619 761 l 744 761 l 744 104 l 619 104 l 619 -15 l 208 -15 m 249 157 l 579 157 l 579 710 l 249 710 l 249 157 z "},"Π":{"ha":829,"x_min":85,"x_max":744,"o":"m 85 -15 l 85 881 l 744 881 l 744 -15 l 579 -15 l 579 707 l 249 707 l 249 -15 l 85 -15 z "},"Ρ":{"ha":829,"x_min":85,"x_max":744,"o":"m 85 -15 l 85 761 l 208 761 l 208 883 l 619 883 l 619 761 l 744 761 l 744 349 l 619 349 l 619 226 l 249 226 l 249 -15 l 85 -15 m 249 400 l 579 400 l 579 710 l 249 710 l 249 400 z "},"Σ":{"ha":1076,"x_min":85,"x_max":992,"o":"m 208 -17 l 208 104 l 85 104 l 85 276 l 208 276 l 208 399 l 456 399 l 456 467 l 208 467 l 208 588 l 85 588 l 85 761 l 208 761 l 208 882 l 992 882 l 992 710 l 249 710 l 249 639 l 497 639 l 497 518 l 869 518 l 869 347 l 497 347 l 497 225 l 249 225 l 249 157 l 992 157 l 992 -17 l 208 -17 z "},"Τ":{"ha":829,"x_min":85,"x_max":744,"o":"m 331 -15 l 331 710 l 249 710 l 249 589 l 85 589 l 85 761 l 208 761 l 208 883 l 619 883 l 619 761 l 744 761 l 744 589 l 579 589 l 579 710 l 497 710 l 497 -15 l 331 -15 z "},"Υ":{"ha":829,"x_min":85,"x_max":744,"o":"m 331 -15 l 331 468 l 208 468 l 208 589 l 85 589 l 85 883 l 249 883 l 249 640 l 372 640 l 372 519 l 456 519 l 456 640 l 579 640 l 579 883 l 744 883 l 744 589 l 619 589 l 619 468 l 497 468 l 497 -15 l 331 -15 z "},"Φ":{"ha":829,"x_min":85,"x_max":744,"o":"m 326 -14 l 326 90 l 208 90 l 208 211 l 85 211 l 85 626 l 208 626 l 208 747 l 326 747 l 326 885 l 493 885 l 493 747 l 619 747 l 619 626 l 744 626 l 744 211 l 619 211 l 619 92 l 493 92 l 493 -14 l 326 -14 m 368 143 l 451 143 l 451 211 l 368 211 l 368 143 m 249 263 l 326 263 l 326 575 l 249 575 l 249 263 m 493 263 l 579 263 l 579 575 l 493 575 l 493 263 m 368 626 l 451 626 l 451 696 l 368 696 l 368 626 z "},"Χ":{"ha":829,"x_min":85,"x_max":744,"o":"m 85 -15 l 85 157 l 208 157 l 208 400 l 331 400 l 331 468 l 208 468 l 208 710 l 85 710 l 85 883 l 249 883 l 249 761 l 372 761 l 372 519 l 456 519 l 456 761 l 579 761 l 579 883 l 744 883 l 744 710 l 619 710 l 619 468 l 497 468 l 497 400 l 619 400 l 619 157 l 744 157 l 744 -15 l 579 -15 l 579 104 l 456 104 l 456 349 l 372 349 l 372 104 l 249 104 l 249 -15 l 85 -15 z "},"Ψ":{"ha":829,"x_min":85,"x_max":744,"o":"m 326 -15 l 326 276 l 208 276 l 208 396 l 85 396 l 85 881 l 249 881 l 249 449 l 326 449 l 326 883 l 493 883 l 493 449 l 579 449 l 579 881 l 744 881 l 744 396 l 619 396 l 619 276 l 493 276 l 493 -15 l 326 -15 z "},"Ά":{"ha":829,"x_min":85,"x_max":744,"o":"m 85 -15 l 85 640 l 208 640 l 208 761 l 331 761 l 331 883 l 497 883 l 497 761 l 619 761 l 619 640 l 744 640 l 744 -15 l 579 -15 l 579 226 l 249 226 l 249 -15 l 85 -15 m 249 400 l 579 400 l 579 589 l 456 589 l 456 710 l 372 710 l 372 589 l 249 589 l 249 400 m 361 925 l 361 1024 l 496 1158 l 583 1158 l 583 1060 l 450 925 l 361 925 z "},"Έ":{"ha":829,"x_min":85,"x_max":744,"o":"m 208 -15 l 208 104 l 85 104 l 85 761 l 208 761 l 208 883 l 619 883 l 619 761 l 744 761 l 744 589 l 579 589 l 579 710 l 249 710 l 249 519 l 497 519 l 497 349 l 249 349 l 249 157 l 579 157 l 579 278 l 744 278 l 744 104 l 619 104 l 619 -15 l 208 -15 m 361 925 l 361 1024 l 496 1158 l 583 1158 l 583 1060 l 450 925 l 361 925 z "},"Ή":{"ha":829,"x_min":85,"x_max":744,"o":"m 85 -15 l 85 883 l 249 883 l 249 519 l 331 519 l 331 640 l 497 640 l 497 519 l 579 519 l 579 883 l 744 883 l 744 -15 l 579 -15 l 579 349 l 249 349 l 249 -15 l 85 -15 m 364 925 l 364 1099 l 465 1099 l 465 925 l 364 925 z "},"Ί":{"ha":582,"x_min":85,"x_max":497,"o":"m 85 -15 l 85 157 l 208 157 l 208 710 l 85 710 l 85 883 l 497 883 l 497 710 l 372 710 l 372 157 l 497 157 l 497 -15 l 85 -15 m 243 925 l 243 1099 l 344 1099 l 344 925 l 243 925 z "},"ί":{"ha":582,"x_min":85,"x_max":497,"o":"m 85 -15 l 85 157 l 208 157 l 208 710 l 85 710 l 85 883 l 497 883 l 497 710 l 372 710 l 372 157 l 497 157 l 497 -15 l 85 -15 m 243 925 l 243 1099 l 344 1099 l 344 925 l 243 925 z "},"Ό":{"ha":829,"x_min":85,"x_max":744,"o":"m 208 -15 l 208 104 l 85 104 l 85 761 l 208 761 l 208 883 l 619 883 l 619 761 l 744 761 l 744 104 l 619 104 l 619 -15 l 208 -15 m 249 157 l 579 157 l 579 710 l 249 710 l 249 157 m 364 925 l 364 1099 l 465 1099 l 465 925 l 364 925 z "},"Ύ":{"ha":829,"x_min":85,"x_max":744,"o":"m 331 -15 l 331 468 l 208 468 l 208 589 l 85 589 l 85 883 l 249 883 l 249 640 l 372 640 l 372 519 l 456 519 l 456 640 l 579 640 l 579 883 l 744 883 l 744 589 l 619 589 l 619 468 l 497 468 l 497 -15 l 331 -15 m 364 925 l 364 1099 l 465 1099 l 465 925 l 364 925 z "},"Ώ":{"ha":825,"x_min":0,"x_max":824,"o":"m 0 -17 l 0 157 l 82 157 l 82 761 l 206 761 l 206 882 l 618 882 l 618 761 l 743 761 l 743 157 l 824 157 l 824 -17 l 578 -17 l 578 710 l 247 710 l 247 -17 l 0 -17 m 358 925 l 358 1024 l 494 1158 l 582 1158 l 582 1060 l 447 925 l 358 925 z "},"Ϊ":{"ha":581,"x_min":65,"x_max":521,"o":"m 83 -15 l 83 157 l 207 157 l 207 710 l 83 710 l 83 883 l 496 883 l 496 710 l 371 710 l 371 157 l 496 157 l 496 -15 l 83 -15 m 65 940 l 65 1114 l 229 1114 l 229 940 l 65 940 m 354 940 l 354 1114 l 521 1114 l 521 940 l 354 940 z "},"ϊ":{"ha":581,"x_min":65,"x_max":521,"o":"m 83 -15 l 83 157 l 207 157 l 207 710 l 83 710 l 83 883 l 496 883 l 496 710 l 371 710 l 371 157 l 496 157 l 496 -15 l 83 -15 m 65 940 l 65 1114 l 229 1114 l 229 940 l 65 940 m 354 940 l 354 1114 l 521 1114 l 521 940 l 354 940 z "},"Ϋ":{"ha":829,"x_min":85,"x_max":744,"o":"m 331 -15 l 331 468 l 208 468 l 208 589 l 85 589 l 85 883 l 249 883 l 249 640 l 372 640 l 372 519 l 456 519 l 456 640 l 579 640 l 579 883 l 744 883 l 744 589 l 619 589 l 619 468 l 497 468 l 497 -15 l 331 -15 m 229 925 l 229 1099 l 331 1099 l 331 925 l 229 925 m 500 925 l 500 1099 l 600 1099 l 600 925 l 500 925 z "},"ϋ":{"ha":829,"x_min":85,"x_max":744,"o":"m 331 -15 l 331 468 l 208 468 l 208 589 l 85 589 l 85 883 l 249 883 l 249 640 l 372 640 l 372 519 l 456 519 l 456 640 l 579 640 l 579 883 l 744 883 l 744 589 l 619 589 l 619 468 l 497 468 l 497 -15 l 331 -15 m 229 925 l 229 1099 l 331 1099 l 331 925 l 229 925 m 500 925 l 500 1099 l 600 1099 l 600 925 l 500 925 z "},"α":{"ha":829,"x_min":85,"x_max":744,"o":"m 579 -106 l 579 -15 l 208 -15 l 208 104 l 85 104 l 85 519 l 208 519 l 208 640 l 619 640 l 619 519 l 744 519 l 744 -106 l 579 -106 m 249 157 l 579 157 l 579 468 l 249 468 l 249 157 z "},"β":{"ha":829,"x_min":85,"x_max":744,"o":"m 85 -258 l 85 883 l 619 883 l 619 761 l 744 761 l 744 468 l 619 468 l 619 400 l 744 400 l 744 104 l 619 104 l 619 -15 l 331 -15 l 331 157 l 579 157 l 579 349 l 331 349 l 331 519 l 579 519 l 579 710 l 249 710 l 249 -258 l 85 -258 z "},"γ":{"ha":815,"x_min":69,"x_max":731,"o":"m 318 -15 l 318 276 l 193 276 l 193 519 l 69 519 l 69 640 l 233 640 l 233 571 l 357 571 l 357 328 l 442 328 l 442 571 l 564 571 l 564 640 l 731 640 l 731 519 l 604 519 l 604 276 l 482 276 l 482 -15 l 318 -15 z "},"δ":{"ha":829,"x_min":85,"x_max":744,"o":"m 208 -15 l 208 104 l 85 104 l 85 519 l 208 519 l 208 640 l 326 640 l 326 761 l 451 761 l 451 883 l 615 883 l 615 710 l 493 710 l 493 640 l 619 640 l 619 519 l 744 519 l 744 104 l 619 104 l 619 -15 l 208 -15 m 249 157 l 579 157 l 579 468 l 249 468 l 249 157 z "},"ε":{"ha":829,"x_min":85,"x_max":744,"o":"m 208 -15 l 208 104 l 85 104 l 85 519 l 208 519 l 208 640 l 619 640 l 619 519 l 744 519 l 744 349 l 579 349 l 579 468 l 249 468 l 249 400 l 497 400 l 497 226 l 249 226 l 249 157 l 579 157 l 579 279 l 744 279 l 744 106 l 619 106 l 619 -15 l 208 -15 z "},"ζ":{"ha":829,"x_min":85,"x_max":744,"o":"m 454 -253 l 454 -82 l 579 -82 l 579 -15 l 208 -15 l 208 106 l 85 106 l 85 400 l 208 400 l 208 519 l 579 519 l 579 711 l 208 711 l 208 883 l 619 883 l 619 763 l 744 763 l 744 468 l 619 468 l 619 349 l 249 349 l 249 158 l 579 158 l 579 278 l 744 278 l 744 -253 l 454 -253 z "},"η":{"ha":829,"x_min":85,"x_max":744,"o":"m 579 -258 l 579 468 l 249 468 l 249 -15 l 85 -15 l 85 640 l 619 640 l 619 519 l 744 519 l 744 -258 l 579 -258 z "},"θ":{"ha":829,"x_min":85,"x_max":744,"o":"m 208 -15 l 208 104 l 85 104 l 85 519 l 208 519 l 208 640 l 619 640 l 619 519 l 744 519 l 744 104 l 619 104 l 619 -15 l 208 -15 m 249 157 l 579 157 l 579 468 l 249 468 l 249 157 m 308 242 l 308 365 l 521 365 l 521 242 l 308 242 z "},"ι":{"ha":333,"x_min":85,"x_max":249,"o":"m 85 -15 l 85 640 l 249 640 l 249 -15 l 85 -15 m 85 710 l 85 883 l 249 883 l 249 710 l 85 710 z "},"κ":{"ha":829,"x_min":85,"x_max":744,"o":"m 85 -15 l 85 883 l 249 883 l 249 400 l 331 400 l 331 519 l 579 519 l 579 640 l 744 640 l 744 468 l 619 468 l 619 349 l 372 349 l 372 278 l 619 278 l 619 157 l 744 157 l 744 -15 l 579 -15 l 579 104 l 331 104 l 331 226 l 249 226 l 249 -15 l 85 -15 z "},"λ":{"ha":829,"x_min":85,"x_max":744,"o":"m 85 -15 l 85 278 l 208 278 l 208 400 l 331 400 l 331 883 l 497 883 l 497 400 l 619 400 l 619 278 l 744 278 l 744 -15 l 579 -15 l 579 226 l 456 226 l 456 349 l 372 349 l 372 226 l 249 226 l 249 -15 l 85 -15 z "},"ν":{"ha":815,"x_min":69,"x_max":731,"o":"m 318 -15 l 318 104 l 193 104 l 193 349 l 69 349 l 69 640 l 233 640 l 233 400 l 357 400 l 357 157 l 442 157 l 442 400 l 564 400 l 564 640 l 731 640 l 731 349 l 604 349 l 604 104 l 482 104 l 482 -15 l 318 -15 z "},"ξ":{"ha":828,"x_min":0,"x_max":743,"o":"m 329 -256 l 329 -85 l 578 -85 l 578 -15 l 206 -15 l 206 104 l 82 104 l 82 400 l 206 400 l 206 468 l 82 468 l 82 710 l 0 710 l 0 882 l 618 882 l 618 761 l 743 761 l 743 589 l 578 589 l 578 710 l 247 710 l 247 519 l 618 519 l 618 349 l 247 349 l 247 157 l 578 157 l 578 278 l 743 278 l 743 -256 l 329 -256 z "},"ο":{"ha":829,"x_min":85,"x_max":744,"o":"m 208 -15 l 208 104 l 85 104 l 85 519 l 208 519 l 208 640 l 619 640 l 619 519 l 744 519 l 744 104 l 619 104 l 619 -15 l 208 -15 m 249 157 l 579 157 l 579 468 l 249 468 l 249 157 z "},"π":{"ha":1325,"x_min":85,"x_max":1240,"o":"m 331 -15 l 331 467 l 249 467 l 249 347 l 85 347 l 85 518 l 208 518 l 208 639 l 619 639 l 619 518 l 704 518 l 704 639 l 1117 639 l 1117 518 l 1240 518 l 1240 347 l 1075 347 l 1075 467 l 992 467 l 992 -15 l 828 -15 l 828 467 l 744 467 l 744 347 l 579 347 l 579 467 l 497 467 l 497 -15 l 331 -15 z "},"ρ":{"ha":829,"x_min":85,"x_max":744,"o":"m 85 -251 l 85 519 l 208 519 l 208 640 l 619 640 l 619 519 l 744 519 l 744 104 l 619 104 l 619 -15 l 249 -15 l 249 -251 l 85 -251 m 249 157 l 579 157 l 579 468 l 249 468 l 249 157 z "},"σ":{"ha":828,"x_min":85,"x_max":824,"o":"m 208 -15 l 208 104 l 85 104 l 85 519 l 208 519 l 208 640 l 824 640 l 824 468 l 744 468 l 744 104 l 619 104 l 619 -15 l 208 -15 m 249 157 l 579 157 l 579 468 l 249 468 l 249 157 z "},"τ":{"ha":829,"x_min":85,"x_max":744,"o":"m 331 -15 l 331 468 l 249 468 l 249 349 l 85 349 l 85 519 l 208 519 l 208 640 l 619 640 l 619 519 l 744 519 l 744 349 l 579 349 l 579 468 l 497 468 l 497 -15 l 331 -15 z "},"υ":{"ha":829,"x_min":85,"x_max":744,"o":"m 208 -15 l 208 104 l 85 104 l 85 640 l 249 640 l 249 157 l 579 157 l 579 640 l 744 640 l 744 104 l 619 104 l 619 -15 l 208 -15 m 361 686 l 361 788 l 496 921 l 583 921 l 583 822 l 450 686 l 361 686 z "},"φ":{"ha":829,"x_min":85,"x_max":744,"o":"m 326 -15 l 326 106 l 208 106 l 208 226 l 85 226 l 85 640 l 208 640 l 208 763 l 326 763 l 326 883 l 493 883 l 493 763 l 619 763 l 619 640 l 744 640 l 744 226 l 619 226 l 619 106 l 493 106 l 493 -15 l 326 -15 m 249 278 l 326 278 l 326 589 l 249 589 l 249 278 m 493 278 l 579 278 l 579 589 l 493 589 l 493 278 z "},"χ":{"ha":829,"x_min":85,"x_max":744,"o":"m 85 -15 l 85 157 l 208 157 l 208 278 l 331 278 l 331 349 l 208 349 l 208 468 l 85 468 l 85 640 l 249 640 l 249 519 l 372 519 l 372 400 l 456 400 l 456 519 l 579 519 l 579 640 l 744 640 l 744 468 l 619 468 l 619 349 l 497 349 l 497 278 l 619 278 l 619 157 l 744 157 l 744 -15 l 579 -15 l 579 104 l 456 104 l 456 226 l 372 226 l 372 104 l 249 104 l 249 -15 l 85 -15 z "},"ψ":{"ha":829,"x_min":85,"x_max":744,"o":"m 326 -15 l 326 104 l 208 104 l 208 225 l 85 225 l 85 761 l 249 761 l 249 276 l 326 276 l 326 883 l 493 883 l 493 276 l 579 276 l 579 761 l 744 761 l 744 225 l 619 225 l 619 104 l 493 104 l 493 -15 l 326 -15 z "},"ω":{"ha":1076,"x_min":85,"x_max":992,"o":"m 85 -15 l 85 640 l 249 640 l 249 157 l 456 157 l 456 640 l 619 640 l 619 157 l 829 157 l 829 640 l 992 640 l 992 104 l 869 104 l 869 -15 l 579 -15 l 579 104 l 497 104 l 497 -15 l 85 -15 z "},"ύ":{"ha":829,"x_min":85,"x_max":744,"o":"m 208 -15 l 208 104 l 85 104 l 85 640 l 249 640 l 249 157 l 579 157 l 579 640 l 744 640 l 744 104 l 619 104 l 619 -15 l 208 -15 m 364 707 l 364 881 l 465 881 l 465 707 l 364 707 z "},"ό":{"ha":829,"x_min":85,"x_max":744,"o":"m 208 -15 l 208 104 l 85 104 l 85 519 l 208 519 l 208 640 l 619 640 l 619 519 l 744 519 l 744 104 l 619 104 l 619 -15 l 208 -15 m 249 157 l 579 157 l 579 468 l 249 468 l 249 157 m 364 707 l 364 881 l 465 881 l 465 707 l 364 707 z "},"ώ":{"ha":1076,"x_min":85,"x_max":992,"o":"m 85 -15 l 85 640 l 249 640 l 249 157 l 456 157 l 456 640 l 619 640 l 619 157 l 829 157 l 829 640 l 992 640 l 992 104 l 869 104 l 869 -15 l 579 -15 l 579 104 l 497 104 l 497 -15 l 85 -15 m 486 707 l 486 881 l 586 881 l 586 707 l 486 707 z "},"ά":{"ha":829,"x_min":85,"x_max":744,"o":"m 579 -106 l 579 -15 l 208 -15 l 208 104 l 85 104 l 85 519 l 208 519 l 208 640 l 619 640 l 619 519 l 744 519 l 744 -106 l 579 -106 m 249 157 l 579 157 l 579 468 l 249 468 l 249 157 m 364 707 l 364 881 l 465 881 l 465 707 l 364 707 z "},"έ":{"ha":829,"x_min":85,"x_max":744,"o":"m 208 -15 l 208 104 l 85 104 l 85 519 l 208 519 l 208 640 l 619 640 l 619 519 l 744 519 l 744 349 l 579 349 l 579 468 l 249 468 l 249 400 l 497 400 l 497 226 l 249 226 l 249 157 l 579 157 l 579 279 l 744 279 l 744 106 l 619 106 l 619 -15 l 208 -15 m 364 707 l 364 881 l 465 881 l 465 707 l 364 707 z "},"ή":{"ha":829,"x_min":85,"x_max":744,"o":"m 579 -258 l 579 468 l 249 468 l 249 -15 l 85 -15 l 85 640 l 619 640 l 619 519 l 744 519 l 744 -258 l 579 -258 m 364 707 l 364 881 l 465 881 l 465 707 l 364 707 z "},"½":{"ha":1146,"x_min":83,"x_max":1068,"o":"m 231 -17 l 231 233 l 339 233 l 339 449 l 450 449 l 450 556 l 558 556 l 558 772 l 669 772 l 669 881 l 819 881 l 819 631 l 711 631 l 711 521 l 599 521 l 599 306 l 490 306 l 490 199 l 381 199 l 381 -17 l 231 -17 m 211 403 l 211 782 l 188 782 l 188 718 l 83 718 l 83 815 l 147 815 l 147 881 l 253 881 l 253 815 l 318 815 l 318 403 l 211 403 m 771 -18 l 771 44 l 707 44 l 707 274 l 771 274 l 771 339 l 964 339 l 964 429 l 813 429 l 813 365 l 707 365 l 707 464 l 771 464 l 771 528 l 1004 528 l 1004 464 l 1068 464 l 1068 303 l 1004 303 l 1004 239 l 813 239 l 813 79 l 964 79 l 964 211 l 1068 211 l 1068 44 l 1004 44 l 1004 -18 l 771 -18 z "},"⅓":{"ha":1286,"x_min":83,"x_max":1201,"o":"m 300 -17 l 300 233 l 408 233 l 408 449 l 518 449 l 518 556 l 626 556 l 626 772 l 738 772 l 738 881 l 888 881 l 888 631 l 779 631 l 779 521 l 668 521 l 668 306 l 560 306 l 560 199 l 449 199 l 449 -17 l 300 -17 m 211 403 l 211 782 l 188 782 l 188 718 l 83 718 l 83 815 l 147 815 l 147 881 l 253 881 l 253 815 l 318 815 l 318 403 l 211 403 m 904 -18 l 904 46 l 839 46 l 839 143 l 946 143 l 946 81 l 1094 81 l 1094 217 l 904 217 l 904 315 l 1094 315 l 1094 406 l 946 406 l 946 342 l 839 342 l 839 440 l 904 440 l 904 504 l 1135 504 l 1135 440 l 1201 440 l 1201 281 l 1135 281 l 1135 253 l 1201 253 l 1201 46 l 1135 46 l 1135 -18 l 904 -18 z "},"⅔":{"ha":1288,"x_min":83,"x_max":1243,"o":"m 367 -17 l 367 233 l 476 233 l 476 449 l 586 449 l 586 556 l 696 556 l 696 772 l 806 772 l 806 881 l 957 881 l 957 631 l 847 631 l 847 521 l 736 521 l 736 306 l 626 306 l 626 199 l 518 199 l 518 -17 l 367 -17 m 147 400 l 147 463 l 83 463 l 83 669 l 147 669 l 147 733 l 340 733 l 340 825 l 188 825 l 188 760 l 83 760 l 83 860 l 147 860 l 147 922 l 381 922 l 381 860 l 444 860 l 444 699 l 381 699 l 381 633 l 188 633 l 188 497 l 340 497 l 340 561 l 444 561 l 444 463 l 381 463 l 381 400 l 147 400 m 946 -18 l 946 46 l 879 46 l 879 143 l 988 143 l 988 81 l 1136 81 l 1136 217 l 946 217 l 946 315 l 1136 315 l 1136 406 l 988 406 l 988 342 l 879 342 l 879 440 l 946 440 l 946 504 l 1176 504 l 1176 440 l 1243 440 l 1243 281 l 1176 281 l 1176 253 l 1243 253 l 1243 46 l 1176 46 l 1176 -18 l 946 -18 z "},"¼":{"ha":1226,"x_min":85,"x_max":1142,"o":"m 297 -15 l 297 247 l 406 247 l 406 458 l 515 458 l 515 564 l 622 564 l 622 776 l 733 776 l 733 883 l 881 883 l 881 619 l 774 619 l 774 513 l 663 513 l 663 301 l 556 301 l 556 196 l 446 196 l 446 -15 l 297 -15 m 211 396 l 211 769 l 188 769 l 188 707 l 85 707 l 85 819 l 146 819 l 146 883 l 251 883 l 251 819 l 315 819 l 315 396 l 211 396 m 1036 -17 l 1036 107 l 782 107 l 782 283 l 846 283 l 846 344 l 910 344 l 910 407 l 974 407 l 974 469 l 1142 469 l 1142 -17 l 1036 -17 m 929 221 l 1036 221 l 1036 357 l 1014 357 l 1014 293 l 965 293 l 965 272 l 929 272 l 929 221 z "},"¾":{"ha":1351,"x_min":83,"x_max":1258,"o":"m 408 -17 l 408 233 l 518 233 l 518 449 l 626 449 l 626 556 l 736 556 l 736 772 l 847 772 l 847 881 l 997 881 l 997 631 l 888 631 l 888 521 l 778 521 l 778 306 l 668 306 l 668 199 l 560 199 l 560 -17 l 408 -17 m 149 357 l 149 422 l 83 422 l 83 519 l 189 519 l 189 457 l 339 457 l 339 549 l 149 549 l 149 646 l 339 646 l 339 781 l 189 781 l 189 718 l 83 718 l 83 815 l 149 815 l 149 881 l 379 881 l 379 815 l 444 815 l 444 610 l 379 610 l 379 583 l 444 583 l 444 422 l 379 422 l 379 357 l 149 357 m 1156 -18 l 1156 108 l 897 108 l 897 269 l 963 269 l 963 332 l 1025 332 l 1025 396 l 1090 396 l 1090 460 l 1258 460 l 1258 -18 l 1156 -18 m 1001 207 l 1156 207 l 1156 361 l 1132 361 l 1132 297 l 1067 297 l 1067 235 l 1001 235 l 1001 207 z "},"⅛":{"ha":1274,"x_min":83,"x_max":1189,"o":"m 300 -17 l 300 233 l 408 233 l 408 449 l 518 449 l 518 556 l 626 556 l 626 772 l 738 772 l 738 881 l 888 881 l 888 631 l 779 631 l 779 521 l 668 521 l 668 306 l 560 306 l 560 199 l 449 199 l 449 -17 l 300 -17 m 211 403 l 211 782 l 188 782 l 188 718 l 83 718 l 83 815 l 147 815 l 147 881 l 253 881 l 253 815 l 318 815 l 318 403 l 211 403 m 889 -18 l 889 46 l 825 46 l 825 243 l 889 243 l 889 271 l 825 271 l 825 432 l 889 432 l 889 497 l 1124 497 l 1124 432 l 1189 432 l 1189 271 l 1124 271 l 1124 243 l 1189 243 l 1189 46 l 1124 46 l 1124 -18 l 889 -18 m 931 81 l 1082 81 l 1082 208 l 931 208 l 931 81 m 931 306 l 1082 306 l 1082 399 l 931 399 l 931 306 z "},"⅜":{"ha":1368,"x_min":83,"x_max":1285,"o":"m 394 -17 l 394 233 l 504 233 l 504 449 l 613 449 l 613 556 l 724 556 l 724 772 l 833 772 l 833 881 l 983 881 l 983 631 l 874 631 l 874 521 l 764 521 l 764 306 l 654 306 l 654 199 l 546 199 l 546 -17 l 394 -17 m 149 357 l 149 422 l 83 422 l 83 519 l 189 519 l 189 457 l 339 457 l 339 549 l 149 549 l 149 646 l 339 646 l 339 781 l 189 781 l 189 718 l 83 718 l 83 815 l 149 815 l 149 881 l 379 881 l 379 815 l 444 815 l 444 610 l 379 610 l 379 583 l 444 583 l 444 422 l 379 422 l 379 357 l 149 357 m 1028 81 l 1178 81 l 1178 217 l 1028 217 l 1028 81 m 986 -18 l 986 46 l 921 46 l 921 253 l 986 253 l 986 281 l 921 281 l 921 442 l 986 442 l 986 506 l 1219 506 l 1219 442 l 1285 442 l 1285 281 l 1219 281 l 1219 253 l 1285 253 l 1285 46 l 1219 46 l 1219 -18 l 986 -18 m 1028 315 l 1178 315 l 1178 408 l 1028 408 l 1028 315 z "},"⅝":{"ha":1400,"x_min":83,"x_max":1317,"o":"m 436 -17 l 436 233 l 544 233 l 544 449 l 654 449 l 654 556 l 763 556 l 763 772 l 875 772 l 875 881 l 1024 881 l 1024 631 l 915 631 l 915 521 l 804 521 l 804 306 l 696 306 l 696 199 l 586 199 l 586 -17 l 436 -17 m 147 365 l 147 429 l 83 429 l 83 526 l 188 526 l 188 464 l 340 464 l 340 492 l 211 492 l 211 556 l 147 556 l 147 618 l 83 618 l 83 815 l 147 815 l 147 881 l 381 881 l 381 815 l 446 815 l 446 618 l 340 618 l 340 782 l 188 782 l 188 653 l 253 653 l 253 592 l 381 592 l 381 526 l 446 526 l 446 429 l 381 429 l 381 365 l 147 365 m 1057 81 l 1211 81 l 1211 217 l 1057 217 l 1057 81 m 1017 -18 l 1017 46 l 954 46 l 954 253 l 1017 253 l 1017 281 l 954 281 l 954 442 l 1017 442 l 1017 506 l 1250 506 l 1250 442 l 1317 442 l 1317 281 l 1250 281 l 1250 253 l 1317 253 l 1317 46 l 1250 46 l 1250 -18 l 1017 -18 m 1057 315 l 1211 315 l 1211 408 l 1057 408 l 1057 315 z "},"⅞":{"ha":1382,"x_min":85,"x_max":1297,"o":"m 460 -15 l 460 247 l 568 247 l 568 458 l 678 458 l 678 564 l 785 564 l 785 776 l 894 776 l 894 883 l 1043 883 l 1043 619 l 936 619 l 936 513 l 825 513 l 825 301 l 718 301 l 718 196 l 608 196 l 608 -15 l 460 -15 m 338 394 l 338 769 l 188 769 l 188 707 l 85 707 l 85 819 l 146 819 l 146 883 l 379 883 l 379 819 l 443 819 l 443 394 l 338 394 m 1000 -17 l 1000 46 l 938 46 l 938 215 l 958 222 l 958 246 l 938 258 l 938 408 l 1000 408 l 1000 471 l 1232 471 l 1232 408 l 1297 408 l 1297 239 l 1275 235 l 1275 215 l 1297 194 l 1297 46 l 1232 46 l 1232 -17 l 1000 -17 m 1040 97 l 1190 97 l 1190 169 l 1040 169 l 1040 97 m 1040 283 l 1190 283 l 1190 357 l 1040 357 l 1040 283 z "},"₀":{"ha":526,"x_min":85,"x_max":442,"o":"m 146 -17 l 146 46 l 85 46 l 85 407 l 146 407 l 146 469 l 379 469 l 379 407 l 442 407 l 442 46 l 379 46 l 379 -17 l 146 -17 m 188 97 l 338 97 l 338 357 l 188 357 l 188 97 z "},"₁":{"ha":400,"x_min":85,"x_max":315,"o":"m 211 -17 l 211 357 l 188 357 l 188 293 l 85 293 l 85 407 l 146 407 l 146 469 l 251 469 l 251 407 l 315 407 l 315 -17 l 211 -17 z "},"₂":{"ha":551,"x_min":83,"x_max":444,"o":"m 147 -18 l 147 44 l 83 44 l 83 251 l 147 251 l 147 315 l 340 315 l 340 407 l 188 407 l 188 342 l 83 342 l 83 440 l 147 440 l 147 504 l 381 504 l 381 440 l 444 440 l 444 281 l 381 281 l 381 215 l 188 215 l 188 79 l 340 79 l 340 143 l 444 143 l 444 44 l 381 44 l 381 -18 l 147 -18 z "},"₃":{"ha":551,"x_min":83,"x_max":444,"o":"m 149 -18 l 149 46 l 83 46 l 83 143 l 189 143 l 189 81 l 339 81 l 339 217 l 149 217 l 149 315 l 339 315 l 339 406 l 189 406 l 189 342 l 83 342 l 83 440 l 149 440 l 149 504 l 379 504 l 379 440 l 444 440 l 444 281 l 379 281 l 379 253 l 444 253 l 444 46 l 379 46 l 379 -18 l 149 -18 z "},"₄":{"ha":528,"x_min":85,"x_max":443,"o":"m 338 -17 l 338 107 l 85 107 l 85 283 l 146 283 l 146 346 l 211 346 l 211 408 l 276 408 l 276 471 l 443 471 l 443 -17 l 338 -17 m 229 222 l 338 222 l 338 357 l 317 357 l 317 294 l 274 294 l 263 272 l 229 272 l 229 222 z "},"₅":{"ha":553,"x_min":83,"x_max":446,"o":"m 147 -18 l 147 46 l 83 46 l 83 143 l 188 143 l 188 81 l 340 81 l 340 153 l 211 153 l 211 217 l 147 217 l 147 281 l 83 281 l 83 442 l 147 442 l 147 506 l 381 506 l 381 442 l 446 442 l 446 281 l 340 281 l 340 408 l 188 408 l 188 315 l 253 315 l 253 253 l 381 253 l 381 188 l 446 188 l 446 46 l 381 46 l 381 -18 l 147 -18 z "},"₆":{"ha":553,"x_min":83,"x_max":446,"o":"m 147 -18 l 147 46 l 83 46 l 83 442 l 147 442 l 147 506 l 381 506 l 381 442 l 446 442 l 446 343 l 340 343 l 340 408 l 188 408 l 188 315 l 381 315 l 381 253 l 446 253 l 446 46 l 381 46 l 381 -18 l 147 -18 m 188 81 l 340 81 l 340 217 l 188 217 l 188 81 z "},"₇":{"ha":528,"x_min":85,"x_max":443,"o":"m 338 -17 l 338 357 l 188 357 l 188 294 l 85 294 l 85 408 l 146 408 l 146 471 l 379 471 l 379 408 l 443 408 l 443 -17 l 338 -17 z "},"₈":{"ha":528,"x_min":85,"x_max":443,"o":"m 146 -17 l 146 46 l 85 46 l 85 215 l 106 219 l 106 239 l 85 258 l 85 408 l 146 408 l 146 471 l 379 471 l 379 408 l 443 408 l 443 239 l 421 236 l 421 215 l 443 194 l 443 46 l 379 46 l 379 -17 l 146 -17 m 188 97 l 338 97 l 338 169 l 188 169 l 188 97 m 188 283 l 338 283 l 338 357 l 188 357 l 188 283 z "},"₉":{"ha":553,"x_min":83,"x_max":446,"o":"m 147 -18 l 147 46 l 83 46 l 83 143 l 188 143 l 188 81 l 340 81 l 340 217 l 147 217 l 147 281 l 83 281 l 83 442 l 147 442 l 147 506 l 381 506 l 381 442 l 446 442 l 446 46 l 381 46 l 381 -18 l 147 -18 m 188 315 l 340 315 l 340 408 l 188 408 l 188 315 z "},"⁰":{"ha":526,"x_min":85,"x_max":442,"o":"m 146 396 l 146 458 l 85 458 l 85 819 l 146 819 l 146 883 l 379 883 l 379 819 l 442 819 l 442 458 l 379 458 l 379 396 l 146 396 m 188 511 l 338 511 l 338 769 l 188 769 l 188 511 z "},"¹":{"ha":400,"x_min":85,"x_max":315,"o":"m 211 396 l 211 769 l 188 769 l 188 707 l 85 707 l 85 819 l 146 819 l 146 883 l 251 883 l 251 819 l 315 819 l 315 396 l 211 396 z "},"²":{"ha":551,"x_min":83,"x_max":444,"o":"m 147 354 l 147 418 l 83 418 l 83 579 l 147 579 l 147 643 l 340 643 l 340 779 l 188 779 l 188 715 l 83 715 l 83 814 l 147 814 l 147 878 l 381 878 l 381 814 l 444 814 l 444 608 l 381 608 l 381 544 l 188 544 l 188 453 l 340 453 l 340 517 l 444 517 l 444 418 l 381 418 l 381 354 l 147 354 z "},"³":{"ha":551,"x_min":83,"x_max":444,"o":"m 149 357 l 149 422 l 83 422 l 83 519 l 189 519 l 189 457 l 339 457 l 339 549 l 149 549 l 149 646 l 339 646 l 339 781 l 189 781 l 189 718 l 83 718 l 83 815 l 149 815 l 149 881 l 379 881 l 379 815 l 444 815 l 444 610 l 379 610 l 379 583 l 444 583 l 444 422 l 379 422 l 379 357 l 149 357 z "},"⁴":{"ha":528,"x_min":85,"x_max":443,"o":"m 338 394 l 338 519 l 85 519 l 85 696 l 146 696 l 146 758 l 211 758 l 211 819 l 276 819 l 276 883 l 443 883 l 443 394 l 338 394 m 229 633 l 338 633 l 338 769 l 317 769 l 317 707 l 274 707 l 263 685 l 229 685 l 229 633 z "},"⁵":{"ha":553,"x_min":83,"x_max":446,"o":"m 147 356 l 147 421 l 83 421 l 83 518 l 188 518 l 188 456 l 340 456 l 340 482 l 211 482 l 211 547 l 147 547 l 147 608 l 83 608 l 83 815 l 147 815 l 147 881 l 381 881 l 381 815 l 446 815 l 446 654 l 340 654 l 340 782 l 188 782 l 188 644 l 253 644 l 253 582 l 381 582 l 381 518 l 446 518 l 446 421 l 381 421 l 381 356 l 147 356 z "},"⁶":{"ha":553,"x_min":83,"x_max":446,"o":"m 147 356 l 147 421 l 83 421 l 83 815 l 147 815 l 147 881 l 381 881 l 381 815 l 446 815 l 446 718 l 340 718 l 340 782 l 188 782 l 188 644 l 381 644 l 381 582 l 446 582 l 446 421 l 381 421 l 381 356 l 147 356 m 188 456 l 340 456 l 340 547 l 188 547 l 188 456 z "},"⁷":{"ha":528,"x_min":85,"x_max":443,"o":"m 338 394 l 338 769 l 188 769 l 188 707 l 85 707 l 85 819 l 146 819 l 146 883 l 379 883 l 379 819 l 443 819 l 443 394 l 338 394 z "},"⁸":{"ha":553,"x_min":83,"x_max":446,"o":"m 147 356 l 147 421 l 83 421 l 83 582 l 147 582 l 147 608 l 83 608 l 83 815 l 147 815 l 147 881 l 381 881 l 381 815 l 446 815 l 446 608 l 381 608 l 381 582 l 446 582 l 446 421 l 381 421 l 381 356 l 147 356 m 188 456 l 340 456 l 340 547 l 188 547 l 188 456 m 188 644 l 340 644 l 340 782 l 188 782 l 188 644 z "},"⁹":{"ha":553,"x_min":83,"x_max":446,"o":"m 147 356 l 147 421 l 83 421 l 83 518 l 188 518 l 188 456 l 340 456 l 340 547 l 147 547 l 147 608 l 83 608 l 83 815 l 147 815 l 147 881 l 381 881 l 381 815 l 446 815 l 446 421 l 381 421 l 381 356 l 147 356 m 188 644 l 340 644 l 340 782 l 188 782 l 188 644 z "}," ":{"ha":278,"x_min":0,"x_max":0,"o":""}," ":{"ha":278,"x_min":0,"x_max":0,"o":""},".":{"ha":333,"x_min":85,"x_max":249,"o":"m 85 0 l 85 174 l 249 174 l 249 0 l 85 0 z "},",":{"ha":394,"x_min":85,"x_max":310,"o":"m 146 -121 l 146 -54 l 167 -35 l 167 0 l 85 0 l 85 174 l 249 174 l 249 51 l 310 51 l 310 -58 l 249 -58 l 249 -121 l 146 -121 z "},":":{"ha":333,"x_min":85,"x_max":249,"o":"m 85 108 l 85 282 l 249 282 l 249 108 l 85 108 m 85 347 l 85 519 l 249 519 l 249 347 l 85 347 z "},";":{"ha":394,"x_min":85,"x_max":310,"o":"m 146 -11 l 146 57 l 167 74 l 167 108 l 85 108 l 85 282 l 249 282 l 249 161 l 310 161 l 310 50 l 249 50 l 249 -11 l 146 -11 m 85 347 l 85 519 l 249 519 l 249 347 l 85 347 z "},"…":{"ha":908,"x_min":85,"x_max":822,"o":"m 371 0 l 371 174 l 536 174 l 536 0 l 371 0 m 85 0 l 85 174 l 249 174 l 249 0 l 85 0 m 658 0 l 658 174 l 822 174 l 822 0 l 658 0 z "},"!":{"ha":333,"x_min":85,"x_max":249,"o":"m 85 226 l 85 883 l 249 883 l 249 226 l 85 226 m 85 -15 l 85 157 l 249 157 l 249 -15 l 85 -15 z "},"¡":{"ha":333,"x_min":85,"x_max":249,"o":"m 85 -15 l 85 640 l 249 640 l 249 -15 l 85 -15 m 85 711 l 85 883 l 249 883 l 249 711 l 85 711 z "},"?":{"ha":829,"x_min":85,"x_max":744,"o":"m 331 226 l 331 519 l 579 519 l 579 710 l 249 710 l 249 468 l 85 468 l 85 761 l 208 761 l 208 883 l 619 883 l 619 761 l 744 761 l 744 468 l 619 468 l 619 349 l 497 349 l 497 226 l 331 226 m 331 -15 l 331 157 l 497 157 l 497 -15 l 331 -15 z "},"¿":{"ha":829,"x_min":85,"x_max":744,"o":"m 208 -15 l 208 106 l 85 106 l 85 400 l 208 400 l 208 519 l 331 519 l 331 640 l 497 640 l 497 349 l 249 349 l 249 158 l 579 158 l 579 400 l 744 400 l 744 106 l 619 106 l 619 -15 l 208 -15 m 331 711 l 331 883 l 497 883 l 497 711 l 331 711 z "},"·":{"ha":333,"x_min":85,"x_max":249,"o":"m 85 357 l 85 529 l 249 529 l 249 357 l 85 357 z "},"•":{"ha":382,"x_min":85,"x_max":297,"o":"m 85 332 l 85 553 l 297 553 l 297 332 l 85 332 z "},"*":{"ha":394,"x_min":85,"x_max":310,"o":"m 85 589 l 85 686 l 106 693 l 106 715 l 85 718 l 85 821 l 146 821 l 146 883 l 249 883 l 249 821 l 310 821 l 310 718 l 289 713 l 289 693 l 310 663 l 310 589 l 208 589 l 208 650 l 186 650 l 186 589 l 85 589 z "},"‼":{"ha":619,"x_min":85,"x_max":533,"o":"m 368 226 l 368 883 l 533 883 l 533 226 l 368 226 m 85 -15 l 85 157 l 249 157 l 249 -15 l 85 -15 m 368 -15 l 368 157 l 533 157 l 533 -15 l 368 -15 m 85 226 l 85 883 l 249 883 l 249 226 l 85 226 z "},"#":{"ha":954,"x_min":85,"x_max":869,"o":"m 208 -15 l 208 104 l 85 104 l 85 278 l 208 278 l 208 468 l 85 468 l 85 640 l 208 640 l 208 883 l 372 883 l 372 640 l 579 640 l 579 883 l 744 883 l 744 640 l 869 640 l 869 468 l 744 468 l 744 278 l 869 278 l 869 104 l 744 104 l 744 -15 l 579 -15 l 579 104 l 372 104 l 372 -15 l 208 -15 m 372 278 l 579 278 l 579 468 l 372 468 l 372 278 z "},"/":{"ha":753,"x_min":81,"x_max":671,"o":"m 81 -17 l 522 876 l 671 876 l 229 -17 l 81 -17 z "},"\\":{"ha":753,"x_min":81,"x_max":671,"o":"m 522 -17 l 81 876 l 229 876 l 671 -17 l 522 -17 z "},"-":{"ha":494,"x_min":36,"x_max":449,"o":"m 36 261 l 36 435 l 449 435 l 449 261 l 36 261 z "},"–":{"ha":581,"x_min":85,"x_max":496,"o":"m 85 322 l 85 496 l 496 496 l 496 322 l 85 322 z "},"—":{"ha":715,"x_min":85,"x_max":631,"o":"m 85 322 l 85 496 l 631 496 l 631 322 l 85 322 z "},"_":{"ha":633,"x_min":85,"x_max":550,"o":"m 85 0 l 85 174 l 550 174 l 550 0 l 85 0 z "},"(":{"ha":540,"x_min":85,"x_max":497,"o":"m 331 -214 l 331 32 l 208 32 l 208 274 l 85 274 l 85 567 l 208 567 l 208 811 l 331 811 l 331 1051 l 497 1051 l 497 758 l 371 758 l 371 515 l 249 515 l 249 325 l 372 325 l 372 81 l 497 81 l 497 -214 l 331 -214 z "},")":{"ha":540,"x_min":43,"x_max":456,"o":"m 43 -214 l 43 81 l 167 81 l 167 325 l 290 325 l 290 515 l 167 515 l 167 758 l 43 758 l 43 1051 l 207 1051 l 207 811 l 331 811 l 331 567 l 456 567 l 456 274 l 331 274 l 331 32 l 207 32 l 207 -214 l 43 -214 z "},"{":{"ha":663,"x_min":43,"x_max":578,"o":"m 290 -143 l 290 -21 l 167 -21 l 167 343 l 43 343 l 43 514 l 167 514 l 167 878 l 290 878 l 290 999 l 456 999 l 456 878 l 578 878 l 578 706 l 414 706 l 414 825 l 331 825 l 331 463 l 207 463 l 207 394 l 331 394 l 331 31 l 414 31 l 414 153 l 578 153 l 578 -21 l 456 -21 l 456 -143 l 290 -143 z "},"}":{"ha":663,"x_min":43,"x_max":578,"o":"m 165 -143 l 165 -21 l 43 -21 l 43 153 l 206 153 l 206 31 l 290 31 l 290 394 l 413 394 l 413 463 l 290 463 l 290 825 l 206 825 l 206 706 l 43 706 l 43 878 l 165 878 l 165 999 l 331 999 l 331 878 l 453 878 l 453 514 l 578 514 l 578 343 l 454 343 l 454 -21 l 331 -21 l 331 -143 l 165 -143 z "},"[":{"ha":540,"x_min":85,"x_max":497,"o":"m 208 -81 l 208 40 l 85 40 l 85 818 l 208 818 l 208 938 l 497 938 l 497 765 l 249 765 l 249 93 l 497 93 l 497 -81 l 208 -81 z "},"]":{"ha":540,"x_min":43,"x_max":456,"o":"m 43 -81 l 43 93 l 290 93 l 290 765 l 43 765 l 43 938 l 331 938 l 331 818 l 456 818 l 456 40 l 331 40 l 331 -81 l 43 -81 z "},"‚":{"ha":394,"x_min":85,"x_max":310,"o":"m 146 -121 l 146 -43 l 167 -35 l 167 0 l 85 0 l 85 174 l 249 174 l 249 51 l 310 51 l 310 -58 l 249 -58 l 249 -121 l 146 -121 z "},"„":{"ha":665,"x_min":85,"x_max":579,"o":"m 417 -121 l 417 -49 l 438 -35 l 438 0 l 354 0 l 354 174 l 521 174 l 521 51 l 579 51 l 579 -58 l 521 -58 l 521 -121 l 417 -121 m 146 -121 l 146 -49 l 167 -35 l 167 0 l 85 0 l 85 174 l 249 174 l 249 51 l 310 51 l 310 -58 l 249 -58 l 249 -121 l 146 -121 z "},"“":{"ha":665,"x_min":85,"x_max":579,"o":"m 415 589 l 415 711 l 354 711 l 354 821 l 415 821 l 415 883 l 519 883 l 519 813 l 497 799 l 497 763 l 579 763 l 579 589 l 415 589 m 144 589 l 144 711 l 85 711 l 85 821 l 144 821 l 144 883 l 247 883 l 247 813 l 226 799 l 226 763 l 310 763 l 310 589 l 144 589 z "},"”":{"ha":665,"x_min":85,"x_max":579,"o":"m 417 589 l 417 658 l 438 674 l 438 710 l 354 710 l 354 883 l 521 883 l 521 761 l 579 761 l 579 650 l 521 650 l 521 589 l 417 589 m 146 589 l 146 663 l 167 674 l 167 710 l 85 710 l 85 883 l 249 883 l 249 761 l 310 761 l 310 650 l 249 650 l 249 589 l 146 589 z "},"‘":{"ha":394,"x_min":85,"x_max":310,"o":"m 144 589 l 144 711 l 85 711 l 85 821 l 144 821 l 144 883 l 247 883 l 247 814 l 226 799 l 226 763 l 310 763 l 310 589 l 144 589 z "},"’":{"ha":394,"x_min":85,"x_max":310,"o":"m 146 589 l 146 654 l 167 674 l 167 710 l 85 710 l 85 883 l 249 883 l 249 761 l 310 761 l 310 650 l 249 650 l 249 589 l 146 589 z "},"«":{"ha":1219,"x_min":43,"x_max":1136,"o":"m 971 -143 l 971 -21 l 849 -21 l 849 100 l 724 100 l 724 221 l 600 221 l 600 343 l 476 343 l 476 514 l 600 514 l 600 635 l 724 635 l 724 757 l 849 757 l 849 878 l 971 878 l 971 999 l 1136 999 l 1136 825 l 1011 825 l 1011 706 l 889 706 l 889 583 l 765 583 l 765 463 l 640 463 l 640 394 l 764 394 l 764 272 l 889 272 l 889 153 l 1011 153 l 1011 31 l 1136 31 l 1136 -143 l 971 -143 m 539 -143 l 539 -21 l 415 -21 l 415 100 l 290 100 l 290 221 l 167 221 l 167 343 l 43 343 l 43 514 l 167 514 l 167 635 l 290 635 l 290 757 l 414 757 l 414 878 l 539 878 l 539 999 l 703 999 l 703 825 l 578 825 l 578 706 l 454 706 l 454 583 l 331 583 l 331 463 l 207 463 l 207 394 l 331 394 l 331 272 l 454 272 l 454 153 l 578 153 l 578 31 l 703 31 l 703 -143 l 539 -143 z "},"»":{"ha":1192,"x_min":14,"x_max":1108,"o":"m 447 -143 l 447 31 l 571 31 l 571 153 l 696 153 l 696 272 l 819 272 l 819 394 l 943 394 l 943 463 l 819 463 l 819 583 l 696 583 l 696 706 l 572 706 l 572 825 l 447 825 l 447 999 l 613 999 l 613 878 l 736 878 l 736 757 l 860 757 l 860 635 l 985 635 l 985 514 l 1108 514 l 1108 343 l 985 343 l 985 221 l 860 221 l 860 100 l 736 100 l 736 -21 l 613 -21 l 613 -143 l 447 -143 m 14 -143 l 14 31 l 138 31 l 138 153 l 263 153 l 263 272 l 386 272 l 386 394 l 510 394 l 510 463 l 386 463 l 386 583 l 263 583 l 263 706 l 139 706 l 139 825 l 14 825 l 14 999 l 179 999 l 179 878 l 303 878 l 303 757 l 426 757 l 426 635 l 550 635 l 550 514 l 675 514 l 675 343 l 550 343 l 550 221 l 426 221 l 426 100 l 303 100 l 303 -21 l 179 -21 l 179 -143 l 14 -143 z "},"‹":{"ha":788,"x_min":85,"x_max":744,"o":"m 579 -143 l 579 -21 l 457 -21 l 457 100 l 331 100 l 331 221 l 208 221 l 208 343 l 85 343 l 85 514 l 208 514 l 208 635 l 331 635 l 331 757 l 457 757 l 457 878 l 579 878 l 579 999 l 744 999 l 744 825 l 619 825 l 619 706 l 497 706 l 497 583 l 371 583 l 371 463 l 249 463 l 249 394 l 372 394 l 372 272 l 497 272 l 497 153 l 619 153 l 619 31 l 744 31 l 744 -143 l 579 -143 z "},"›":{"ha":788,"x_min":43,"x_max":703,"o":"m 43 -143 l 43 31 l 167 31 l 167 153 l 290 153 l 290 272 l 414 272 l 414 394 l 539 394 l 539 463 l 415 463 l 415 583 l 290 583 l 290 706 l 167 706 l 167 825 l 43 825 l 43 999 l 207 999 l 207 878 l 331 878 l 331 757 l 454 757 l 454 635 l 578 635 l 578 514 l 703 514 l 703 343 l 578 343 l 578 221 l 454 221 l 454 100 l 331 100 l 331 -21 l 207 -21 l 207 -143 l 43 -143 z "},"\"":{"ha":665,"x_min":85,"x_max":579,"o":"m 417 589 l 417 657 l 438 674 l 438 710 l 354 710 l 354 883 l 521 883 l 521 761 l 579 761 l 579 650 l 521 650 l 521 589 l 417 589 m 146 589 l 146 654 l 167 674 l 167 710 l 85 710 l 85 883 l 249 883 l 249 761 l 310 761 l 310 650 l 249 650 l 249 589 l 146 589 z "},"'":{"ha":394,"x_min":85,"x_max":310,"o":"m 146 589 l 146 639 l 167 674 l 167 710 l 85 710 l 85 883 l 249 883 l 249 761 l 310 761 l 310 650 l 249 650 l 249 589 l 146 589 z "},"ƒ":{"ha":829,"x_min":-44,"x_max":742,"o":"m -44 -137 l -44 36 l 82 36 l 82 761 l 206 761 l 206 883 l 617 883 l 617 761 l 742 761 l 742 589 l 576 589 l 576 710 l 246 710 l 246 519 l 494 519 l 494 349 l 246 349 l 246 -137 l -44 -137 z "},"@":{"ha":894,"x_min":101,"x_max":742,"o":"m 208 101 l 208 165 l 146 165 l 146 208 l 101 208 l 101 550 l 146 550 l 146 611 l 208 611 l 208 656 l 563 656 l 563 611 l 606 611 l 606 550 l 669 550 l 669 489 l 742 489 l 742 331 l 678 331 l 678 268 l 633 268 l 633 225 l 525 225 l 525 260 l 492 260 l 492 225 l 293 225 l 293 260 l 253 260 l 253 447 l 293 447 l 293 482 l 510 482 l 510 447 l 547 447 l 547 293 l 592 293 l 592 365 l 656 365 l 656 454 l 601 454 l 601 515 l 539 515 l 539 576 l 222 576 l 222 515 l 186 515 l 186 225 l 250 225 l 250 164 l 500 164 l 500 101 l 208 101 m 333 293 l 468 293 l 468 411 l 333 411 l 333 293 z "},"&":{"ha":954,"x_min":85,"x_max":869,"o":"m 208 -15 l 208 104 l 85 104 l 85 278 l 208 278 l 208 400 l 331 400 l 331 468 l 208 468 l 208 589 l 85 589 l 85 761 l 208 761 l 208 883 l 619 883 l 619 761 l 744 761 l 744 589 l 619 589 l 619 468 l 497 468 l 497 400 l 619 400 l 619 278 l 746 278 l 746 157 l 869 157 l 869 -15 l 704 -15 l 704 104 l 619 104 l 619 -15 l 208 -15 m 249 157 l 579 157 l 579 226 l 456 226 l 456 349 l 372 349 l 372 226 l 249 226 l 249 157 m 372 519 l 456 519 l 456 640 l 579 640 l 579 710 l 249 710 l 249 640 l 372 640 l 372 519 z "},"¶":{"ha":1075,"x_min":85,"x_max":990,"o":"m 579 -258 l 579 229 l 208 229 l 208 350 l 85 350 l 85 761 l 208 761 l 208 883 l 990 883 l 990 710 l 922 710 l 922 -258 l 825 -258 l 825 710 l 676 710 l 676 -258 l 579 -258 z "},"§":{"ha":829,"x_min":85,"x_max":744,"o":"m 208 -15 l 208 104 l 85 104 l 85 400 l 208 400 l 208 468 l 85 468 l 85 761 l 208 761 l 208 883 l 619 883 l 619 761 l 744 761 l 744 589 l 579 589 l 579 710 l 249 710 l 249 519 l 619 519 l 619 400 l 744 400 l 744 226 l 249 226 l 249 157 l 744 157 l 744 -15 l 208 -15 z "},"©":{"ha":614,"x_min":97,"x_max":493,"o":"m 160 508 l 160 543 l 97 543 l 97 804 l 160 804 l 160 839 l 429 839 l 429 804 l 493 804 l 493 543 l 429 543 l 429 508 l 160 508 m 172 579 l 417 579 l 417 769 l 172 769 l 172 579 m 242 604 l 242 619 l 226 619 l 226 725 l 242 725 l 242 742 l 354 742 l 354 725 l 368 725 l 368 676 l 322 676 l 322 689 l 274 689 l 274 654 l 322 654 l 322 671 l 368 671 l 368 619 l 354 619 l 354 604 l 242 604 z "},"®":{"ha":614,"x_min":97,"x_max":517,"o":"m 160 497 l 160 532 l 97 532 l 97 810 l 160 810 l 160 844 l 454 844 l 454 810 l 517 810 l 517 532 l 454 532 l 454 497 l 160 497 m 200 588 l 414 588 l 414 754 l 200 754 l 200 588 m 254 614 l 254 683 l 271 683 l 271 718 l 369 718 l 369 693 l 386 693 l 386 653 l 340 653 l 340 669 l 311 669 l 311 614 l 254 614 z "},"™":{"ha":1107,"x_min":85,"x_max":1021,"o":"m 539 397 l 539 819 l 601 819 l 601 883 l 706 883 l 706 819 l 768 819 l 768 699 l 792 699 l 792 819 l 854 819 l 854 883 l 961 883 l 961 819 l 1021 819 l 1021 397 l 919 397 l 919 769 l 894 769 l 894 647 l 832 647 l 832 460 l 728 460 l 728 647 l 665 647 l 665 769 l 643 769 l 643 397 l 539 397 m 211 397 l 211 769 l 188 769 l 188 707 l 85 707 l 85 819 l 146 819 l 146 883 l 379 883 l 379 819 l 440 819 l 440 707 l 338 707 l 338 769 l 314 769 l 314 397 l 211 397 z "},"°":{"ha":458,"x_min":85,"x_max":374,"o":"m 133 525 l 133 574 l 85 574 l 85 771 l 133 771 l 133 819 l 324 819 l 324 771 l 374 771 l 374 574 l 324 574 l 324 525 l 133 525 m 174 625 l 283 625 l 283 719 l 174 719 l 174 625 z "},"|":{"ha":333,"x_min":85,"x_max":249,"o":"m 85 -15 l 85 883 l 249 883 l 249 -15 l 85 -15 z "},"†":{"ha":581,"x_min":85,"x_max":496,"o":"m 207 -15 l 207 539 l 85 539 l 85 713 l 207 713 l 207 883 l 372 883 l 372 713 l 496 713 l 496 539 l 372 539 l 372 -15 l 207 -15 z "},"№":{"ha":1613,"x_min":85,"x_max":1528,"o":"m 85 -15 l 85 883 l 249 883 l 249 761 l 371 761 l 371 640 l 497 640 l 497 278 l 579 278 l 579 883 l 744 883 l 744 -15 l 579 -15 l 579 104 l 457 104 l 457 226 l 331 226 l 331 589 l 249 589 l 249 -15 l 85 -15 m 964 -17 l 964 157 l 1429 157 l 1429 -17 l 964 -17 m 990 224 l 990 344 l 867 344 l 867 758 l 990 758 l 990 881 l 1404 881 l 1404 758 l 1528 758 l 1528 344 l 1404 344 l 1404 224 l 990 224 m 1031 396 l 1363 396 l 1363 707 l 1031 707 l 1031 396 z "},"¢":{"ha":829,"x_min":85,"x_max":744,"o":"m 326 0 l 326 132 l 208 132 l 208 251 l 85 251 l 85 667 l 208 667 l 208 788 l 326 788 l 326 919 l 503 919 l 503 788 l 619 788 l 619 667 l 744 667 l 744 494 l 579 494 l 579 614 l 249 614 l 249 304 l 579 304 l 579 424 l 744 424 l 744 251 l 619 251 l 619 132 l 503 132 l 503 0 l 326 0 z "},"₡":{"ha":829,"x_min":85,"x_max":744,"o":"m 219 -94 l 232 -15 l 208 -15 l 208 104 l 85 104 l 85 761 l 208 761 l 208 883 l 368 883 l 381 963 l 478 963 l 467 883 l 490 883 l 503 963 l 600 963 l 588 883 l 619 883 l 619 761 l 744 761 l 744 468 l 579 468 l 579 710 l 561 710 l 478 157 l 579 157 l 579 400 l 744 400 l 744 104 l 619 104 l 619 -15 l 451 -15 l 439 -94 l 342 -94 l 353 -15 l 331 -15 l 318 -94 l 219 -94 m 249 169 l 261 169 l 340 710 l 249 710 l 249 169 m 357 157 l 381 157 l 463 710 l 438 710 l 357 157 z "},"¤":{"ha":746,"x_min":83,"x_max":661,"o":"m 256 253 l 256 315 l 193 315 l 193 538 l 256 538 l 256 601 l 489 601 l 489 538 l 551 538 l 551 315 l 489 315 l 489 253 l 256 253 m 83 190 l 83 288 l 188 288 l 188 190 l 83 190 m 83 565 l 83 664 l 188 664 l 188 565 l 83 565 m 297 350 l 447 350 l 447 503 l 297 503 l 297 350 m 556 190 l 556 288 l 661 288 l 661 190 l 556 190 m 556 565 l 556 664 l 661 664 l 661 565 l 556 565 z "},"$":{"ha":829,"x_min":85,"x_max":744,"o":"m 343 -137 l 343 -15 l 208 -15 l 208 104 l 85 104 l 85 278 l 249 278 l 249 157 l 579 157 l 579 349 l 208 349 l 208 468 l 85 468 l 85 761 l 208 761 l 208 883 l 343 883 l 343 1004 l 510 1004 l 510 883 l 619 883 l 619 761 l 744 761 l 744 589 l 579 589 l 579 710 l 249 710 l 249 519 l 619 519 l 619 400 l 744 400 l 744 104 l 619 104 l 619 -15 l 510 -15 l 510 -137 l 343 -137 z "},"€":{"ha":829,"x_min":85,"x_max":744,"o":"m 208 -15 l 208 104 l 85 104 l 85 761 l 208 761 l 208 883 l 619 883 l 619 761 l 744 761 l 744 468 l 579 468 l 579 710 l 249 710 l 249 611 l 499 611 l 499 438 l 249 438 l 249 410 l 499 410 l 499 238 l 249 238 l 249 157 l 579 157 l 579 400 l 744 400 l 744 104 l 619 104 l 619 -15 l 208 -15 z "},"₣":{"ha":828,"x_min":32,"x_max":744,"o":"m 32 -15 l 32 158 l 83 158 l 83 883 l 619 883 l 619 761 l 744 761 l 744 589 l 578 589 l 578 710 l 247 710 l 247 519 l 496 519 l 496 349 l 247 349 l 247 158 l 308 158 l 308 -15 l 32 -15 z "},"₤":{"ha":953,"x_min":85,"x_max":868,"o":"m 85 -15 l 85 157 l 208 157 l 208 761 l 331 761 l 331 883 l 744 883 l 744 761 l 868 761 l 868 589 l 704 589 l 704 710 l 372 710 l 372 586 l 619 586 l 619 414 l 372 414 l 372 375 l 619 375 l 619 203 l 372 203 l 372 157 l 704 157 l 704 278 l 868 278 l 868 104 l 744 104 l 744 -15 l 85 -15 z "},"₧":{"ha":1660,"x_min":85,"x_max":1575,"o":"m 85 -15 l 85 761 l 208 761 l 208 883 l 619 883 l 619 761 l 744 761 l 744 349 l 619 349 l 619 226 l 249 226 l 249 -15 l 85 -15 m 249 400 l 579 400 l 579 710 l 249 710 l 249 400 m 907 -15 l 907 44 l 846 44 l 846 221 l 785 221 l 785 333 l 846 333 l 846 451 l 949 451 l 949 333 l 1131 333 l 1131 221 l 949 221 l 949 96 l 1090 96 l 1090 156 l 1192 156 l 1192 44 l 1131 44 l 1131 -15 l 907 -15 m 1229 -15 l 1229 96 l 1353 96 l 1353 142 l 1251 142 l 1251 175 l 1229 183 l 1229 272 l 1292 272 l 1292 333 l 1575 333 l 1575 221 l 1451 221 l 1451 175 l 1554 175 l 1554 147 l 1575 133 l 1575 44 l 1514 44 l 1514 -15 l 1229 -15 z "},"£":{"ha":953,"x_min":85,"x_max":868,"o":"m 85 -15 l 85 157 l 208 157 l 208 761 l 331 761 l 331 883 l 744 883 l 744 761 l 868 761 l 868 589 l 704 589 l 704 710 l 372 710 l 372 519 l 619 519 l 619 349 l 372 349 l 372 157 l 704 157 l 704 278 l 868 278 l 868 104 l 744 104 l 744 -15 l 85 -15 z "},"¥":{"ha":851,"x_min":83,"x_max":750,"o":"m 333 -17 l 333 86 l 208 86 l 208 207 l 333 207 l 333 269 l 208 269 l 208 393 l 333 393 l 333 476 l 208 476 l 208 599 l 83 599 l 83 881 l 250 881 l 250 633 l 374 633 l 374 510 l 458 510 l 458 633 l 583 633 l 583 881 l 750 881 l 750 599 l 624 599 l 624 476 l 500 476 l 500 393 l 624 393 l 624 269 l 500 269 l 500 207 l 624 207 l 624 86 l 500 86 l 500 -17 l 333 -17 z "},"∕":{"ha":753,"x_min":85,"x_max":668,"o":"m 85 -15 l 85 247 l 192 247 l 192 458 l 301 458 l 301 564 l 408 564 l 408 776 l 519 776 l 519 883 l 668 883 l 668 619 l 560 619 l 560 513 l 449 513 l 449 301 l 342 301 l 342 196 l 232 196 l 232 -15 l 85 -15 z "},"+":{"ha":833,"x_min":86,"x_max":747,"o":"m 333 117 l 333 344 l 86 344 l 86 517 l 333 517 l 333 772 l 499 772 l 499 517 l 747 517 l 747 344 l 499 344 l 499 117 l 333 117 z "},"−":{"ha":833,"x_min":144,"x_max":690,"o":"m 144 336 l 144 510 l 690 510 l 690 336 l 144 336 z "},"×":{"ha":833,"x_min":115,"x_max":718,"o":"m 246 146 l 125 264 l 300 435 l 115 614 l 236 733 l 422 553 l 597 724 l 718 606 l 544 435 l 708 275 l 586 157 l 422 317 l 246 146 z "},"÷":{"ha":833,"x_min":144,"x_max":690,"o":"m 144 336 l 144 510 l 690 510 l 690 336 l 144 336 m 333 101 l 333 275 l 499 275 l 499 101 l 333 101 m 333 572 l 333 744 l 499 744 l 499 572 l 333 572 z "},"=":{"ha":833,"x_min":144,"x_max":690,"o":"m 144 407 l 144 581 l 690 581 l 690 407 l 144 407 m 144 149 l 144 322 l 690 322 l 690 149 l 144 149 z "},"≠":{"ha":833,"x_min":144,"x_max":690,"o":"m 218 15 l 424 733 l 590 733 l 383 15 l 218 15 m 144 149 l 144 322 l 690 322 l 690 149 l 144 149 m 144 407 l 144 581 l 690 581 l 690 407 l 144 407 z "},">":{"ha":833,"x_min":86,"x_max":747,"o":"m 86 -143 l 86 31 l 211 31 l 211 153 l 335 153 l 335 272 l 458 272 l 458 394 l 583 394 l 583 463 l 458 463 l 458 583 l 335 583 l 335 706 l 210 706 l 210 825 l 86 825 l 86 999 l 251 999 l 251 878 l 375 878 l 375 757 l 499 757 l 499 635 l 621 635 l 621 514 l 747 514 l 747 343 l 622 343 l 622 221 l 499 221 l 499 100 l 375 100 l 375 -21 l 251 -21 l 251 -143 l 86 -143 z "},"<":{"ha":833,"x_min":86,"x_max":747,"o":"m 582 -143 l 582 -21 l 458 -21 l 458 100 l 333 100 l 333 221 l 210 221 l 210 343 l 86 343 l 86 514 l 211 514 l 211 635 l 333 635 l 333 757 l 458 757 l 458 878 l 582 878 l 582 999 l 747 999 l 747 825 l 622 825 l 622 706 l 500 706 l 500 583 l 374 583 l 374 463 l 251 463 l 251 394 l 374 394 l 374 272 l 500 272 l 500 153 l 622 153 l 622 31 l 747 31 l 747 -143 l 582 -143 z "},"≥":{"ha":833,"x_min":167,"x_max":668,"o":"m 168 142 l 168 283 l 261 283 l 261 374 l 351 374 l 351 461 l 444 461 l 444 551 l 535 551 l 535 589 l 444 589 l 444 678 l 351 678 l 351 769 l 261 769 l 261 858 l 168 858 l 168 999 l 301 999 l 301 910 l 393 910 l 393 819 l 483 819 l 483 731 l 575 731 l 575 640 l 668 640 l 668 500 l 575 500 l 575 410 l 483 410 l 483 321 l 393 321 l 393 232 l 301 232 l 301 142 l 168 142 m 167 -79 l 167 44 l 668 44 l 668 -79 l 167 -79 z "},"≤":{"ha":833,"x_min":167,"x_max":667,"o":"m 532 142 l 532 232 l 440 232 l 440 321 l 349 321 l 349 410 l 258 410 l 258 500 l 167 500 l 167 640 l 258 640 l 258 731 l 349 731 l 349 819 l 440 819 l 440 910 l 532 910 l 532 999 l 665 999 l 665 858 l 572 858 l 572 769 l 481 769 l 481 678 l 390 678 l 390 589 l 299 589 l 299 551 l 390 551 l 390 461 l 481 461 l 481 374 l 572 374 l 572 283 l 665 283 l 665 142 l 532 142 m 167 -79 l 167 44 l 667 44 l 667 -79 l 167 -79 z "},"±":{"ha":833,"x_min":140,"x_max":694,"o":"m 332 215 l 332 372 l 140 372 l 140 525 l 332 525 l 332 682 l 501 682 l 501 525 l 694 525 l 694 372 l 501 372 l 501 215 l 332 215 m 140 -10 l 140 144 l 694 144 l 694 -10 l 140 -10 z "},"≈":{"ha":833,"x_min":235,"x_max":599,"o":"m 235 407 l 235 583 l 467 583 l 467 522 l 496 522 l 496 583 l 599 583 l 599 407 l 365 407 l 365 469 l 336 469 l 336 407 l 235 407 m 235 146 l 235 322 l 467 322 l 467 261 l 496 261 l 496 322 l 599 322 l 599 146 l 365 146 l 365 208 l 336 208 l 336 146 l 235 146 z "},"~":{"ha":833,"x_min":235,"x_max":599,"o":"m 235 264 l 235 440 l 467 440 l 467 379 l 496 379 l 496 440 l 599 440 l 599 264 l 365 264 l 365 326 l 336 326 l 336 264 l 235 264 z "},"¬":{"ha":833,"x_min":144,"x_max":690,"o":"m 525 286 l 525 407 l 144 407 l 144 581 l 690 581 l 690 286 l 525 286 z "},"^":{"ha":394,"x_min":85,"x_max":310,"o":"m 85 710 l 85 821 l 146 821 l 146 883 l 249 883 l 249 821 l 310 821 l 310 710 l 208 710 l 208 771 l 186 771 l 186 710 l 85 710 z "},"∞":{"ha":1325,"x_min":85,"x_max":1240,"o":"m 208 -15 l 208 104 l 85 104 l 85 519 l 208 519 l 208 640 l 619 640 l 619 519 l 704 519 l 704 640 l 1117 640 l 1117 519 l 1240 519 l 1240 104 l 1117 104 l 1117 -15 l 704 -15 l 704 104 l 619 104 l 619 -15 l 208 -15 m 249 157 l 579 157 l 579 468 l 249 468 l 249 157 m 744 157 l 1075 157 l 1075 468 l 744 468 l 744 157 z "},"Ω":{"ha":825,"x_min":0,"x_max":824,"o":"m 0 -17 l 0 157 l 82 157 l 82 761 l 206 761 l 206 882 l 618 882 l 618 761 l 743 761 l 743 157 l 824 157 l 824 -17 l 578 -17 l 578 710 l 247 710 l 247 -17 l 0 -17 z "},"∆":{"ha":829,"x_min":85,"x_max":744,"o":"m 85 -15 l 85 640 l 208 640 l 208 761 l 331 761 l 331 883 l 497 883 l 497 761 l 619 761 l 619 640 l 744 640 l 744 -15 l 85 -15 m 249 158 l 579 158 l 579 589 l 456 589 l 456 710 l 372 710 l 372 589 l 249 589 l 249 158 z "},"∏":{"ha":829,"x_min":85,"x_max":744,"o":"m 85 -15 l 85 883 l 744 883 l 744 -15 l 581 -15 l 581 710 l 249 710 l 249 -15 l 85 -15 z "},"∑":{"ha":1076,"x_min":83,"x_max":990,"o":"m 207 -15 l 207 106 l 83 106 l 83 278 l 207 278 l 207 400 l 454 400 l 454 468 l 207 468 l 207 589 l 83 589 l 83 763 l 207 763 l 207 883 l 990 883 l 990 711 l 247 711 l 247 640 l 496 640 l 496 519 l 868 519 l 868 349 l 496 349 l 496 226 l 247 226 l 247 158 l 990 158 l 990 -15 l 207 -15 z "},"µ":{"ha":829,"x_min":85,"x_max":744,"o":"m 85 -251 l 85 640 l 249 640 l 249 157 l 579 157 l 579 640 l 744 640 l 744 104 l 619 104 l 619 -15 l 249 -15 l 249 -251 l 85 -251 z "},"%":{"ha":1213,"x_min":85,"x_max":1128,"o":"m 150 -15 l 150 157 l 276 157 l 276 278 l 399 278 l 399 400 l 525 400 l 525 519 l 647 519 l 647 640 l 771 640 l 771 761 l 896 761 l 896 883 l 1060 883 l 1060 710 l 938 710 l 938 589 l 811 589 l 811 468 l 688 468 l 688 349 l 565 349 l 565 226 l 440 226 l 440 104 l 317 104 l 317 -15 l 150 -15 m 208 468 l 208 589 l 85 589 l 85 761 l 208 761 l 208 883 l 372 883 l 372 761 l 497 761 l 497 589 l 372 589 l 372 468 l 208 468 m 839 -15 l 839 104 l 715 104 l 715 278 l 839 278 l 839 400 l 1004 400 l 1004 278 l 1128 278 l 1128 104 l 1004 104 l 1004 -15 l 839 -15 z "},"‰":{"ha":906,"x_min":43,"x_max":821,"o":"m 146 463 l 146 525 l 83 525 l 83 888 l 146 888 l 146 949 l 378 949 l 378 888 l 442 888 l 442 525 l 378 525 l 378 463 l 146 463 m 146 -82 l 146 -21 l 83 -21 l 83 196 l 146 196 l 146 258 l 378 258 l 378 196 l 442 196 l 442 -21 l 378 -21 l 378 -82 l 146 -82 m 186 31 l 338 31 l 338 144 l 186 144 l 186 31 m 526 -82 l 526 -21 l 463 -21 l 463 196 l 526 196 l 526 258 l 758 258 l 758 196 l 821 196 l 821 -21 l 758 -21 l 758 -82 l 526 -82 m 565 31 l 717 31 l 717 144 l 565 144 l 565 31 m 43 331 l 43 429 l 758 429 l 758 331 l 43 331 m 186 576 l 338 576 l 338 835 l 186 835 l 186 576 z "},"̈":{"ha":0,"x_min":-19,"x_max":436,"o":"m -19 710 l -19 883 l 147 883 l 147 710 l -19 710 m 271 710 l 271 883 l 436 883 l 436 710 l 271 710 z "},"̇":{"ha":0,"x_min":125,"x_max":292,"o":"m 125 715 l 125 889 l 292 889 l 292 715 l 125 715 z "},"̀":{"ha":0,"x_min":83,"x_max":310,"o":"m 207 715 l 207 774 l 144 774 l 144 835 l 83 835 l 83 947 l 185 947 l 185 886 l 247 886 l 247 826 l 310 826 l 310 715 l 207 715 z "},"́":{"ha":0,"x_min":96,"x_max":322,"o":"m 96 715 l 96 826 l 157 826 l 157 886 l 221 886 l 221 947 l 322 947 l 322 835 l 260 835 l 260 774 l 199 774 l 199 715 l 96 715 z "},"̋":{"ha":0,"x_min":-18,"x_max":435,"o":"m 332 715 l 332 774 l 271 774 l 271 835 l 208 835 l 208 947 l 310 947 l 310 886 l 374 886 l 374 826 l 435 826 l 435 715 l 332 715 m 106 715 l 106 774 l 43 774 l 43 835 l -18 835 l -18 947 l 83 947 l 83 886 l 146 886 l 146 826 l 207 826 l 207 715 l 106 715 z "},"̂":{"ha":0,"x_min":94,"x_max":321,"o":"m 94 715 l 94 826 l 157 826 l 157 889 l 260 889 l 260 826 l 321 826 l 321 715 l 218 715 l 218 776 l 196 776 l 196 715 l 94 715 z "},"̌":{"ha":0,"x_min":94,"x_max":321,"o":"m 157 715 l 157 776 l 94 776 l 94 889 l 196 889 l 196 828 l 218 828 l 218 889 l 321 889 l 321 776 l 260 776 l 260 715 l 157 715 z "},"̆":{"ha":0,"x_min":31,"x_max":388,"o":"m 31 715 l 31 889 l 132 889 l 132 828 l 288 828 l 288 889 l 388 889 l 388 715 l 31 715 z "},"̊":{"ha":0,"x_min":128,"x_max":290,"o":"m 128 715 l 128 889 l 290 889 l 290 715 l 128 715 m 174 761 l 244 761 l 244 843 l 174 843 l 174 761 z "},"̃":{"ha":0,"x_min":26,"x_max":390,"o":"m 26 715 l 26 892 l 261 892 l 261 831 l 285 831 l 285 892 l 390 892 l 390 715 l 154 715 l 154 778 l 131 778 l 131 715 l 26 715 z "},"̄":{"ha":0,"x_min":3,"x_max":414,"o":"m 3 715 l 3 879 l 414 879 l 414 715 l 3 715 z "},"̒":{"ha":0,"x_min":94,"x_max":321,"o":"m 157 715 l 157 836 l 94 836 l 94 947 l 157 947 l 157 1008 l 260 1008 l 260 924 l 238 925 l 238 889 l 321 889 l 321 715 l 157 715 z "},"̦":{"ha":0,"x_min":122,"x_max":349,"o":"m 183 -358 l 183 -274 l 206 -272 l 206 -237 l 122 -237 l 122 -64 l 286 -64 l 286 -186 l 349 -186 l 349 -296 l 286 -296 l 286 -358 l 183 -358 z "},"̧":{"ha":0,"x_min":33,"x_max":382,"o":"m 94 -268 l 94 -207 l 33 -207 l 33 -96 l 136 -96 l 136 -156 l 239 -156 l 239 -126 l 218 -124 l 218 -86 l 157 -86 l 157 36 l 300 36 l 300 -75 l 361 -75 l 361 -129 l 382 -147 l 382 -207 l 321 -207 l 321 -268 l 94 -268 z "},"̨":{"ha":0,"x_min":33,"x_max":382,"o":"m 94 -268 l 94 -207 l 33 -207 l 33 -96 l 94 -96 l 94 -54 l 115 -56 l 115 54 l 260 54 l 260 -86 l 197 -86 l 197 -115 l 176 -124 l 176 -156 l 281 -156 l 281 -96 l 382 -96 l 382 -207 l 321 -207 l 321 -268 l 94 -268 z "},"¨":{"ha":417,"x_min":-18,"x_max":436,"o":"m -18 690 l -18 864 l 147 864 l 147 690 l -18 690 m 272 690 l 272 864 l 436 864 l 436 690 l 272 690 z "},"˙":{"ha":417,"x_min":139,"x_max":304,"o":"m 139 724 l 139 897 l 304 897 l 304 724 l 139 724 z "},"`":{"ha":393,"x_min":83,"x_max":310,"o":"m 207 715 l 207 774 l 144 774 l 144 835 l 83 835 l 83 947 l 185 947 l 185 886 l 247 886 l 247 826 l 310 826 l 310 715 l 207 715 z "},"´":{"ha":417,"x_min":83,"x_max":310,"o":"m 83 722 l 83 833 l 144 833 l 144 893 l 208 893 l 208 956 l 310 956 l 310 843 l 247 843 l 247 781 l 186 781 l 186 722 l 83 722 z "},"˝":{"ha":513,"x_min":15,"x_max":469,"o":"m 367 717 l 367 775 l 304 775 l 304 836 l 243 836 l 243 949 l 344 949 l 344 888 l 407 888 l 407 828 l 469 828 l 469 717 l 367 717 m 139 717 l 139 775 l 78 775 l 78 836 l 15 836 l 15 949 l 117 949 l 117 888 l 181 888 l 181 828 l 242 828 l 242 717 l 139 717 z "},"ˆ":{"ha":417,"x_min":94,"x_max":321,"o":"m 94 715 l 94 826 l 157 826 l 157 889 l 260 889 l 260 826 l 321 826 l 321 715 l 218 715 l 218 776 l 196 776 l 196 715 l 94 715 z "},"ˇ":{"ha":417,"x_min":94,"x_max":321,"o":"m 157 715 l 157 776 l 94 776 l 94 889 l 196 889 l 196 828 l 218 828 l 218 889 l 321 889 l 321 776 l 260 776 l 260 715 l 157 715 z "},"˘":{"ha":417,"x_min":26,"x_max":385,"o":"m 26 722 l 26 896 l 128 896 l 128 835 l 285 835 l 285 896 l 385 896 l 385 722 l 26 722 z "},"˚":{"ha":417,"x_min":124,"x_max":286,"o":"m 124 724 l 124 897 l 286 897 l 286 724 l 124 724 m 169 769 l 240 769 l 240 851 l 169 851 l 169 769 z "},"˜":{"ha":417,"x_min":26,"x_max":390,"o":"m 26 715 l 26 892 l 261 892 l 261 831 l 285 831 l 285 892 l 390 892 l 390 715 l 154 715 l 154 778 l 131 778 l 131 715 l 26 715 z "},"¯":{"ha":417,"x_min":4,"x_max":417,"o":"m 4 792 l 4 965 l 417 965 l 417 792 l 4 792 z "},"¸":{"ha":417,"x_min":40,"x_max":390,"o":"m 103 -268 l 103 -207 l 40 -207 l 40 -96 l 143 -96 l 143 -156 l 247 -156 l 247 -131 l 226 -124 l 226 -86 l 164 -86 l 164 36 l 307 36 l 307 -75 l 369 -75 l 369 -129 l 390 -147 l 390 -207 l 329 -207 l 329 -268 l 103 -268 z "},"˛":{"ha":417,"x_min":35,"x_max":383,"o":"m 96 -268 l 96 -207 l 35 -207 l 35 -96 l 96 -96 l 96 -64 l 117 -56 l 117 54 l 260 54 l 260 -86 l 199 -86 l 199 -115 l 178 -124 l 178 -156 l 282 -156 l 282 -96 l 383 -96 l 383 -207 l 322 -207 l 322 -268 l 96 -268 z "}}}
